<svg xmlns="http://www.w3.org/2000/svg" xmlns:xlink="http://www.w3.org/1999/xlink" width="200" height="240" viewBox="0 0 200 240" fill="none">
<g  opacity="0.3">
<g opacity="0.3">
<path d="M0 26.9082L0 189.122C0.0098658 196.252 2.85122 203.086 7.89593 208.125C12.9406 213.162 19.7793 215.991 26.9106 215.991L137.519 215.991C144.651 215.991 151.489 213.162 156.534 208.125C161.579 203.086 164.42 196.252 164.43 189.122L164.43 49.2481L139.67 49.2481C134.203 49.2416 128.961 47.0688 125.095 43.2025C121.229 39.3363 119.056 34.0963 119.051 28.6296L119.051 0L26.9106 0C19.7727 0 12.9291 2.83596 7.88113 7.88151C2.83477 12.9271 0 19.7718 0 26.9082Z"   fill="#FF3E4C" >
</path>
</g>
</g>
<path d="M119.05 0L119.05 28.6288C119.055 34.0959 121.23 39.3373 125.095 43.2028C128.961 47.0688 134.203 49.2426 139.67 49.248L164.43 49.248L119.05 0Z"   fill="#FF3E4C" >
</path>
<path d="M42.8401 186.662L42.8401 223.94C42.8401 232.809 50.0302 240 58.9003 240L183.94 240C192.81 240 200 232.809 200 223.94L200 186.662C200 177.793 192.81 170.603 183.94 170.603L58.9003 170.603C50.0302 170.603 42.8401 177.793 42.8401 186.662Z"   fill="#FF3E4C" >
</path>
<g >
<path     fill="#FF0000"  d="M78.8158 107.606L84.6478 107.606C83.3518 96.3023 96.3118 92.0543 96.3118 81.4703C96.3118 73.5503 90.9837 68.6543 82.8477 68.6543C77.0158 68.6543 72.4078 71.4623 69.0958 75.2783L72.8398 78.7343C75.3598 75.8543 78.5278 74.1263 82.1278 74.1263C87.3118 74.1263 89.9037 77.5823 89.9037 81.9023C89.9037 90.4703 77.0878 95.0783 78.8158 107.606ZM81.9118 124.454C84.5758 124.454 86.7357 122.438 86.7357 119.486C86.7357 116.462 84.5758 114.446 81.9118 114.446C79.2478 114.446 77.2318 116.462 77.2318 119.486C77.2318 122.438 79.2478 124.454 81.9118 124.454Z">
</path>
</g>
<path d="M123.492 183.867C126.641 183.867 129.598 184.964 131.824 186.96C134.05 188.955 135.273 191.606 135.273 194.429C135.273 196.405 134.662 198.329 133.512 199.995C132.385 201.62 130.793 202.94 128.901 203.819C126.998 204.702 125.407 206.038 124.291 207.673C123.486 208.861 122.96 210.151 122.722 211.491L119.051 211.491C119.301 209.455 120.043 207.475 121.243 205.702C122.733 203.499 124.88 201.676 127.44 200.426C130.164 199.101 131.654 196.902 131.643 194.242C131.626 190.316 128.018 187.117 123.605 187.117L120.773 187.117C118.043 187.117 115.494 188.366 113.993 190.367L109.893 190.367C110.227 189.656 110.646 188.976 111.144 188.341C111.858 187.437 112.719 186.64 113.71 185.975C115.761 184.594 118.202 183.867 120.773 183.867L123.492 183.867ZM123.492 180.618L120.773 180.618C113.841 180.618 107.978 184.721 106.047 190.367C105.9 190.794 105.775 191.225 105.679 191.667C105.452 192.673 106.307 193.617 107.457 193.617L115.047 193.617C115.744 193.617 116.384 193.256 116.684 192.693C117.409 191.317 118.972 190.367 120.779 190.367L123.611 190.367C126.018 190.367 128.012 192.099 128.023 194.257C128.029 195.856 127.089 196.897 125.718 197.568C119.374 200.66 115.336 206.53 115.336 212.999C115.336 213.959 116.202 214.741 117.279 214.741L125.35 214.741C125.888 214.741 126.307 214.325 126.25 213.847C126.069 212.238 126.494 210.674 127.383 209.364C128.137 208.252 129.224 207.322 130.566 206.703C135.517 204.403 138.898 199.771 138.898 194.429C138.898 190.616 137.176 187.163 134.384 184.665C131.597 182.161 127.746 180.618 123.492 180.618ZM124.398 222.866C124.398 224.658 122.773 226.116 120.773 226.116C118.774 226.116 117.148 224.658 117.148 222.866C117.148 221.073 118.774 219.616 120.773 219.616C122.773 219.616 124.398 221.073 124.398 222.866ZM120.773 216.366C116.769 216.366 113.523 219.276 113.523 222.866C113.523 226.456 116.769 229.366 120.773 229.366C124.778 229.366 128.023 226.456 128.023 222.866C128.023 219.276 124.778 216.366 120.773 216.366Z"   fill="#FFFFFF" >
</path>
</svg>
