<svg xmlns="http://www.w3.org/2000/svg" xmlns:xlink="http://www.w3.org/1999/xlink" width="200" height="240.010009765625" viewBox="0 0 200 240.010009765625" fill="none">
<g  opacity="0.3">
<g opacity="0.3">
<path d="M7.88113 7.88114C2.83477 12.9278 0 19.772 0 26.9099L0 189.13C0 196.268 2.83477 203.112 7.88113 208.159C12.9291 213.206 19.7727 216.04 26.9106 216.04L137.51 216.04C141.045 216.042 144.545 215.347 147.811 213.994C151.077 212.642 154.045 210.661 156.544 208.161C159.045 205.664 161.028 202.695 162.381 199.431C163.734 196.164 164.43 192.664 164.43 189.13L164.43 49.2506L139.67 49.2506C134.201 49.242 128.961 47.0665 125.095 43.1972C121.229 39.3301 119.056 34.089 119.051 28.621L119.051 0L26.9106 0C19.7727 0 12.9291 2.83444 7.88113 7.88114Z"   fill="#FF9908" >
</path>
</g>
</g>
<path d="M119.05 0L119.05 28.6202C119.055 34.0879 121.229 39.3306 125.095 43.1982C128.96 47.0658 134.202 49.2421 139.67 49.25L164.43 49.25L119.05 0Z"   fill="#FF9908" >
</path>
<path d="M42.8401 186.67L42.8401 223.95C42.8401 232.819 50.0302 240.01 58.9003 240.01L183.94 240.01C192.81 240.01 200 232.819 200 223.95L200 186.67C200 177.801 192.81 170.61 183.94 170.61L58.9003 170.61C50.0302 170.61 42.8401 177.801 42.8401 186.67Z"   fill="#FF9908" >
</path>
<path d="M96.26 213.38L96.26 220.65L103.79 220.65L103.79 213.38L96.26 213.38Z"   fill="#FFFFFF" >
</path>
<path d="M124.33 209.63L120.59 198.57L116.81 209.63L124.33 209.63ZM114.93 215.16L126.21 215.16L128.05 220.65L135.79 220.65L124.79 190.79L116.41 190.79L105.41 220.65L113.06 220.65L114.93 215.16Z" fill-rule="evenodd"  fill="#FFFFFF" >
</path>
<path d="M138.63 190.58L138.63 220.65L145.9 220.65L145.9 190.58L138.63 190.58Z"   fill="#FFFFFF" >
</path>
<path d="M76.8997 111.69C77.173 111.417 77.4976 111.2 77.8539 111.052C78.2108 110.904 78.5934 110.828 78.9799 110.828C79.3664 110.828 79.749 110.904 80.1059 111.052C80.4628 111.2 80.7868 111.417 81.0601 111.69C81.3334 111.963 81.55 112.287 81.6982 112.644C81.8457 113.001 81.9221 113.384 81.9221 113.77C81.9221 114.156 81.8457 114.539 81.6982 114.896C81.55 115.253 81.3334 115.577 81.0601 115.85C80.7513 116.162 80.3759 116.398 79.9611 116.543C79.5469 116.686 79.105 116.734 78.6698 116.68L44.5101 150.84L95.5102 125.84C95.5102 125.84 101.24 104.5 107.74 97.9901L94.7398 84.99C88.2299 91.49 66.8898 97.2197 66.8898 97.2197L41.8899 148.22L76.07 114.08C76.0167 113.645 76.0634 113.203 76.2076 112.789C76.3512 112.374 76.5882 111.998 76.8997 111.69Z"   fill="#FF9908" >
</path>
<path d="M92.4518 80.1244L112.626 100.298L122.518 90.4057L102.344 70.2319L92.4518 80.1244Z"   fill="#FF9908" >
</path>
</svg>
