<svg xmlns="http://www.w3.org/2000/svg" xmlns:xlink="http://www.w3.org/1999/xlink" width="200" height="240" viewBox="0 0 200 240" fill="none">
<g  opacity="0.3">
<g opacity="0.3">
<path d="M7.89216 208.135C12.9382 213.175 19.7797 216.002 26.9106 216L137.509 216C144.647 216 151.492 213.164 156.538 208.118C161.585 203.072 164.42 196.227 164.42 189.091L164.42 49.2394L139.709 49.2394C134.242 49.235 128.999 47.0599 125.132 43.1957C121.265 39.3293 119.088 34.0891 119.08 28.62L119.08 0L26.9106 0C19.7731 0 12.9283 2.83608 7.88229 7.88184C2.8346 12.9276 0 19.7726 0 26.9093L0 189.13C0.008221 196.262 2.84611 203.096 7.89216 208.135Z"   fill="#FF9908" >
</path>
</g>
</g>
<path d="M119.08 0L119.08 28.6198C119.088 34.0879 121.264 39.33 125.132 43.1953C128.999 47.0611 134.242 49.2346 139.71 49.24L164.42 49.24L119.08 0Z"   fill="#FF9908" >
</path>
<path d="M42.84 186.66L42.84 223.94C42.84 232.809 50.03 240 58.9001 240L183.94 240C192.81 240 200 232.809 200 223.94L200 186.66C200 177.791 192.81 170.6 183.94 170.6L58.9001 170.6C50.03 170.6 42.84 177.791 42.84 186.66Z"   fill="#FF9908" >
</path>
<path d="M80.1801 213.37L80.1801 220.64L87.7101 220.64L87.7101 213.37L80.1801 213.37Z"   fill="#FFFFFF" >
</path>
<path d="M100.76 209.63L108.28 209.63L104.54 198.57L100.76 209.63ZM111.97 220.64L119.71 220.64L108.71 190.79L100.36 190.79L89.36 220.64L97.01 220.64L98.8799 215.16L110.16 215.16L111.97 220.64Z" fill-rule="evenodd"  fill="#FFFFFF" >
</path>
<path d="M120.43 190.57L130.85 220.64L140.25 220.64L150.71 190.57L142.91 190.57L135.55 213.2L128.19 190.57L120.43 190.57Z"   fill="#FFFFFF" >
</path>
<path d="M153.5 190.57L153.5 220.64L160.77 220.64L160.77 190.57L153.5 190.57Z"   fill="#FFFFFF" >
</path>
<path d="M82.05 67.53C71.1403 67.5432 60.6817 71.8829 52.9677 79.5969C45.2529 87.3117 40.9132 97.7703 40.9 108.68C40.9132 119.59 45.2529 130.048 52.9677 137.763C60.6817 145.477 71.1403 149.817 82.05 149.83C92.9597 149.817 103.418 145.477 111.133 137.763C118.847 130.048 123.187 119.59 123.2 108.68C123.187 97.7703 118.847 87.3117 111.133 79.5969C103.418 71.8829 92.9597 67.5432 82.05 67.53ZM58.0472 132.7C64.4107 139.075 73.0431 142.664 82.05 142.68C91.0569 142.664 99.6894 139.075 106.053 132.7C112.416 126.326 115.99 117.687 115.99 108.68C115.974 99.6838 112.393 91.0596 106.031 84.6986C99.6705 78.3368 91.0462 74.756 82.05 74.7403C73.0538 74.756 64.4296 78.3368 58.0686 84.6986C51.7068 91.0596 48.126 99.6838 48.1103 108.68C48.1103 117.687 51.6838 126.326 58.0472 132.7Z" fill-rule="evenodd"  fill="#FF9908" >
</path>
<path d="M79.39 114.204C79.3907 114.776 79.5415 115.337 79.8277 115.833C80.1141 116.328 80.5256 116.738 81.0209 117.024C81.5163 117.31 82.0781 117.46 82.6499 117.46C83.2217 117.46 83.7834 117.309 84.2787 117.023L93.8461 111.495C94.3401 111.208 94.75 110.797 95.0349 110.302C95.32 109.807 95.47 109.246 95.47 108.675C95.47 108.104 95.32 107.543 95.0349 107.048C94.75 106.553 94.3401 106.142 93.8461 105.855L84.2787 100.337C83.7834 100.051 83.2217 99.9002 82.6499 99.9C82.0781 99.8998 81.5163 100.05 81.0209 100.336C80.5256 100.622 80.1141 101.032 79.8277 101.527C79.5415 102.023 79.3907 102.584 79.39 103.156L79.39 114.204Z"   fill="#FF9908" >
</path>
<path d="M68.62 101.84L68.62 115.53C68.62 116.833 69.6766 117.89 70.98 117.89L74.48 117.89C75.7834 117.89 76.84 116.833 76.84 115.53L76.84 101.84C76.84 100.537 75.7834 99.48 74.48 99.48L70.98 99.48C69.6766 99.48 68.62 100.537 68.62 101.84Z"   fill="#FF9908" >
</path>
</svg>
