<svg xmlns="http://www.w3.org/2000/svg" xmlns:xlink="http://www.w3.org/1999/xlink" width="200.001708984375" height="240" viewBox="0 0 200.001708984375 240" fill="none">
<g  opacity="0.3">
<g opacity="0.3">
<path d="M156.544 208.164C159.042 205.664 161.025 202.696 162.376 199.431C163.728 196.165 164.423 192.665 164.422 189.13L164.422 49.2508L139.672 49.24C134.203 49.2378 128.958 47.0643 125.091 43.1992C121.222 39.3319 119.047 34.0884 119.042 28.6201L119.042 0L26.9123 0C23.3773 0 19.8768 0.695681 16.6114 2.05031C13.346 3.40279 10.3783 5.38613 7.87907 7.88583C5.38153 10.3855 3.39863 13.3519 2.04709 16.6186C0.695561 19.8852 6.47844e-05 23.3853 0.00170898 26.9198L0.00170898 189.13C6.47844e-05 192.665 0.695561 196.165 2.04709 199.431C3.39863 202.696 5.38153 205.664 7.87907 208.164C10.3783 210.664 13.346 212.647 16.6114 214C19.8768 215.354 23.3773 216.05 26.9123 216.05L137.511 216.05C141.046 216.05 144.547 215.354 147.812 214C151.077 212.647 154.045 210.664 156.544 208.164Z"   fill="#A140FF" >
</path>
</g>
</g>
<path d="M119.042 0L119.042 28.6198C119.047 34.0889 121.223 39.3319 125.09 43.1983C128.959 47.0646 134.203 49.2375 139.672 49.24L164.422 49.24L119.042 0Z"   fill="#A140FF" >
</path>
<path d="M42.8418 186.66L42.8418 223.94C42.8418 232.809 50.0319 240 58.902 240L183.942 240C192.812 240 200.002 232.809 200.002 223.94L200.002 186.66C200.002 177.791 192.812 170.6 183.942 170.6L58.902 170.6C50.0319 170.6 42.8418 177.791 42.8418 186.66Z"   fill="#A140FF" >
</path>
<path d="M71.0718 213.37L71.0718 220.65L78.6018 220.65L78.6018 213.37L71.0718 213.37Z"   fill="#FFFFFF" >
</path>
<path d="M103.763 218.44C104.617 217.699 105.291 216.774 105.737 215.735C106.182 214.696 106.386 213.569 106.334 212.44C106.361 210.755 105.798 209.114 104.744 207.8C103.649 206.44 102.12 205.498 100.413 205.13C101.912 204.806 103.251 203.972 104.204 202.77C105.197 201.474 105.707 199.872 105.644 198.24C105.702 197.16 105.505 196.08 105.069 195.09C104.633 194.1 103.97 193.226 103.133 192.54C101.46 191.207 99.093 190.54 96.0326 190.54L82.3816 190.54L82.3816 220.61L96.3829 220.61C99.5832 220.61 102.043 219.88 103.763 218.44ZM98.6499 210.035C98.4664 209.597 98.1873 209.206 97.8329 208.89C96.9756 208.233 95.9106 207.907 94.8326 207.97L89.6822 207.97L89.6822 214.73L94.8727 214.73C97.5528 214.73 98.8929 213.627 98.8929 211.42C98.9164 210.946 98.8332 210.473 98.6499 210.035ZM89.6623 196.4L89.6623 202.87L94.4227 202.87C96.9495 202.87 98.2129 201.79 98.2129 199.63C98.2129 197.47 96.9229 196.393 94.3427 196.4L89.6623 196.4Z" fill-rule="evenodd"  fill="#FFFFFF" >
</path>
<path d="M127.152 211.62L119.031 190.82L110.142 190.82L110.142 220.68L117.432 220.68L117.432 201.96L123.942 220.68L130.242 220.68L136.702 202L136.702 220.65L143.972 220.65L143.972 190.79L135.151 190.82L127.152 211.62Z"   fill="#FFFFFF" >
</path>
<path d="M156.271 204.23L159.972 204.23C162.891 204.257 164.351 202.98 164.351 200.4C164.351 197.733 162.891 196.4 159.972 196.4L156.271 196.4L156.271 204.23ZM148.992 190.58L148.992 220.65L156.271 220.65L156.271 210.1L160.771 210.1C162.843 210.164 164.9 209.732 166.771 208.84C168.329 208.094 169.626 206.895 170.491 205.4C171.348 203.875 171.783 202.149 171.751 200.4C171.813 199.074 171.595 197.751 171.111 196.515C170.627 195.28 169.887 194.16 168.941 193.23C167.075 191.463 164.351 190.58 160.771 190.58L148.992 190.58Z" fill-rule="evenodd"  fill="#FFFFFF" >
</path>
<path d="M110.737 79.5021C109.033 77.7958 106.722 76.8352 104.311 76.8298L60.1422 76.8298C57.729 76.8329 55.4164 77.792 53.7103 79.4983C52.0042 81.2045 51.0445 83.5174 51.0414 85.9302L51.0414 130.1C51.0445 132.513 52.0042 134.825 53.7103 136.532C55.4164 138.238 57.729 139.197 60.1422 139.2L104.311 139.2C106.722 139.195 109.033 138.234 110.737 136.528C112.441 134.822 113.399 132.511 113.402 130.1L113.402 85.9302C113.399 83.519 112.441 81.2076 110.737 79.5021ZM115.831 141.63C118.89 138.572 120.609 134.425 120.612 130.1L120.612 85.9302C120.609 81.6069 118.891 77.4618 115.835 74.4032C112.779 71.3455 108.635 69.6254 104.311 69.62L60.1422 69.62C55.8179 69.6254 51.6726 71.3455 48.6144 74.4032C45.557 77.4603 43.8372 81.6061 43.8318 85.9302L43.8318 130.1C43.8372 134.424 45.557 138.57 48.6144 141.627C51.6726 144.685 55.8179 146.405 60.1422 146.41L104.301 146.41C108.626 146.408 112.773 144.688 115.831 141.63Z" fill-rule="evenodd"  fill="#A140FF" >
</path>
<path d="M98.2317 121.08C93.4515 120.35 91.9717 125.5 91.9717 125.5L86.4514 111.5L78.3513 119.22C65.2812 114 54.5118 114.48 47.4316 116L47.4316 130.1C47.4344 133.469 48.7743 136.699 51.1578 139.081C53.5413 141.462 56.7721 142.8 60.1414 142.8L104.302 142.8C107.669 142.798 110.898 141.458 113.279 139.077C115.66 136.696 116.999 133.467 117.002 130.1L117.002 121.7C115.994 121.504 114.951 121.678 114.062 122.19C110.751 124.4 103.012 121.81 98.2317 121.08Z"   fill="#A140FF" >
</path>
<path d="M101.532 85.13C98.82 85.13 96.6218 87.3283 96.6218 90.0401C96.6218 92.7518 98.82 94.95 101.532 94.95C104.243 94.95 106.442 92.7518 106.442 90.0401C106.442 87.3283 104.243 85.13 101.532 85.13Z"   fill="#A140FF" >
</path>
</svg>
