<svg xmlns="http://www.w3.org/2000/svg" xmlns:xlink="http://www.w3.org/1999/xlink" width="200.00164794921875" height="240" viewBox="0 0 200.00164794921875 240" fill="none">
<g  opacity="0.3">
<g opacity="0.3">
<path d="M7.87949 7.88616C5.38015 10.3853 3.39877 13.3531 2.04716 16.619C0.695543 19.885 3.64927e-06 23.3863 0.00164795 26.9201L0.00164795 189.13C0.0115137 196.26 2.85286 203.094 7.89758 208.133C12.9423 213.17 19.7809 216 26.9123 216L137.521 216C144.654 216 151.494 213.168 156.539 208.129C161.585 203.09 164.423 196.251 164.432 189.121L164.432 49.2394L139.672 49.2394C134.204 49.235 128.962 47.0599 125.097 43.1957C121.231 39.3293 119.057 34.087 119.052 28.62L119.052 0L26.9123 0C23.377 0 19.8763 0.69552 16.6107 2.04984C13.3451 3.402 10.3788 5.38488 7.87949 7.88616Z"   fill="#3CBA32" >
</path>
</g>
</g>
<path d="M119.052 0L119.052 28.6198C119.057 34.0874 121.231 39.329 125.097 43.1948C128.963 47.0606 134.204 49.2346 139.672 49.24L164.432 49.24L119.052 0Z"   fill="#3CBA32" >
</path>
<path d="M42.8416 186.66L42.8416 223.94C42.8416 232.809 50.0317 240 58.9018 240L183.941 240C192.812 240 200.002 232.809 200.002 223.94L200.002 186.66C200.002 177.791 192.812 170.6 183.941 170.6L58.9018 170.6C50.0317 170.6 42.8416 177.791 42.8416 186.66Z"   fill="#3CBA32" >
</path>
<path d="M71.5516 213.37L71.5516 220.65L79.0816 220.65L79.0816 213.37L71.5516 213.37Z"   fill="#FFFFFF" >
</path>
<path d="M88.8647 218.927C91.2111 220.25 93.8706 220.917 96.5638 220.857C99.9868 221.002 103.352 219.94 106.072 217.857C108.599 215.798 110.322 212.918 110.942 209.717L103.243 209.717C102.71 211.03 101.798 212.155 100.623 212.947C99.3797 213.76 97.9184 214.175 96.4337 214.137C95.4565 214.17 94.485 213.978 93.5938 213.576C92.7028 213.174 91.9161 212.572 91.2945 211.817C89.8954 210.052 89.1848 207.838 89.2947 205.588C89.188 203.332 89.898 201.113 91.2945 199.338C91.9135 198.579 92.6993 197.973 93.5906 197.567C94.4818 197.162 95.4547 196.967 96.4337 196.998C97.9321 196.952 99.4084 197.368 100.663 198.188C101.85 198.985 102.764 200.126 103.283 201.458L110.982 201.458C110.375 198.248 108.65 195.357 106.112 193.299C103.394 191.171 100.013 190.07 96.5638 190.189C93.8706 190.129 91.2111 190.796 88.8647 192.119C86.6677 193.393 84.8889 195.28 83.7455 197.548C82.5042 200.011 81.8828 202.74 81.9357 205.498C81.8747 208.272 82.4961 211.019 83.7455 213.497C84.8889 215.766 86.6677 217.652 88.8647 218.927Z"   fill="#FFFFFF" >
</path>
<path d="M122.332 220.65L122.332 209.288L123.992 209.288L130.502 220.65L138.502 220.65L131.352 208.818C133.411 208.401 135.267 207.293 136.612 205.678C137.833 204.079 138.469 202.108 138.412 200.097C138.444 198.38 138.019 196.685 137.182 195.186C136.315 193.714 135.026 192.536 133.482 191.805C131.603 190.939 129.55 190.518 127.482 190.575L115.062 190.575L115.062 220.65L122.332 220.65ZM130.831 201.998C131.004 201.51 131.072 200.992 131.032 200.477C131.067 199.965 130.996 199.451 130.824 198.967C130.652 198.484 130.382 198.041 130.032 197.667C129.148 196.927 128.009 196.568 126.862 196.666L122.332 196.666L122.332 204.308L126.842 204.308C127.993 204.389 129.133 204.032 130.032 203.307C130.387 202.932 130.659 202.486 130.831 201.998Z" fill-rule="evenodd"  fill="#FFFFFF" >
</path>
<path d="M152.88 214.135C155.274 214.269 157.626 213.457 159.429 211.875L159.439 211.875C160.254 211.045 160.885 210.052 161.291 208.961C161.698 207.871 161.871 206.707 161.798 205.546C161.87 204.383 161.697 203.217 161.291 202.125C160.885 201.033 160.253 200.039 159.439 199.206C157.618 197.615 155.243 196.807 152.83 196.956L149.431 196.956L149.431 214.135L152.88 214.135ZM161.828 218.725C164.127 217.518 166.018 215.661 167.267 213.385C168.545 210.974 169.182 208.274 169.117 205.546C169.171 202.817 168.52 200.12 167.227 197.716C165.98 195.463 164.095 193.63 161.808 192.446C159.212 191.143 156.334 190.501 153.43 190.576L142.112 190.576L142.112 220.645L153.47 220.645C156.373 220.715 159.247 220.055 161.828 218.725Z" fill-rule="evenodd"  fill="#FFFFFF" >
</path>
<path d="M80.6848 140.49L83.6847 140.49C105.433 66.9998 81.9546 62 81.9546 62C59.7862 72.8002 80.6848 140.49 80.6848 140.49Z"   fill="#3CBA32" >
</path>
<path d="M85.5616 140.06C85.5616 140.06 137.547 76.6899 87.1415 62.72C87.1415 62.72 119.979 75.1098 85.5616 140.06Z"   fill="#3CBA32" >
</path>
<path d="M89.5916 137.61C89.5916 137.61 138.707 84.7597 100.823 67.1899C100.823 67.1899 132.366 82.8802 89.5916 137.61Z"   fill="#3CBA32" >
</path>
<path d="M78.8717 140.06C44.4545 75.1098 77.2918 62.72 77.2918 62.72C26.8862 76.6899 78.8717 140.06 78.8717 140.06Z"   fill="#3CBA32" >
</path>
<path d="M74.8417 137.61C32.067 82.8802 63.6105 67.1899 63.6105 67.1899C25.7263 84.7597 74.8417 137.61 74.8417 137.61Z"   fill="#3CBA32" >
</path>
<path d="M89.1616 145.96L75.6216 145.96L78.1616 154.03L86.6217 154.03L89.1616 145.96Z"   fill="#3CBA32" >
</path>
</svg>
