<svg xmlns="http://www.w3.org/2000/svg" xmlns:xlink="http://www.w3.org/1999/xlink" width="200" height="240.010009765625" viewBox="0 0 200 240.010009765625" fill="none">
<g  opacity="0.3">
<g opacity="0.3">
<path d="M0 189.13C0.0098658 196.26 2.85122 203.094 7.89593 208.133C12.9406 213.17 19.7793 216 26.9106 216L137.51 216C141.045 216.002 144.545 215.307 147.811 213.954C151.077 212.602 154.045 210.622 156.544 208.122C159.045 205.623 161.028 202.656 162.381 199.39C163.733 196.126 164.43 192.624 164.43 189.091L164.43 49.2091L139.67 49.2502C134.203 49.2437 128.961 47.0707 125.095 43.2043C121.229 39.3379 119.056 34.0978 119.051 28.6308L119.051 0L26.9106 0C19.7727 0 12.9291 2.83608 7.88113 7.88184C2.83477 12.9276 0 19.7726 0 26.9093L0 189.13Z"   fill="#00C650" >
</path>
</g>
</g>
<path d="M119.05 0L119.05 28.63C119.055 34.0973 121.23 39.3389 125.096 43.2046C128.961 47.0707 134.203 49.2446 139.67 49.25L164.43 49.25L119.05 0Z"   fill="#00C650" >
</path>
<path d="M42.84 186.67L42.84 223.95C42.84 232.819 50.0301 240.01 58.9002 240.01L183.94 240.01C192.81 240.01 200 232.819 200 223.95L200 186.67C200 177.801 192.81 170.61 183.94 170.61L58.9002 170.61C50.0301 170.61 42.84 177.801 42.84 186.67Z"   fill="#00C650" >
</path>
<path d="M73 213.12L73 220.37L80.49 220.37L80.49 213.12L73 213.12Z"   fill="#FFFFFF" >
</path>
<path d="M92.7119 211.568C91.3378 209.803 90.6455 207.602 90.7622 205.368C90.6461 203.125 91.3381 200.915 92.7119 199.138C93.3299 198.384 94.1131 197.781 95.0006 197.377C95.8881 196.973 96.8567 196.779 97.8314 196.808C99.3098 196.772 100.764 197.187 102.001 197.998C103.177 198.8 104.08 199.94 104.591 201.268L112.25 201.268C111.65 198.068 109.931 195.186 107.401 193.138C104.707 191.05 101.368 189.971 97.9614 190.089C95.2779 190.03 92.6284 190.697 90.2923 192.019C88.1035 193.284 86.3314 195.161 85.1927 197.418C83.9592 199.873 83.3415 202.591 83.3929 205.338C83.3426 208.082 83.9604 210.796 85.1927 213.248C86.3314 215.506 88.1035 217.382 90.2923 218.647C92.6284 219.969 95.2779 220.636 97.9614 220.578C101.369 220.718 104.717 219.656 107.42 217.578C109.94 215.529 111.657 212.657 112.27 209.468L104.611 209.468C104.086 210.78 103.176 211.903 102.001 212.688C100.764 213.499 99.3098 213.914 97.8314 213.878C96.8585 213.909 95.8913 213.717 95.0038 213.317C94.1166 212.916 93.3325 212.318 92.7119 211.568Z"   fill="#FFFFFF" >
</path>
<path d="M133.351 204.508C131.832 203.75 130.257 203.108 128.64 202.588C127.36 202.108 126.34 201.708 125.64 201.398C124.975 201.122 124.375 200.71 123.88 200.188C123.649 199.949 123.469 199.667 123.349 199.358C123.228 199.049 123.171 198.719 123.179 198.388C123.153 198.017 123.209 197.646 123.344 197.3C123.479 196.954 123.689 196.642 123.96 196.388C124.537 195.912 125.272 195.669 126.02 195.707C126.45 195.686 126.88 195.752 127.284 195.902C127.688 196.052 128.058 196.281 128.37 196.578C128.975 197.224 129.354 198.048 129.45 198.928L137.282 198.928C137.216 197.669 136.886 196.438 136.314 195.315C135.742 194.192 134.941 193.201 133.961 192.407C131.667 190.724 128.861 189.887 126.02 190.037C124.14 189.992 122.272 190.332 120.529 191.037C119.023 191.667 117.723 192.706 116.778 194.038C115.859 195.4 115.387 197.015 115.428 198.658C115.353 200.315 115.804 201.954 116.718 203.338C117.513 204.479 118.574 205.41 119.809 206.048C121.312 206.778 122.862 207.406 124.45 207.928C125.75 208.378 126.76 208.768 127.5 209.098C128.19 209.39 128.815 209.815 129.34 210.349C129.584 210.6 129.775 210.898 129.902 211.224C130.029 211.55 130.09 211.899 130.08 212.249C130.092 212.619 130.026 212.988 129.889 213.332C129.751 213.676 129.544 213.988 129.28 214.249C128.673 214.777 127.884 215.05 127.08 215.009C126.099 215.039 125.146 214.679 124.43 214.009C123.705 213.306 123.273 212.356 123.219 211.349L115.508 211.349C115.55 212.686 115.891 213.996 116.508 215.184C117.124 216.371 117.999 217.405 119.069 218.209C121.49 219.918 124.408 220.779 127.37 220.659C129.337 220.717 131.289 220.313 133.071 219.479C134.535 218.777 135.769 217.674 136.632 216.299C137.398 215.007 137.799 213.531 137.792 212.029C137.868 210.35 137.409 208.69 136.482 207.288C135.669 206.13 134.597 205.178 133.351 204.508Z"   fill="#FFFFFF" >
</path>
<path d="M139.69 190.43L150.07 220.37L159.43 220.37L169.85 190.43L162.1 190.43L154.77 212.96L147.44 190.43L139.69 190.43Z"   fill="#FFFFFF" >
</path>
<path d="M45.5404 76.6205C42.4402 76.6205 39.9095 79.7097 39.9095 83.5101L39.9095 136.7C39.9095 140.5 42.4402 143.59 45.5404 143.59L118.89 143.59C121.99 143.59 124.51 140.5 124.51 136.7L124.51 83.5101C124.51 79.7097 121.99 76.6205 118.89 76.6205L45.5404 76.6205ZM130.4 83.5101C130.4 75.74 125.24 69.42 118.89 69.42L45.5404 69.42C39.1896 69.42 34.03 75.74 34.03 83.5101L34.03 136.7C34.03 144.48 39.1896 150.8 45.5404 150.8L118.89 150.8C125.24 150.8 130.4 144.48 130.4 136.7L130.4 83.5101Z" fill-rule="evenodd"  fill="#00C650" >
</path>
<path d="M36.97 125.98L127.46 125.98L127.46 118.77L36.97 118.77L36.97 125.98Z"   fill="#00C650" >
</path>
<path d="M36.97 101.26L127.46 101.26L127.46 94.05L36.97 94.05L36.97 101.26Z"   fill="#00C650" >
</path>
<path d="M97.08 147.19L104.29 147.19L104.29 73.02L97.08 73.02L97.08 147.19Z"   fill="#00C650" >
</path>
<path d="M60.14 147.19L67.35 147.19L67.35 73.02L60.14 73.02L60.14 147.19Z"   fill="#00C650" >
</path>
</svg>
