<svg xmlns="http://www.w3.org/2000/svg" xmlns:xlink="http://www.w3.org/1999/xlink" width="200" height="240.010009765625" viewBox="0 0 200 240.010009765625" fill="none">
<g  opacity="0.3">
<g opacity="0.3">
<path d="M26.9106 0C19.7731 0 12.9283 2.83444 7.88229 7.88114C2.8346 12.9278 0 19.772 0 26.9099L0 189.13C0 196.268 2.8346 203.112 7.88229 208.159C12.9283 213.206 19.7731 216.04 26.9106 216.04L137.509 216.04C144.647 216.04 151.492 213.206 156.538 208.159C161.585 203.112 164.42 196.268 164.42 189.13L164.42 49.2506L139.67 49.2506C134.2 49.2442 128.956 47.0686 125.087 43.2015C121.22 39.3344 119.045 34.089 119.04 28.621L119.04 0L26.9106 0Z"   fill="#A140FF" >
</path>
</g>
</g>
<path d="M119.04 0L119.04 28.6202C119.045 34.0899 121.221 39.334 125.088 43.2016C128.956 47.0697 134.2 49.2446 139.67 49.25L164.42 49.25L119.04 0Z"   fill="#A140FF" >
</path>
<path d="M42.8401 186.67L42.8401 223.95C42.8401 232.819 50.0302 240.01 58.9003 240.01L183.94 240.01C192.81 240.01 200 232.819 200 223.95L200 186.67C200 177.801 192.81 170.61 183.94 170.61L58.9003 170.61C50.0302 170.61 42.8401 177.801 42.8401 186.67Z"   fill="#A140FF" >
</path>
<path d="M81.6101 213.38L81.6101 220.65L89.1401 220.65L89.1401 213.38L81.6101 213.38Z"   fill="#FFFFFF" >
</path>
<path d="M100.259 214.135L103.698 214.135C106.097 214.27 108.454 213.463 110.267 211.885L110.317 211.885C111.129 211.051 111.759 210.056 112.165 208.964C112.571 207.873 112.746 206.708 112.677 205.546C112.746 204.383 112.571 203.218 112.165 202.127C111.759 201.035 111.129 200.04 110.317 199.206C108.492 197.616 106.114 196.808 103.698 196.956L100.259 196.956L100.259 214.135ZM118.086 197.716C116.836 195.465 114.951 193.632 112.667 192.446C110.071 191.142 107.192 190.499 104.288 190.576L92.9399 190.576L92.9399 220.645L104.338 220.645C107.241 220.716 110.116 220.056 112.697 218.725C114.995 217.522 116.887 215.668 118.136 213.395C119.412 210.98 120.049 208.277 119.986 205.546C120.036 202.816 119.382 200.119 118.086 197.716Z" fill-rule="evenodd"  fill="#FFFFFF" >
</path>
<path d="M131.35 190.58L124.08 190.58L124.08 220.65L141.08 220.65L141.08 215.08L131.38 215.08L131.35 190.58Z"   fill="#FFFFFF" >
</path>
<path d="M151.68 190.58L144.41 190.58L144.41 220.65L161.41 220.65L161.41 215.08L151.71 215.08L151.68 190.58Z"   fill="#FFFFFF" >
</path>
<path d="M64.4077 146.846C64.1915 147.367 64.0801 147.926 64.0801 148.49L64.0801 155.1C64.0801 156.24 64.5332 157.334 65.3395 158.141C66.146 158.947 67.2397 159.4 68.3801 159.4C69.5188 159.397 70.61 158.943 71.4142 158.137C72.2185 157.331 72.6701 156.239 72.6701 155.1L72.6701 148.49C72.6701 147.352 72.218 146.261 71.4135 145.457C70.609 144.652 69.5179 144.2 68.3801 144.2C67.8159 144.199 67.2569 144.309 66.7353 144.524C66.2137 144.739 65.7395 145.055 65.3401 145.453C64.9406 145.851 64.6239 146.325 64.4077 146.846Z"   fill="#A140FF" >
</path>
<path d="M68.3801 89.82C67.2397 89.82 66.146 90.2731 65.3395 91.0796C64.5332 91.8859 64.0801 92.9796 64.0801 94.12L64.0801 101.81C64.0801 102.374 64.1915 102.933 64.4077 103.454C64.6239 103.975 64.9406 104.449 65.3401 104.847C65.7395 105.246 66.2137 105.561 66.7353 105.776C67.2569 105.991 67.8159 106.101 68.3801 106.1C69.5179 106.1 70.609 105.648 71.4135 104.844C72.218 104.039 72.6701 102.948 72.6701 101.81L72.6701 94.12C72.6701 92.9814 72.2185 91.8892 71.4142 91.083C70.61 90.277 69.5188 89.8226 68.3801 89.82Z"   fill="#A140FF" >
</path>
<path d="M83.6267 155.32C84.3788 155.319 85.1173 155.119 85.7669 154.74C86.7546 154.171 87.476 153.233 87.7723 152.133C88.0686 151.032 87.9157 149.859 87.3472 148.871L84.1367 143.322C83.5675 142.335 82.6293 141.614 81.5284 141.318C80.4276 141.022 79.2538 141.174 78.2657 141.743C77.2797 142.313 76.5605 143.252 76.2662 144.352C75.9718 145.453 76.1263 146.625 76.6956 147.611L79.8961 153.17C80.2756 153.824 80.8198 154.366 81.4745 154.743C82.129 155.12 82.8711 155.319 83.6267 155.32Z"   fill="#A140FF" >
</path>
<path d="M56.86 96.0593C56.5784 95.57 56.2027 95.1413 55.7549 94.7975C55.3071 94.4537 54.7958 94.2016 54.2504 94.0557C53.705 93.9099 53.1361 93.873 52.5764 93.9475C52.0168 94.0218 51.4774 94.2059 50.989 94.4891C50.5001 94.7699 50.0712 95.1445 49.7275 95.5913C49.3838 96.0382 49.1318 96.5485 48.9858 97.093C48.84 97.6376 48.8031 98.2056 48.8774 98.7643C48.9516 99.3233 49.1355 99.8618 49.4186 100.349L53.3493 107.17C53.7273 107.825 54.2713 108.368 54.9263 108.746C55.5814 109.123 56.3241 109.321 57.0801 109.32C57.8314 109.322 58.5698 109.125 59.2207 108.75C59.71 108.468 60.1389 108.093 60.4827 107.645C60.8265 107.197 61.0784 106.686 61.2242 106.141C61.3702 105.595 61.4071 105.027 61.3327 104.467C61.2583 103.907 61.0741 103.368 60.7908 102.88L56.86 96.0593Z"   fill="#A140FF" >
</path>
<path d="M91.3846 132.923C90.3966 132.354 89.2234 132.202 88.1227 132.498C87.022 132.794 86.084 133.515 85.5147 134.502C84.9459 135.487 84.7916 136.658 85.0861 137.757C85.3804 138.855 86.0994 139.792 87.0845 140.361L92.6446 143.57C93.2981 143.948 94.0394 144.148 94.7944 144.15C95.549 144.151 96.2906 143.953 96.944 143.576C97.5971 143.198 98.1392 142.655 98.5147 142C99.084 141.014 99.2382 139.842 98.9439 138.742C98.6495 137.641 97.9305 136.703 96.9447 136.132L91.3846 132.923Z"   fill="#A140FF" >
</path>
<path d="M52.9338 112.191C52.6395 111.091 51.9206 110.153 50.9347 109.582L44.115 105.643C43.1269 105.075 41.9537 104.922 40.8532 105.218C39.7524 105.514 38.8144 106.235 38.2453 107.222C37.6761 108.209 37.5215 109.381 37.8159 110.481C38.1103 111.582 38.8292 112.52 39.8151 113.091L46.6348 117.02C47.2853 117.397 48.023 117.597 48.7747 117.6C49.5304 117.601 50.2733 117.403 50.9281 117.026C51.5828 116.648 52.1268 116.105 52.5047 115.45C53.0739 114.464 53.2282 113.292 52.9338 112.191Z"   fill="#A140FF" >
</path>
<path d="M101.907 127.648C102.713 126.842 103.167 125.75 103.17 124.61C103.167 123.471 102.713 122.38 101.907 121.576C101.101 120.772 100.009 120.32 98.8698 120.32L92.2501 120.32C91.1113 120.32 90.019 120.772 89.2129 121.576C88.4067 122.38 87.9525 123.471 87.95 124.61C87.9525 125.75 88.4064 126.842 89.2121 127.648C90.018 128.453 91.1104 128.907 92.2501 128.91L98.8698 128.91C100.01 128.907 101.102 128.453 101.907 127.648Z"   fill="#A140FF" >
</path>
<path d="M34.8525 127.648C35.6583 128.453 36.7505 128.907 37.8901 128.91L45.57 128.91C46.7088 128.907 47.8 128.453 48.6042 127.647C49.4084 126.841 49.8601 125.749 49.8601 124.61C49.8601 123.472 49.4081 122.381 48.6036 121.577C47.799 120.772 46.7078 120.32 45.57 120.32L37.8901 120.32C36.7515 120.32 35.6591 120.772 34.853 121.576C34.047 122.38 33.5927 123.471 33.5901 124.61C33.5927 125.75 34.0466 126.842 34.8525 127.648Z"   fill="#A140FF" >
</path>
<path d="M85.0321 114.99C85.4101 115.645 85.9541 116.188 86.6091 116.565C87.264 116.943 88.007 117.141 88.763 117.14C89.5177 117.145 90.26 116.948 90.9133 116.57L96.9142 113.091C97.9003 112.52 98.6195 111.582 98.9138 110.481C99.2083 109.381 99.054 108.209 98.4846 107.222C97.9153 106.235 96.9771 105.514 95.8763 105.218C94.7753 104.922 93.6016 105.074 92.6135 105.643L86.6124 109.132C86.1236 109.413 85.6953 109.787 85.3513 110.233C85.0073 110.68 84.7547 111.19 84.608 111.734C84.4613 112.278 84.423 112.846 84.4959 113.404C84.5687 113.963 84.7508 114.502 85.0321 114.99Z"   fill="#A140FF" >
</path>
<path d="M52.4739 137.291C52.7682 136.19 52.6138 135.018 52.0445 134.031C51.4718 133.048 50.5333 132.331 49.4335 132.036C48.3338 131.742 47.1623 131.895 46.175 132.462L39.8151 136.131C38.8293 136.702 38.1102 137.641 37.816 138.741C37.5216 139.841 37.6761 141.014 38.2453 142C38.6224 142.653 39.1643 143.196 39.8173 143.573C40.4702 143.95 41.211 144.149 41.9652 144.15C42.7202 144.148 43.4616 143.948 44.1149 143.57L50.4747 139.901C51.4605 139.33 52.1796 138.391 52.4739 137.291Z"   fill="#A140FF" >
</path>
<path d="M85.1101 115.11C83.3431 112.272 80.8643 109.945 77.92 108.36C75.1118 106.868 71.9796 106.092 68.7999 106.1L68.5297 106.1C65.2665 106.166 62.0752 107.068 59.2603 108.72C56.4676 110.364 54.1385 112.69 52.4898 115.48C50.8411 118.282 49.9352 121.46 49.86 124.71C49.86 124.89 49.86 125.02 49.86 125.15C49.8611 128.289 50.6338 131.38 52.1101 134.15C53.6963 137.102 56.0309 139.585 58.8801 141.35C61.7646 143.14 65.0764 144.124 68.47 144.2L68.9099 144.2C72.2013 144.204 75.4368 143.353 78.2998 141.73C81.3064 140.028 83.7925 137.539 85.4904 134.53C87.1115 131.67 87.9621 128.438 87.9604 125.15L87.9604 124.77C87.8863 121.354 86.9025 118.019 85.1101 115.11ZM68.2202 152.79L68.9099 152.79C73.6797 152.792 78.3683 151.559 82.5202 149.21C86.8766 146.745 90.479 143.139 92.9402 138.78C95.2942 134.627 96.5311 129.934 96.53 125.16C96.53 124.92 96.53 124.7 96.53 124.53C96.4294 119.595 94.999 114.78 92.3903 110.59C89.8379 106.473 86.2481 103.101 81.9802 100.81C77.961 98.6453 73.4653 97.5145 68.9 97.52L68.2699 97.52C63.5548 97.63 58.9464 98.941 54.8802 101.33C50.8361 103.714 47.4635 107.086 45.0797 111.13C42.6926 115.179 41.3783 119.771 41.26 124.47C41.26 124.7 41.26 124.92 41.26 125.16C41.2655 129.72 42.3914 134.208 44.5397 138.23C46.8384 142.501 50.2176 146.094 54.3397 148.65C58.5098 151.253 63.305 152.683 68.2202 152.79Z" fill-rule="evenodd"  fill="#A140FF" >
</path>
<path d="M87.7719 97.0919C87.6252 96.5476 87.3728 96.0376 87.0289 95.5911C86.6849 95.1445 86.2563 94.7699 85.7677 94.4891C85.2795 94.2058 84.7403 94.0218 84.1807 93.9474C83.6212 93.8731 83.0526 93.9099 82.5074 94.0557C81.9621 94.2016 81.451 94.4537 81.0033 94.7975C80.5557 95.1412 80.1802 95.57 79.8985 96.0592L76.2289 102.43C75.9457 102.918 75.7616 103.457 75.6872 104.017C75.6128 104.577 75.6498 105.145 75.7957 105.691C75.9414 106.236 76.1933 106.747 76.537 107.195C76.8808 107.643 77.3095 108.018 77.7986 108.3C78.4493 108.675 79.1876 108.872 79.9385 108.87C80.6943 108.871 81.4368 108.673 82.0917 108.295C82.7464 107.918 83.2902 107.374 83.6681 106.72L87.3476 100.349C87.6289 99.861 87.8112 99.3218 87.8839 98.7629C87.9568 98.204 87.9187 97.6361 87.7719 97.0919Z"   fill="#A140FF" >
</path>
<path d="M49.7372 153.635C50.0808 154.083 50.5096 154.458 50.9985 154.74C51.6477 155.119 52.3857 155.319 53.1376 155.32C53.8931 155.321 54.6358 155.123 55.2904 154.745C55.945 154.368 56.4884 153.824 56.8661 153.17L60.3348 147.17C60.9039 146.183 61.0584 145.01 60.7642 143.909C60.4699 142.809 59.7509 141.87 58.7653 141.299C58.2773 141.016 57.7382 140.832 57.1789 140.757C56.6194 140.683 56.051 140.72 55.5059 140.866C54.9608 141.012 54.4498 141.264 54.0023 141.607C53.5547 141.951 53.1793 142.38 52.8977 142.869L49.429 148.87C49.1459 149.358 48.9618 149.897 48.8875 150.457C48.8131 151.017 48.85 151.585 48.9958 152.131C49.1416 152.676 49.3935 153.187 49.7372 153.635Z"   fill="#A140FF" >
</path>
<path d="M110.59 94.04C110.59 93.3478 110.315 92.6839 109.826 92.1944C109.336 91.705 108.672 91.43 107.98 91.43C107.637 91.4287 107.296 91.4952 106.978 91.6259C106.66 91.7564 106.372 91.9483 106.128 92.1909C105.885 92.4334 105.692 92.7215 105.56 93.0389C105.428 93.3562 105.36 93.6964 105.36 94.04L105.36 98.04C105.36 98.7349 105.636 99.4012 106.127 99.8925C106.619 100.384 107.285 100.66 107.98 100.66C108.324 100.66 108.664 100.592 108.981 100.46C109.299 100.328 109.587 100.135 109.829 99.892C110.072 99.6485 110.264 99.3597 110.394 99.0418C110.525 98.724 110.591 98.3836 110.59 98.04L110.59 94.04Z"   fill="#A140FF" >
</path>
<path d="M107.98 58.32C107.285 58.32 106.619 58.5961 106.127 59.0874C105.636 59.5788 105.36 60.2451 105.36 60.94L105.36 65.62C105.36 65.9636 105.428 66.3038 105.56 66.6211C105.692 66.9384 105.885 67.2266 106.128 67.4691C106.372 67.7116 106.66 67.9036 106.978 68.0342C107.296 68.1648 107.637 68.2313 107.98 68.23C108.672 68.23 109.336 67.9551 109.826 67.4655C110.315 66.9761 110.59 66.3122 110.59 65.62L110.59 60.94C110.591 60.5964 110.525 60.256 110.394 59.9382C110.264 59.6204 110.072 59.3315 109.829 59.088C109.587 58.8446 109.299 58.6515 108.981 58.5197C108.664 58.3879 108.324 58.32 107.98 58.32Z"   fill="#A140FF" >
</path>
<path d="M116.028 89.6672C115.697 89.5743 115.35 89.5476 115.008 89.5888C114.667 89.63 114.337 89.7382 114.037 89.9071C113.43 90.2496 112.984 90.8189 112.797 91.4901C112.61 92.1614 112.696 92.8796 113.037 93.4871L114.986 96.8671C115.217 97.2637 115.548 97.5926 115.947 97.8207C116.345 98.0488 116.796 98.1684 117.255 98.1672C117.724 98.1894 118.191 98.082 118.604 97.8571C118.904 97.6885 119.168 97.4624 119.38 97.1917C119.593 96.9209 119.75 96.6109 119.843 96.2793C119.936 95.9478 119.962 95.6012 119.921 95.2593C119.88 94.9175 119.772 94.5872 119.603 94.2872L117.604 90.9071C117.436 90.6069 117.21 90.3428 116.939 90.13C116.669 89.9173 116.359 89.7601 116.028 89.6672Z"   fill="#A140FF" >
</path>
<path d="M96.1587 63.7581C96.1999 64.0999 96.308 64.4303 96.4768 64.7302L98.8654 68.8798C99.0961 69.2775 99.427 69.6077 99.8251 69.8375C100.223 70.0674 100.675 70.1887 101.134 70.1895C101.586 70.1981 102.034 70.0914 102.433 69.8797C102.734 69.711 102.998 69.485 103.21 69.2143C103.423 68.9436 103.58 68.6336 103.673 68.302C103.766 67.9705 103.792 67.6239 103.751 67.2821C103.71 66.9404 103.602 66.6101 103.433 66.3101L101.044 62.1606C100.877 61.8594 100.651 61.5944 100.381 61.3809C100.11 61.1674 99.8003 61.0097 99.4686 60.9167C99.1369 60.8238 98.7899 60.7974 98.4479 60.8393C98.106 60.8812 97.7758 60.9904 97.4763 61.1607C97.1763 61.3293 96.9123 61.5554 96.6996 61.8261C96.487 62.0968 96.3298 62.4066 96.237 62.7381C96.1442 63.0696 96.1175 63.4162 96.1587 63.7581Z"   fill="#A140FF" >
</path>
<path d="M122.738 91.0301C123.136 91.2614 123.588 91.3822 124.049 91.38C124.511 91.3764 124.965 91.2495 125.362 91.0122C125.76 90.7749 126.087 90.4359 126.309 90.0301C126.479 89.7305 126.589 89.4 126.631 89.058C126.673 88.7159 126.646 88.3688 126.553 88.037C126.46 87.7051 126.302 87.3949 126.089 87.1243C125.875 86.8537 125.61 86.6281 125.309 86.4605L121.928 84.4607C121.628 84.2905 121.298 84.1812 120.956 84.1393C120.613 84.0975 120.266 84.1238 119.934 84.2167C119.602 84.3097 119.292 84.4675 119.021 84.681C118.751 84.8945 118.525 85.1594 118.357 85.4606C118.188 85.7606 118.08 86.0909 118.039 86.4327C117.998 86.7746 118.024 87.1211 118.117 87.4527C118.21 87.7842 118.367 88.0941 118.58 88.3648C118.793 88.6355 119.057 88.8616 119.357 89.0302L122.738 91.0301Z"   fill="#A140FF" >
</path>
<path d="M94.7503 74.8699C95.1481 75.1014 95.6004 75.2222 96.0607 75.22C96.5225 75.2164 96.9753 75.0905 97.3725 74.855C97.7697 74.6196 98.0972 74.283 98.322 73.8797C98.6638 73.272 98.7506 72.5535 98.563 71.8821C98.3755 71.2106 97.9288 70.6412 97.3214 70.2986L93.1793 67.9079C92.5715 67.5661 91.8528 67.4794 91.1812 67.667C90.5096 67.8545 89.94 68.301 89.5974 68.9082C89.4283 69.2083 89.32 69.5387 89.2788 69.8806C89.2376 70.2226 89.2643 70.5693 89.3572 70.901C89.4502 71.2326 89.6074 71.5428 89.8203 71.8136C90.0333 72.0844 90.2975 72.3106 90.5979 72.4792L94.7503 74.8699Z"   fill="#A140FF" >
</path>
<path d="M122.53 76.88C121.838 76.88 121.174 77.1549 120.684 77.6444C120.195 78.1339 119.92 78.7978 119.92 79.49C119.919 79.8336 119.985 80.174 120.116 80.4918C120.246 80.8097 120.438 81.0986 120.681 81.3421C120.923 81.5855 121.211 81.7786 121.529 81.9104C121.846 82.0422 122.186 82.11 122.53 82.11L126.53 82.11C127.225 82.11 127.891 81.834 128.383 81.3427C128.874 80.8513 129.15 80.1849 129.15 79.49C129.15 79.1464 129.082 78.8062 128.95 78.4889C128.818 78.1716 128.625 77.8834 128.382 77.6409C128.138 77.3984 127.85 77.2064 127.532 77.0758C127.214 76.9453 126.873 76.8787 126.53 76.88L122.53 76.88Z"   fill="#A140FF" >
</path>
<path d="M94.1401 82.11C94.4836 82.11 94.824 82.0422 95.1413 81.9104C95.4585 81.7786 95.7466 81.5855 95.9891 81.342C96.2316 81.0986 96.4237 80.8097 96.5543 80.4918C96.6849 80.174 96.7514 79.8336 96.7501 79.49C96.7501 78.7978 96.4749 78.1339 95.9854 77.6444C95.496 77.1549 94.8323 76.88 94.1401 76.88L89.4601 76.88C89.1174 76.88 88.778 76.9476 88.4614 77.0787C88.1447 77.2099 87.8568 77.4021 87.6145 77.6444C87.3721 77.8868 87.18 78.1745 87.0489 78.4912C86.9177 78.8079 86.8501 79.1473 86.8501 79.49C86.8488 79.8336 86.9153 80.174 87.0459 80.4918C87.1765 80.8097 87.3686 81.0986 87.6111 81.342C87.8536 81.5855 88.1417 81.7786 88.4589 81.9104C88.7762 82.0422 89.1166 82.11 89.4601 82.11L94.1401 82.11Z"   fill="#A140FF" >
</path>
<path d="M121.678 74.6894L125.349 72.5687C125.65 72.401 125.915 72.1753 126.129 71.9046C126.342 71.634 126.5 71.3236 126.593 70.9916C126.686 70.6596 126.713 70.3124 126.671 69.9702C126.629 69.6279 126.519 69.2974 126.349 68.9975C126.18 68.6973 125.954 68.4332 125.684 68.2203C125.413 68.0074 125.103 67.8501 124.771 67.7571C124.439 67.6642 124.093 67.6376 123.751 67.6788C123.409 67.7201 123.078 67.8282 122.778 67.9972L119.107 70.1179C118.807 70.2866 118.543 70.5127 118.33 70.7836C118.117 71.0543 117.96 71.3645 117.867 71.6962C117.774 72.0278 117.748 72.3746 117.789 72.7166C117.83 73.0585 117.938 73.3889 118.107 73.689C118.338 74.0869 118.669 74.4175 119.068 74.6474C119.466 74.8773 119.918 74.9987 120.378 74.9996C120.83 75.0081 121.278 74.9013 121.678 74.6894Z"   fill="#A140FF" >
</path>
<path d="M96.4572 84.0267C96.1255 83.9337 95.7784 83.9074 95.4365 83.9494C95.0944 83.9912 94.7643 84.1004 94.4646 84.2707L90.5961 86.5003C90.2983 86.6711 90.0373 86.8993 89.8281 87.1717C89.6189 87.4441 89.4656 87.755 89.3774 88.0869C89.2891 88.4188 89.2675 88.765 89.3137 89.1054C89.3599 89.4457 89.473 89.7733 89.6466 90.0697C89.8741 90.468 90.203 90.799 90.5998 91.029C90.9965 91.2591 91.4471 91.38 91.9056 91.3795C92.3473 91.3878 92.7839 91.2846 93.1752 91.0795L97.0335 88.8399C97.3336 88.6713 97.5975 88.4453 97.8103 88.1746C98.0229 87.9039 98.1801 87.5941 98.2729 87.2625C98.3658 86.931 98.3924 86.5844 98.3512 86.2427C98.3101 85.9009 98.2019 85.5705 98.033 85.2705C97.8655 84.9694 97.64 84.7043 97.3695 84.4909C97.099 84.2774 96.789 84.1197 96.4572 84.0267Z"   fill="#A140FF" >
</path>
<path d="M114.01 89.9101C115.84 88.8743 117.354 87.3602 118.39 85.5299C119.372 83.7869 119.888 81.8204 119.89 79.8198L119.89 79.58C119.845 77.5042 119.247 75.4783 118.16 73.71C117.083 71.9816 115.573 70.5646 113.78 69.5999C112.072 68.6912 110.165 68.2204 108.23 68.2299L108.08 68.2299C106.091 68.2633 104.144 68.8109 102.43 69.8201C100.729 70.8213 99.3109 72.2388 98.3097 73.94C97.3076 75.6432 96.7572 77.5744 96.71 79.55L96.71 79.8198C96.709 81.7314 97.1794 83.6139 98.0798 85.2999C99.0452 87.0901 100.462 88.5968 102.19 89.6701C103.947 90.7596 105.963 91.3604 108.03 91.41L108.3 91.41C110.301 91.4114 112.268 90.8944 114.01 89.9101ZM108.3 96.64C111.222 96.638 114.094 95.8728 116.63 94.4199C119.285 92.9203 121.48 90.7248 122.98 88.07C124.411 85.5451 125.162 82.692 125.16 79.7901L125.16 79.4C125.09 76.3992 124.22 73.472 122.64 70.9201C121.091 68.3975 118.904 66.3281 116.3 64.9199C113.841 63.5988 111.091 62.9112 108.3 62.92L107.92 62.92C105.05 62.9888 102.246 63.7873 99.7698 65.2399C97.2907 66.6953 95.2253 68.761 93.7697 71.2401C92.3146 73.7006 91.5128 76.4923 91.4399 79.3501L91.4399 79.78C91.4376 82.5706 92.1245 85.3188 93.4399 87.7801C94.8477 90.3842 96.9171 92.571 99.44 94.1201C101.971 95.7043 104.884 96.5749 107.87 96.64L108.3 96.64Z" fill-rule="evenodd"  fill="#A140FF" >
</path>
<path d="M112.707 65.9887C112.538 66.2889 112.43 66.6194 112.389 66.9613C112.348 67.3033 112.374 67.65 112.467 67.9817C112.56 68.3134 112.717 68.6234 112.93 68.8942C113.143 69.165 113.406 69.3913 113.706 69.5599C114.101 69.7902 114.549 69.9109 115.006 69.91C115.469 69.9093 115.924 69.7845 116.323 69.5488C116.721 69.3131 117.05 68.975 117.274 68.5695L119.513 64.6883C119.682 64.3881 119.79 64.0578 119.831 63.7158C119.872 63.3739 119.846 63.0271 119.753 62.6954C119.66 62.3638 119.503 62.0536 119.29 61.7828C119.078 61.512 118.814 61.2858 118.514 61.1172C118.214 60.9482 117.884 60.84 117.542 60.7988C117.2 60.7577 116.854 60.7842 116.523 60.8771C116.191 60.97 115.881 61.1274 115.611 61.3402C115.34 61.5532 115.114 61.8172 114.946 62.1175L112.707 65.9887Z"   fill="#A140FF" >
</path>
<path d="M102.85 90.2529C102.638 89.9821 102.374 89.7559 102.074 89.5872C101.774 89.4181 101.444 89.31 101.102 89.2688C100.76 89.2276 100.414 89.2542 100.083 89.3471C99.7513 89.44 99.4414 89.5974 99.1708 89.8103C98.9002 90.0231 98.6744 90.2871 98.5059 90.5875L96.397 94.2487C96.2281 94.5488 96.12 94.8793 96.0788 95.2213C96.0377 95.5632 96.0643 95.9099 96.1572 96.2417C96.25 96.5733 96.4071 96.8834 96.6198 97.1542C96.8324 97.425 97.0964 97.6511 97.3964 97.8198C97.7908 98.0499 98.2393 98.1709 98.6958 98.17C99.1581 98.1651 99.611 98.0387 100.009 97.8034C100.407 97.5682 100.737 97.2322 100.964 96.8295L103.073 93.1584C103.242 92.8582 103.35 92.5277 103.391 92.1858C103.432 91.8438 103.406 91.4971 103.313 91.1654C103.22 90.8337 103.063 90.5237 102.85 90.2529Z"   fill="#A140FF" >
</path>
</svg>
