<svg xmlns="http://www.w3.org/2000/svg" xmlns:xlink="http://www.w3.org/1999/xlink" width="200.010009765625" height="240.01217019557953" viewBox="0 0 200.010009765625 240.01217019557953" fill="none">
<g  opacity="0.3">
<g opacity="0.3">
<path d="M119.051 0.00216043L26.9205 0.00216043C23.3852 3.00352e-08 19.8845 0.695649 16.6189 2.04806C13.3534 3.39831 10.3854 5.38156 7.88606 7.88114C5.38508 10.3786 3.40206 13.347 2.0488 16.6113C0.697183 19.8778 0 23.3777 0 26.9121L0 189.132C0 192.667 0.697183 196.166 2.0488 199.433C3.40206 202.697 5.38508 205.666 7.88606 208.163C10.3854 210.663 13.3534 212.644 16.6189 213.996C19.8845 215.349 23.3852 216.044 26.9205 216.042L137.519 216.042C141.055 216.042 144.554 215.347 147.818 213.994C151.083 212.642 154.05 210.658 156.549 208.161C159.047 205.661 161.03 202.695 162.381 199.431C163.734 196.164 164.43 192.667 164.43 189.132L164.43 49.2528L139.67 49.2528C134.203 49.2463 128.961 47.073 125.095 43.2058C121.229 39.3409 119.056 34.0998 119.051 28.6318L119.051 0.00216043Z"   fill="#0072FF" >
</path>
</g>
</g>
<path d="M119.05 0.00216043L119.05 28.6322C119.055 34.0994 121.23 39.3411 125.095 43.2067C128.961 47.0728 134.203 49.2467 139.67 49.2522L164.43 49.2522L119.05 0.00216043Z"   fill="#0072FF" >
</path>
<path d="M134.35 79.9922C134.35 78.9976 133.955 78.0438 133.252 77.3406C132.548 76.6373 131.595 76.2422 130.6 76.2422L27.3605 76.2422C26.8677 76.2422 26.3805 76.3392 25.9265 76.5278C25.4725 76.7163 25.0595 76.9927 24.7118 77.341C24.3641 77.6894 24.0895 78.1029 23.9024 78.5578C23.7141 79.0128 23.6189 79.5002 23.62 79.9922C23.62 80.9841 24.0142 81.9353 24.7151 82.6367C25.4171 83.3381 26.3683 83.7322 27.3605 83.7322L130.6 83.7322C131.593 83.7322 132.545 83.3386 133.248 82.6374C133.951 81.9364 134.348 80.985 134.35 79.9922Z"   fill="#0072FF" >
</path>
<path d="M25.9265 98.8978C25.4725 99.0863 25.0595 99.3627 24.7118 99.711C24.3641 100.059 24.0895 100.473 23.9024 100.928C23.7141 101.383 23.6189 101.87 23.62 102.362C23.62 103.354 24.0142 104.305 24.7151 105.007C25.4171 105.708 26.3683 106.102 27.3605 106.102L130.6 106.102C131.593 106.102 132.545 105.708 133.248 105.007C133.951 104.306 134.348 103.355 134.35 102.362C134.35 101.368 133.955 100.414 133.252 99.7103C132.548 99.007 131.595 98.6122 130.6 98.6122L27.3605 98.6122C26.8677 98.6122 26.3805 98.7092 25.9265 98.8978Z"   fill="#0072FF" >
</path>
<path d="M27.3605 128.472L130.6 128.472C131.595 128.472 132.548 128.077 133.252 127.374C133.955 126.671 134.35 125.717 134.35 124.722C134.348 123.729 133.951 122.778 133.248 122.077C132.545 121.376 131.593 120.982 130.6 120.982L27.3605 120.982C26.3683 120.982 25.4171 121.376 24.7151 122.078C24.0142 122.779 23.62 123.73 23.62 124.722C23.6189 125.214 23.7141 125.702 23.9024 126.156C24.0895 126.611 24.3641 127.025 24.7118 127.373C25.0595 127.722 25.4725 127.998 25.9265 128.186C26.3805 128.375 26.8677 128.472 27.3605 128.472Z"   fill="#0072FF" >
</path>
<path d="M91.3135 150.557C91.7678 150.368 92.1808 150.091 92.528 149.743C92.8759 149.395 93.151 148.981 93.3379 148.526C93.5255 148.072 93.6214 147.584 93.62 147.092C93.62 146.1 93.2259 145.149 92.5245 144.447C91.8231 143.746 90.8718 143.352 89.8799 143.352L27.3601 143.352C26.3682 143.352 25.4169 143.746 24.7155 144.447C24.0141 145.149 23.62 146.1 23.62 147.092C23.6186 147.584 23.7145 148.072 23.9021 148.526C24.089 148.981 24.3648 149.395 24.712 149.743C25.0592 150.091 25.4722 150.368 25.9265 150.557C26.3808 150.745 26.868 150.842 27.3601 150.842L89.8799 150.842C90.372 150.842 90.8592 150.745 91.3135 150.557Z"   fill="#0072FF" >
</path>
<path d="M42.85 186.672L42.85 223.952C42.85 232.822 50.04 240.012 58.9102 240.012L183.95 240.012C192.82 240.012 200.01 232.822 200.01 223.952L200.01 186.672C200.01 177.803 192.82 170.612 183.95 170.612L58.9102 170.612C50.04 170.612 42.85 177.803 42.85 186.672Z"   fill="#0072FF" >
</path>
<path d="M68.6899 213.382L68.6899 220.652L76.2199 220.652L76.2199 213.382L68.6899 213.382Z"   fill="#FFFFFF" >
</path>
<path d="M90.7288 214.137C93.1414 214.283 95.5151 213.475 97.338 211.887C98.1508 211.053 98.7805 210.058 99.1868 208.966C99.5931 207.875 99.7673 206.71 99.6978 205.548C99.7676 204.386 99.5939 203.223 99.1874 202.133C98.7811 201.043 98.1511 200.049 97.338 199.217C95.5164 197.62 93.1371 196.807 90.7188 196.958L87.2892 196.958L87.2892 214.137L90.7288 214.137ZM99.7376 192.447C97.1397 191.148 94.2626 190.506 91.3586 190.578L80 190.578L80 220.647L91.3586 220.647C94.2605 220.716 97.1335 220.059 99.7178 218.738C102.014 217.528 103.905 215.671 105.157 213.397C106.448 210.985 107.098 208.283 107.047 205.548C107.101 202.822 106.45 200.128 105.157 197.728C103.91 195.472 102.025 193.635 99.7376 192.447Z" fill-rule="evenodd"  fill="#FFFFFF" >
</path>
<path d="M140.658 205.512C140.701 202.739 140.011 200.004 138.658 197.582C137.367 195.29 135.477 193.392 133.189 192.093C130.845 190.758 128.188 190.067 125.49 190.093C122.799 190.069 120.149 190.759 117.811 192.093C115.521 193.392 113.627 195.29 112.332 197.582C110.971 200 110.281 202.738 110.333 205.512C110.282 208.293 110.972 211.036 112.332 213.462C113.62 215.765 115.516 217.671 117.811 218.971C120.149 220.305 122.799 220.995 125.49 220.972C128.182 220.997 130.832 220.306 133.169 218.971C135.465 217.668 137.363 215.763 138.658 213.462C140.014 211.035 140.704 208.292 140.658 205.512ZM128.57 197.422C127.588 197.018 126.53 196.834 125.47 196.882C124.413 196.834 123.358 197.015 122.377 197.414C121.397 197.813 120.514 198.42 119.791 199.192C118.316 200.957 117.566 203.216 117.691 205.512C117.565 207.8 118.316 210.049 119.791 211.802C120.51 212.583 121.39 213.197 122.371 213.601C123.352 214.005 124.41 214.19 125.47 214.142C126.527 214.187 127.581 214.001 128.558 213.597C129.536 213.193 130.413 212.58 131.129 211.802C132.611 210.052 133.37 207.802 133.249 205.512C133.369 203.225 132.619 200.978 131.149 199.222C130.431 198.441 129.551 197.826 128.57 197.422Z" fill-rule="evenodd"  fill="#FFFFFF" >
</path>
<path d="M145.653 213.509C146.807 215.772 148.588 217.654 150.783 218.93C153.128 220.257 155.788 220.927 158.482 220.87C161.901 221.008 165.261 219.947 167.981 217.87C170.508 215.807 172.231 212.923 172.85 209.719L165.151 209.719C164.624 211.033 163.715 212.159 162.541 212.949C161.299 213.764 159.837 214.179 158.352 214.139C157.374 214.171 156.402 213.98 155.51 213.58C154.618 213.179 153.829 212.581 153.202 211.83C151.81 210.06 151.101 207.848 151.203 205.599C151.101 203.34 151.81 201.119 153.202 199.338C153.824 198.579 154.611 197.973 155.504 197.567C156.397 197.161 157.372 196.967 158.352 196.998C159.836 196.963 161.297 197.378 162.541 198.188C163.722 198.993 164.631 200.137 165.151 201.468L172.85 201.468C172.241 198.256 170.516 195.362 167.981 193.298C165.279 191.171 161.918 190.056 158.482 190.147C155.788 190.091 153.128 190.761 150.783 192.088C148.588 193.364 146.807 195.246 145.653 197.508C144.415 199.99 143.797 202.735 143.854 205.509C143.796 208.282 144.414 211.028 145.653 213.509Z"   fill="#FFFFFF" >
</path>
</svg>
