<svg xmlns="http://www.w3.org/2000/svg" xmlns:xlink="http://www.w3.org/1999/xlink" width="200.010009765625" height="240.01217019557953" viewBox="0 0 200.010009765625 240.01217019557953" fill="none">
<g  opacity="0.3">
<g opacity="0.3">
<path d="M16.6189 2.04806C13.3534 3.39831 10.3854 5.38156 7.88606 7.88114C5.38508 10.3786 3.40206 13.347 2.0488 16.6113C0.695539 19.8778 0 23.3777 0 26.9121L0 189.132C0 192.667 0.695539 196.166 2.0488 199.433C3.40206 202.697 5.38508 205.666 7.88606 208.163C10.3854 210.663 13.3534 212.644 16.6189 213.996C19.8845 215.349 23.3852 216.044 26.9205 216.042L137.519 216.042C144.657 216.042 151.501 213.208 156.549 208.161C161.595 203.114 164.43 196.268 164.43 189.132L164.43 49.2528L139.67 49.2528C134.203 49.2463 128.961 47.073 125.095 43.2058C121.229 39.3409 119.056 34.0998 119.051 28.6318L119.051 0.00216043L26.9205 0.00216043C23.3852 3.00352e-08 19.8845 0.695649 16.6189 2.04806Z"   fill="#0072FF" >
</path>
</g>
</g>
<path d="M119.05 0.00216043L119.05 28.6322C119.055 34.0994 121.23 39.3411 125.096 43.2067C128.961 47.0728 134.203 49.2467 139.67 49.2522L164.43 49.2522L119.05 0.00216043Z"   fill="#0072FF" >
</path>
<path d="M27.3605 83.7322L130.6 83.7322C131.593 83.7322 132.545 83.3386 133.248 82.6374C133.951 81.9364 134.348 80.985 134.35 79.9922C134.35 78.9976 133.955 78.0438 133.252 77.3406C132.548 76.6373 131.595 76.2422 130.6 76.2422L27.3605 76.2422C26.8677 76.2422 26.3805 76.3392 25.9265 76.5278C25.4725 76.7163 25.0595 76.9927 24.7118 77.341C24.3641 77.6894 24.0895 78.1029 23.9024 78.5578C23.7141 79.0128 23.6189 79.5002 23.62 79.9922C23.62 80.9841 24.0142 81.9353 24.7151 82.6367C25.4171 83.3381 26.3683 83.7322 27.3605 83.7322Z"   fill="#0072FF" >
</path>
<path d="M23.9024 100.928C23.7141 101.383 23.6189 101.87 23.62 102.362C23.62 103.354 24.0142 104.305 24.7151 105.007C25.4171 105.708 26.3683 106.102 27.3605 106.102L130.6 106.102C131.593 106.102 132.545 105.708 133.248 105.007C133.951 104.306 134.348 103.355 134.35 102.362C134.35 101.368 133.955 100.414 133.252 99.7103C132.548 99.007 131.595 98.6122 130.6 98.6122L27.3605 98.6122C26.8677 98.6122 26.3805 98.7092 25.9265 98.8978C25.4725 99.0863 25.0595 99.3627 24.7118 99.711C24.3641 100.059 24.0895 100.473 23.9024 100.928Z"   fill="#0072FF" >
</path>
<path d="M23.62 124.722C23.6189 125.214 23.7141 125.702 23.9024 126.156C24.0895 126.611 24.3641 127.025 24.7118 127.373C25.0595 127.722 25.4725 127.998 25.9265 128.186C26.3805 128.375 26.8677 128.472 27.3605 128.472L130.6 128.472C131.595 128.472 132.548 128.077 133.252 127.374C133.955 126.671 134.35 125.717 134.35 124.722C134.348 123.729 133.951 122.778 133.248 122.077C132.545 121.376 131.593 120.982 130.6 120.982L27.3605 120.982C26.3683 120.982 25.4171 121.376 24.7151 122.078C24.0142 122.779 23.62 123.73 23.62 124.722Z"   fill="#0072FF" >
</path>
<path d="M23.902 148.526C24.0896 148.981 24.3646 149.395 24.7117 149.743C25.0595 150.091 25.4717 150.368 25.9265 150.557C26.3807 150.745 26.8678 150.842 27.3597 150.842L89.8603 150.842C90.3522 150.842 90.8393 150.745 91.2935 150.557C91.7483 150.368 92.1605 150.091 92.5083 149.743C92.8554 149.395 93.1304 148.981 93.318 148.526C93.5055 148.072 93.6014 147.584 93.6 147.092C93.6 146.1 93.206 145.149 92.5048 144.447C91.8029 143.746 90.8519 143.352 89.8603 143.352L27.3597 143.352C26.3681 143.352 25.4171 143.746 24.7152 144.447C24.014 145.149 23.62 146.1 23.62 147.092C23.6186 147.584 23.7145 148.072 23.902 148.526Z"   fill="#0072FF" >
</path>
<path d="M42.85 186.672L42.85 223.952C42.85 232.822 50.04 240.012 58.9102 240.012L183.95 240.012C192.82 240.012 200.01 232.822 200.01 223.952L200.01 186.672C200.01 177.803 192.82 170.612 183.95 170.612L58.9102 170.612C50.04 170.612 42.85 177.803 42.85 186.672Z"   fill="#0072FF" >
</path>
<path d="M53.65 213.382L53.65 220.652L61.18 220.652L61.18 213.382L53.65 213.382Z"   fill="#FFFFFF" >
</path>
<path d="M75.6789 196.957L72.2392 196.957L72.2392 214.137L75.6789 214.137C78.095 214.285 80.4724 213.477 82.298 211.887C83.1108 211.053 83.7406 210.058 84.1469 208.966C84.5531 207.875 84.7273 206.71 84.6578 205.548C84.7276 204.386 84.554 203.223 84.1474 202.133C83.7411 201.042 83.1111 200.049 82.298 199.217C80.4762 197.62 78.0969 196.807 75.6789 196.957ZM64.96 220.647L76.3186 220.647C79.2205 220.716 82.0935 220.059 84.6776 218.738C86.972 217.525 88.8625 215.669 90.1171 213.397C91.4076 210.985 92.0584 208.283 92.007 205.548C92.0609 202.822 91.4098 200.128 90.1171 197.727C88.8703 195.472 86.9849 193.635 84.6976 192.447C82.0994 191.149 79.2224 190.507 76.3186 190.577L64.96 190.577L64.96 220.647Z" fill-rule="evenodd"  fill="#FFFFFF" >
</path>
<path d="M113.523 213.595C114.501 213.191 115.378 212.579 116.096 211.802C117.578 210.052 118.337 207.802 118.216 205.512C118.336 203.225 117.586 200.978 116.116 199.222C115.398 198.441 114.517 197.826 113.535 197.422C112.554 197.018 111.495 196.834 110.435 196.882C109.377 196.834 108.322 197.015 107.341 197.414C106.36 197.813 105.478 198.42 104.754 199.192C103.279 200.957 102.528 203.216 102.654 205.512C102.528 207.8 103.279 210.049 104.754 211.802C105.473 212.583 106.354 213.197 107.335 213.601C108.317 214.005 109.375 214.19 110.435 214.142C111.492 214.186 112.546 213.999 113.523 213.595ZM97.303 197.582C95.9415 200 95.2509 202.738 95.3027 205.512C95.2521 208.293 95.9424 211.036 97.303 213.462C98.5917 215.765 100.487 217.671 102.784 218.971C105.122 220.306 107.773 220.997 110.465 220.972C113.157 220.997 115.808 220.306 118.146 218.971C120.443 217.671 122.339 215.765 123.627 213.462C124.988 211.036 125.678 208.293 125.627 205.512C125.671 202.739 124.981 200.003 123.627 197.582C122.336 195.29 120.444 193.392 118.156 192.093C115.814 190.759 113.16 190.069 110.465 190.093C107.773 190.068 105.122 190.758 102.784 192.093C100.493 193.392 98.5981 195.29 97.303 197.582Z" fill-rule="evenodd"  fill="#FFFFFF" >
</path>
<path d="M150.111 209.719C149.584 211.033 148.675 212.159 147.501 212.949C146.258 213.764 144.797 214.179 143.312 214.139C142.334 214.171 141.362 213.98 140.47 213.58C139.578 213.179 138.788 212.581 138.162 211.83C136.77 210.06 136.061 207.848 136.162 205.599C136.061 203.34 136.771 201.12 138.162 199.338C138.783 198.579 139.571 197.973 140.464 197.567C141.357 197.161 142.331 196.967 143.312 196.998C144.796 196.963 146.257 197.378 147.501 198.188C148.682 198.993 149.591 200.137 150.111 201.468L157.81 201.468C157.201 198.256 155.476 195.362 152.941 193.298C150.239 191.171 146.878 190.056 143.442 190.147C140.747 190.091 138.088 190.761 135.742 192.088C133.547 193.364 131.767 195.246 130.613 197.508C129.371 199.989 128.75 202.734 128.803 205.509C128.75 208.283 129.371 211.029 130.613 213.509C131.767 215.772 133.547 217.654 135.742 218.93C138.088 220.257 140.747 220.927 143.442 220.87C146.861 221.008 150.221 219.947 152.941 217.87C155.468 215.807 157.191 212.923 157.81 209.719L150.111 209.719Z"   fill="#FFFFFF" >
</path>
<path d="M160.02 220.652L168.36 220.652L173.8 211.292L180.14 220.652L188.77 220.652L178.65 205.722L188.14 190.582L179.84 190.582L174.53 199.642L168.36 190.582L159.73 190.582L169.64 205.172L160.02 220.652Z"   fill="#FFFFFF" >
</path>
</svg>
