<svg xmlns="http://www.w3.org/2000/svg" xmlns:xlink="http://www.w3.org/1999/xlink" width="200.0015869140625" height="240" viewBox="0 0 200.0015869140625 240" fill="none">
<g  opacity="0.3">
<g opacity="0.3">
<path d="M156.544 208.114C159.042 205.615 161.025 202.647 162.376 199.381C163.728 196.115 164.423 192.614 164.422 189.08L164.422 49.2005L139.711 49.2394C134.242 49.2372 128.999 47.0642 125.13 43.1978C121.263 39.3314 119.088 34.0891 119.081 28.62L119.081 0L26.9122 0C23.3772 0 19.8767 0.69552 16.6113 2.04984C13.3459 3.402 10.3781 5.38488 7.87895 7.88616C5.38141 10.3853 3.3985 13.3531 2.04697 16.619C0.695439 19.885 -5.72859e-05 23.3863 0.00158691 26.9201L0.00158691 189.13C0.0114521 196.26 2.85263 203.094 7.89704 208.133C12.9431 213.17 19.7813 216 26.9122 216L137.511 216C141.046 216 144.546 215.304 147.812 213.95C151.077 212.598 154.045 210.615 156.544 208.114Z"   fill="#005FAD" >
</path>
</g>
</g>
<path d="M119.082 0L119.082 28.6198C119.087 34.0889 121.262 39.3319 125.13 43.1983C128.998 47.0646 134.243 49.2375 139.712 49.24L164.422 49.24L119.082 0Z"   fill="#005FAD" >
</path>
<path d="M126.469 81.8747C126.308 81.4828 126.071 81.1267 125.772 80.8267C125.473 80.5266 125.118 80.2885 124.726 80.1261C124.335 79.9637 123.915 79.88 123.492 79.88L34.4916 79.88C33.6345 79.88 32.8136 80.2203 32.2075 80.8261C31.6024 81.4318 31.2616 82.2533 31.2616 83.11C31.2616 83.9667 31.6024 84.7882 32.2075 85.3939C32.8136 85.9997 33.6345 86.34 34.4916 86.34L123.492 86.34C124.346 86.3374 125.165 85.9959 125.77 85.3904C126.373 84.785 126.712 83.9649 126.712 83.11C126.713 82.6863 126.63 82.2665 126.469 81.8747Z"   fill="#005FAD" >
</path>
<path d="M42.8416 186.66L42.8416 223.94C42.8416 232.809 50.0316 240 58.9017 240L183.941 240C192.811 240 200.002 232.809 200.002 223.94L200.002 186.66C200.002 177.791 192.811 170.6 183.941 170.6L58.9017 170.6C50.0316 170.6 42.8416 177.791 42.8416 186.66Z"   fill="#005FAD" >
</path>
<path d="M63.1816 213.37L63.1816 220.65L70.7116 220.65L70.7116 213.37L63.1816 213.37Z"   fill="#FFFFFF" >
</path>
<path d="M85.8696 190.576L74.5116 190.576L74.5116 220.645L85.9097 220.645C88.8127 220.715 91.6867 220.055 94.2684 218.725C96.5665 217.518 98.4584 215.661 99.7073 213.385C100.985 210.974 101.622 208.274 101.557 205.546C101.611 202.817 100.961 200.12 99.6673 197.716C98.4203 195.463 96.5349 193.63 94.2484 192.446C91.6518 191.143 88.774 190.501 85.8696 190.576ZM81.8302 196.956L81.8302 214.135L85.2699 214.135C87.6714 214.276 90.0318 213.464 91.8387 211.875L91.8788 211.875C92.6951 211.045 93.3279 210.053 93.736 208.962C94.1442 207.872 94.3187 206.708 94.2484 205.546C94.319 204.382 94.1445 203.216 93.7363 202.124C93.3281 201.032 92.6954 200.038 91.8788 199.206C90.058 197.615 87.6831 196.806 85.2699 196.956L81.8302 196.956Z" fill-rule="evenodd"  fill="#FFFFFF" >
</path>
<path d="M121.582 190.58L116.312 212.35L112.442 190.58L104.532 190.58L111.722 220.65L120.722 220.65L125.571 200.53L130.382 220.65L139.382 220.65L146.562 190.58L138.762 190.58L134.852 212.35L129.581 190.58L121.582 190.58Z"   fill="#FFFFFF" >
</path>
<path d="M164.413 190.15C161.66 190.085 158.938 190.751 156.525 192.081C154.292 193.345 152.475 195.232 151.295 197.511C150.027 199.966 149.391 202.699 149.446 205.462C149.383 208.242 150.019 210.994 151.295 213.464C152.48 215.746 154.304 217.634 156.545 218.894C158.994 220.233 161.754 220.898 164.544 220.824C166.84 220.866 169.117 220.387 171.203 219.424C173.043 218.562 174.676 217.314 175.992 215.764C177.201 214.322 178.124 212.662 178.712 210.873L178.712 203.682L163.454 203.682L163.454 208.913L172.632 208.913C172.19 210.536 171.219 211.965 169.873 212.973C168.552 213.931 166.955 214.433 165.324 214.404C164.182 214.475 163.039 214.308 161.966 213.912C160.893 213.516 159.915 212.899 159.094 212.103C157.634 210.57 156.905 208.373 156.905 205.512C156.778 203.234 157.522 200.993 158.984 199.242C159.679 198.473 160.535 197.866 161.491 197.465C162.446 197.064 163.478 196.878 164.514 196.921C165.845 196.895 167.158 197.241 168.303 197.921C169.325 198.522 170.14 199.419 170.643 200.492L178.332 200.492C177.836 197.502 176.206 194.819 173.782 193.001C171.066 191.029 167.767 190.025 164.413 190.15Z"   fill="#FFFFFF" >
</path>
<path d="M96.057 150.154C96.4483 150.316 96.8678 150.4 97.2914 150.4C97.716 150.401 98.1366 150.319 98.5291 150.157C98.9216 149.995 99.2782 149.757 99.5784 149.457C99.8786 149.157 100.116 148.8 100.278 148.408C100.44 148.015 100.523 147.594 100.522 147.17L100.522 58.1703C100.522 57.3131 100.181 56.4921 99.5755 55.8859C98.9697 55.2798 98.1481 54.9399 97.2914 54.9399C96.4366 54.9428 95.6176 55.2836 95.014 55.8898C94.4105 56.495 94.0715 57.315 94.0715 58.1703L94.0715 147.17C94.0702 147.593 94.1525 148.013 94.3137 148.405C94.475 148.797 94.712 149.153 95.0111 149.453C95.3103 149.754 95.6656 149.991 96.057 150.154Z"   fill="#005FAD" >
</path>
<path d="M87.2015 92.97L107.812 92.97L107.812 72.36L87.2015 72.36L87.2015 92.97Z"   fill="#005FAD" >
</path>
</svg>
