<svg xmlns="http://www.w3.org/2000/svg" xmlns:xlink="http://www.w3.org/1999/xlink" width="200.010009765625" height="240" viewBox="0 0 200.010009765625 240" fill="none">
<g  opacity="0.3">
<g opacity="0.3">
<path d="M164.43 49.2508L139.67 49.24C134.203 49.2356 128.961 47.06 125.095 43.1949C121.229 39.3297 119.056 34.0862 119.051 28.6201L119.051 0L26.9205 0C23.3852 0 19.8845 0.695681 16.6189 2.04815C13.3517 3.40279 10.3838 5.38397 7.88442 7.88366C5.38508 10.3834 3.40206 13.3519 2.0488 16.6186C0.695539 19.8852 0 23.3853 0 26.9198L0 189.13C0 192.665 0.695539 196.165 2.0488 199.431C3.40206 202.698 5.38508 205.664 7.88442 208.164C10.3838 210.666 13.3517 212.647 16.6189 214.002C19.8845 215.354 23.3852 216.05 26.9205 216.05L137.519 216.05C141.055 216.05 144.555 215.354 147.821 214C151.087 212.647 154.053 210.664 156.552 208.164C159.051 205.664 161.033 202.696 162.384 199.431C163.736 196.165 164.432 192.665 164.43 189.13L164.43 49.2508Z"   fill="#FF9908" >
</path>
</g>
</g>
<path d="M119.05 0L119.05 28.6198C119.055 34.0874 121.23 39.329 125.095 43.1948C128.961 47.0606 134.203 49.2346 139.67 49.24L164.43 49.24L119.05 0Z"   fill="#FF9908" >
</path>
<path d="M42.85 186.66L42.85 223.94C42.85 232.809 50.04 240 58.9102 240L183.95 240C192.82 240 200.01 232.809 200.01 223.94L200.01 186.66C200.01 177.791 192.82 170.6 183.95 170.6L58.9102 170.6C50.04 170.6 42.85 177.791 42.85 186.66Z"   fill="#FF9908" >
</path>
<path d="M79.76 213.37L79.76 220.65L87.29 220.65L87.29 213.37L79.76 213.37Z"   fill="#FFFFFF" >
</path>
<path d="M108.5 208.14L108.5 202.65L98.3401 202.65L98.3401 196.36L109.78 196.36L109.78 190.58L91.0601 190.58L91.0601 220.65L109.78 220.65L109.78 214.82L98.3401 214.82L98.3401 208.14L108.5 208.14Z"   fill="#FFFFFF" >
</path>
<path d="M129.26 200.4C129.26 197.733 127.8 196.4 124.88 196.4L121.18 196.4L121.18 204.23L124.88 204.23C127.82 204.257 129.29 202.98 129.29 200.4L129.26 200.4ZM121.18 220.65L121.18 210.1L125.68 210.1C127.752 210.164 129.809 209.732 131.68 208.84C133.238 208.094 134.534 206.895 135.4 205.4C136.256 203.875 136.691 202.149 136.66 200.4C136.722 199.074 136.503 197.751 136.019 196.515C135.535 195.28 134.796 194.16 133.85 193.23C131.983 191.463 129.26 190.58 125.68 190.58L113.9 190.58L113.9 220.65L121.18 220.65Z" fill-rule="evenodd"  fill="#FFFFFF" >
</path>
<path d="M153.311 210.589C153.556 210.844 153.747 211.145 153.874 211.475C154.001 211.804 154.061 212.156 154.051 212.509C154.063 212.881 153.997 213.25 153.857 213.595C153.717 213.939 153.507 214.25 153.241 214.509C152.633 215.045 151.839 215.318 151.03 215.269C150.047 215.297 149.092 214.938 148.37 214.269C147.654 213.552 147.224 212.6 147.16 211.589L139.418 211.589C139.462 212.931 139.805 214.246 140.423 215.439C141.04 216.631 141.917 217.67 142.989 218.479C145.423 220.194 148.355 221.059 151.331 220.939C153.305 221 155.265 220.592 157.052 219.749C158.525 219.053 159.765 217.945 160.622 216.559C161.441 215.231 161.868 213.699 161.853 212.139C161.926 210.453 161.463 208.787 160.532 207.379C159.715 206.215 158.636 205.259 157.381 204.589C155.86 203.826 154.282 203.18 152.661 202.659C151.33 202.179 150.31 201.779 149.6 201.469C148.935 201.184 148.333 200.769 147.83 200.249C147.6 200.011 147.419 199.728 147.299 199.42C147.179 199.111 147.121 198.781 147.13 198.449C147.103 198.078 147.16 197.705 147.297 197.359C147.433 197.013 147.646 196.702 147.92 196.449C148.498 195.974 149.233 195.731 149.98 195.769C150.412 195.747 150.844 195.812 151.25 195.962C151.655 196.111 152.027 196.342 152.341 196.639C152.953 197.284 153.333 198.114 153.421 198.999L161.292 198.999C161.21 197.761 160.872 196.554 160.301 195.452C159.73 194.351 158.936 193.38 157.972 192.599C155.662 190.9 152.833 190.059 149.97 190.219C148.084 190.173 146.209 190.513 144.459 191.219C142.946 191.842 141.642 192.883 140.698 194.219C139.772 195.582 139.296 197.202 139.338 198.849C139.262 200.513 139.714 202.158 140.628 203.549C141.427 204.699 142.495 205.637 143.739 206.279C145.248 207.014 146.805 207.646 148.4 208.169C149.7 208.623 150.72 209.012 151.461 209.339C152.153 209.631 152.782 210.055 153.311 210.589Z"   fill="#FFFFFF" >
</path>
<path d="M44.4101 127.73C44.4207 117.639 48.434 107.965 55.5692 100.829C62.7045 93.694 72.3793 89.6808 82.4702 89.6702C92.5619 89.6808 102.237 93.6936 109.374 100.829C116.511 107.964 120.527 117.638 120.54 127.73L123.03 127.73C123.017 116.978 118.739 106.67 111.135 99.0677C103.531 91.4658 93.2221 87.1906 82.4702 87.1801C71.7199 87.1934 61.4132 91.4698 53.8116 99.0713C46.21 106.673 41.933 116.979 41.92 127.73L44.4101 127.73Z"   fill="#FF9908" >
</path>
<path d="M24.84 89.6701L140.1 89.6701L140.1 87.1801L24.84 87.1801L24.84 89.6701Z"   fill="#FF9908" >
</path>
<path d="M39.1801 131.72L47.1501 131.72L47.1501 123.75L39.1801 123.75L39.1801 131.72Z"   fill="#FF9908" >
</path>
<path d="M117.8 131.72L125.77 131.72L125.77 123.75L117.8 123.75L117.8 131.72Z"   fill="#FF9908" >
</path>
<path d="M78.49 92.2801L86.46 92.2801L86.46 84.3101L78.49 84.3101L78.49 92.2801Z"   fill="#FF9908" >
</path>
<path d="M24.71 84.3101C22.5064 84.3101 20.72 86.0965 20.72 88.3001C20.72 90.5037 22.5064 92.2901 24.71 92.2901C26.9136 92.2901 28.7 90.5037 28.7 88.3001C28.7 86.0965 26.9136 84.3101 24.71 84.3101Z"   fill="#FF9908" >
</path>
<path d="M139.72 84.3101C137.516 84.3101 135.73 86.0965 135.73 88.3001C135.73 90.5037 137.516 92.2901 139.72 92.2901C141.924 92.2901 143.71 90.5037 143.71 88.3001C143.71 86.0965 141.924 84.3101 139.72 84.3101Z"   fill="#FF9908" >
</path>
</svg>
