<svg xmlns="http://www.w3.org/2000/svg" xmlns:xlink="http://www.w3.org/1999/xlink" width="200" height="240.010009765625" viewBox="0 0 200 240.010009765625" fill="none">
<g  opacity="0.3">
<g opacity="0.3">
<path d="M164.42 49.2091L139.709 49.2502C134.241 49.2437 128.996 47.0686 125.129 43.2022C121.26 39.3336 119.086 34.0891 119.08 28.62L119.08 0L26.9106 0C19.7731 0 12.9283 2.83608 7.88229 7.88184C2.8346 12.9276 0 19.7726 0 26.9093L0 189.13C0.0098652 196.26 2.85104 203.094 7.89545 208.133C12.9415 213.17 19.7797 216 26.9106 216L137.509 216C144.647 216 151.492 213.164 156.538 208.118C161.585 203.072 164.42 196.227 164.42 189.091L164.42 49.2091Z"   fill="#0072FF" >
</path>
</g>
</g>
<path d="M119.08 0L119.08 28.6202C119.085 34.0899 121.26 39.334 125.128 43.2016C128.996 47.0697 134.24 49.2446 139.71 49.25L164.42 49.25L119.08 0Z"   fill="#0072FF" >
</path>
<path d="M42.84 186.67L42.84 223.95C42.84 232.819 50.03 240.01 58.9001 240.01L183.94 240.01C192.81 240.01 200 232.819 200 223.95L200 186.67C200 177.801 192.81 170.61 183.94 170.61L58.9001 170.61C50.03 170.61 42.84 177.801 42.84 186.67Z"   fill="#0072FF" >
</path>
<path d="M79.71 213.38L79.71 220.65L87.19 220.65L87.19 213.38L79.71 213.38Z"   fill="#FFFFFF" >
</path>
<path d="M90.99 190.58L90.99 220.65L109.71 220.65L109.71 214.82L98.25 214.82L98.25 208.14L108.41 208.14L108.41 202.66L98.25 202.66L98.25 196.36L109.71 196.36L109.71 190.58L90.99 190.58Z"   fill="#FFFFFF" >
</path>
<path d="M121.55 205.17L111.94 220.65L120.28 220.65L125.72 211.29L132.06 220.65L140.69 220.65L130.57 205.72L140.06 190.58L131.76 190.58L126.44 199.64L120.28 190.58L111.64 190.58L121.55 205.17Z"   fill="#FFFFFF" >
</path>
<path d="M162.21 190.58L143.5 190.58L143.5 220.65L162.21 220.65L162.21 214.82L150.77 214.82L150.77 208.14L160.94 208.14L160.94 202.66L150.77 202.66L150.77 196.36L162.21 196.36L162.21 190.58Z"   fill="#FFFFFF" >
</path>
<path d="M77.91 143.41C77.91 144.551 78.3632 145.644 79.1695 146.451C79.9759 147.257 81.0696 147.71 82.21 147.71C83.3487 147.707 84.4398 147.253 85.2441 146.447C86.0483 145.641 86.5 144.549 86.5 143.41L86.5 136.8C86.5 135.662 86.0479 134.571 85.2435 133.766C84.4389 132.962 83.3478 132.51 82.21 132.51C81.6458 132.509 81.0869 132.619 80.5653 132.834C80.0436 133.049 79.5695 133.364 79.1702 133.763C78.7708 134.161 78.4538 134.635 78.2376 135.156C78.0214 135.677 77.91 136.236 77.91 136.8L77.91 143.41Z"   fill="#0072FF" >
</path>
<path d="M85.2441 93.1569C86.0483 92.3508 86.5 91.2586 86.5 90.1199L86.5 82.4301C86.5 81.2914 86.0483 80.199 85.2441 79.393C84.4398 78.5868 83.3487 78.1326 82.21 78.13C81.0696 78.13 79.9759 78.583 79.1695 79.3894C78.3632 80.1957 77.91 81.2896 77.91 82.4301L77.91 90.1199C77.91 91.2604 78.3632 92.3541 79.1695 93.1605C79.9759 93.9668 81.0696 94.42 82.21 94.42C83.3487 94.4174 84.4398 93.9631 85.2441 93.1569Z"   fill="#0072FF" >
</path>
<path d="M90.5346 135.92L93.7346 141.48C94.1125 142.134 94.6564 142.678 95.3112 143.055C95.966 143.433 96.7088 143.631 97.4647 143.63C98.2163 143.627 98.9541 143.427 99.6045 143.05C100.591 142.479 101.31 141.54 101.604 140.44C101.898 139.339 101.744 138.167 101.174 137.18L97.9746 131.629C97.6929 131.14 97.3174 130.711 96.8696 130.367C96.4219 130.024 95.9108 129.771 95.3654 129.626C94.8202 129.48 94.2515 129.443 93.692 129.517C93.1324 129.592 92.5929 129.776 92.1047 130.059C91.1194 130.628 90.4006 131.565 90.1062 132.664C89.8118 133.763 89.9657 134.934 90.5346 135.92Z"   fill="#0072FF" >
</path>
<path d="M68.0835 82.3661C66.9827 82.0716 65.8102 82.2261 64.8232 82.7955C63.8355 83.3649 63.1141 84.3032 62.8179 85.4043C62.5216 86.5053 62.6746 87.679 63.243 88.6674L67.1836 95.4794C67.5615 96.1341 68.1053 96.6776 68.7603 97.0552C69.4152 97.4327 70.1581 97.6311 70.914 97.63C71.6651 97.6306 72.4031 97.434 73.0543 97.0598C74.0404 96.4889 74.7596 95.5498 75.0539 94.4489C75.3484 93.348 75.194 92.1751 74.6247 91.188L70.694 84.366C70.1231 83.3797 69.1841 82.6605 68.0835 82.3661Z"   fill="#0072FF" >
</path>
<path d="M108.605 132.46C109.361 132.461 110.103 132.263 110.758 131.886C111.413 131.508 111.957 130.965 112.335 130.311C112.904 129.324 113.058 128.152 112.764 127.052C112.47 125.951 111.751 125.013 110.765 124.442L105.205 121.233C104.217 120.664 103.044 120.512 101.943 120.808C100.842 121.104 99.9045 121.825 99.3354 122.812C98.7661 123.799 98.6117 124.971 98.906 126.071C99.2004 127.172 99.9193 128.11 100.905 128.681L106.465 131.89C107.116 132.264 107.854 132.461 108.605 132.46Z"   fill="#0072FF" >
</path>
<path d="M53.1806 94.2674C52.7328 94.6112 52.3573 95.0401 52.0754 95.5293C51.506 96.5161 51.3516 97.6886 51.6461 98.7892C51.9404 99.8898 52.6596 100.829 53.6457 101.4L60.4671 105.33C61.1172 105.708 61.8554 105.908 62.6074 105.91C63.3634 105.911 64.1063 105.713 64.7612 105.335C65.4163 104.958 65.9601 104.414 66.3381 103.76C66.9049 102.772 67.0578 101.601 66.7636 100.501C66.4694 99.4009 65.7519 98.4622 64.7679 97.8894L57.9466 93.959C57.4581 93.6758 56.9186 93.4918 56.3589 93.4173C55.7992 93.343 55.2305 93.3799 54.6851 93.5257C54.1397 93.6716 53.6284 93.9237 53.1806 94.2674Z"   fill="#0072FF" >
</path>
<path d="M106.09 117.22L112.71 117.22C113.85 117.22 114.944 116.767 115.751 115.961C116.557 115.154 117.01 114.061 117.01 112.92C117.007 111.781 116.553 110.69 115.747 109.886C114.941 109.082 113.849 108.63 112.71 108.63L106.09 108.63C104.951 108.63 103.859 109.082 103.053 109.886C102.247 110.69 101.793 111.781 101.79 112.92C101.79 114.061 102.243 115.154 103.049 115.961C103.856 116.767 104.95 117.22 106.09 117.22Z"   fill="#0072FF" >
</path>
<path d="M61.0249 108.954C60.5033 108.739 59.9443 108.629 59.38 108.63L51.71 108.63C50.5715 108.63 49.4793 109.082 48.6731 109.886C47.8669 110.69 47.4126 111.781 47.41 112.92C47.41 114.061 47.8632 115.154 48.6695 115.961C49.476 116.767 50.5697 117.22 51.71 117.22L59.3901 117.22C59.9544 117.22 60.5129 117.109 61.034 116.892C61.5552 116.676 62.0286 116.359 62.4271 115.96C62.8255 115.561 63.1413 115.087 63.3564 114.565C63.5714 114.043 63.6813 113.484 63.68 112.92C63.68 112.356 63.5687 111.797 63.3525 111.276C63.1363 110.755 62.8195 110.281 62.4201 109.883C62.0207 109.484 61.5465 109.169 61.0249 108.954Z"   fill="#0072FF" >
</path>
<path d="M106.444 93.9556L100.443 97.4369C99.4554 98.0063 98.7342 98.9448 98.4378 100.046C98.1416 101.147 98.2946 102.321 98.8631 103.309C99.243 103.962 99.7876 104.503 100.442 104.878C101.097 105.254 101.839 105.451 102.593 105.45C103.348 105.453 104.09 105.257 104.744 104.88L110.744 101.398C111.73 100.827 112.45 99.8883 112.744 98.7872C113.038 97.6862 112.884 96.5135 112.315 95.5263C111.744 94.5399 110.805 93.8206 109.704 93.5261C108.603 93.2317 107.431 93.386 106.444 93.9556Z"   fill="#0072FF" >
</path>
<path d="M65.8771 122.341C65.3042 121.358 64.3654 120.641 63.2655 120.346C62.1655 120.052 60.994 120.205 60.0064 120.772L53.6456 124.441C52.6595 125.012 51.9404 125.951 51.6461 127.051C51.3517 128.151 51.5061 129.324 52.0754 130.31C52.451 130.965 52.9929 131.508 53.6462 131.886C54.2997 132.263 55.0412 132.461 55.7959 132.46C56.5516 132.463 57.2945 132.263 57.9461 131.88L64.2968 128.211C65.2845 127.641 66.0058 126.704 66.3021 125.603C66.5984 124.503 66.4457 123.329 65.8771 122.341Z"   fill="#0072FF" >
</path>
<path d="M82.7702 132.49C86.061 132.494 89.2965 131.643 92.16 130.02C95.1667 128.318 97.6528 125.829 99.3501 122.82C100.971 119.96 101.822 116.728 101.82 113.44L101.82 113.06C101.746 109.642 100.758 106.307 98.9599 103.4C97.2007 100.562 94.724 98.2365 91.7798 96.6599C88.966 95.1574 85.82 94.384 82.6304 94.41L82.6 94.41L82.3303 94.41C79.0633 94.4813 75.8687 95.3863 73.0499 97.0402C70.2632 98.6837 67.9374 101.005 66.2898 103.79C64.6588 106.59 63.7706 109.76 63.7098 113C63.7098 113.18 63.7098 113.31 63.7098 113.44C63.7082 116.581 64.4847 119.673 65.9704 122.44C67.5527 125.392 69.884 127.875 72.7299 129.64C75.6177 131.432 78.9328 132.416 82.3303 132.49L82.7702 132.49ZM55.0601 113.47C55.0656 118.03 56.192 122.518 58.3403 126.54C60.6385 130.811 64.0177 134.404 68.1403 136.96C72.3115 139.562 77.105 140.995 82.0202 141.11L82.71 141.11C87.4803 141.108 92.1694 139.872 96.3202 137.52C100.677 135.055 104.279 131.449 106.74 127.09C109.094 122.937 110.331 118.244 110.33 113.47C110.33 113.24 110.33 113.01 110.33 112.84C110.225 107.906 108.795 103.092 106.19 98.8999C103.638 94.7832 100.048 91.4105 95.7802 89.1203C91.7604 86.9561 87.2653 85.825 82.7 85.83L82.07 85.83C77.3554 85.94 72.7465 87.2513 68.6802 89.6399C64.6361 92.0241 61.2641 95.3962 58.8803 99.44C56.4932 103.49 55.1783 108.081 55.0601 112.78C55.0601 113.01 55.0601 113.24 55.0601 113.47Z" fill-rule="evenodd"  fill="#0072FF" >
</path>
<path d="M96.3393 82.3657C95.7939 82.5115 95.2825 82.7636 94.8347 83.1074C94.3869 83.4512 94.0114 83.8799 93.7297 84.3691L90.0591 90.7395C89.7758 91.2278 89.5918 91.7673 89.5174 92.327C89.443 92.8865 89.4799 93.4552 89.6256 94.0005C89.7715 94.546 90.0237 95.0571 90.3675 95.5049C90.7113 95.9527 91.1401 96.3281 91.6294 96.6098C92.2797 96.9861 93.0184 97.1828 93.7697 97.18C94.5257 97.181 95.2686 96.9828 95.9236 96.6054C96.5784 96.2279 97.1224 95.6844 97.5003 95.0298L101.171 88.6695C101.454 88.1811 101.638 87.6416 101.713 87.0821C101.787 86.5225 101.75 85.9538 101.604 85.4084C101.458 84.8631 101.206 84.3518 100.862 83.904C100.519 83.4563 100.09 83.0809 99.6006 82.7991C99.1122 82.5159 98.5727 82.3317 98.013 82.2574C97.4534 82.183 96.8847 82.2198 96.3393 82.3657Z"   fill="#0072FF" >
</path>
<path d="M66.7235 131.176L63.2431 137.178C62.6745 138.166 62.5216 139.34 62.8178 140.441C63.1141 141.542 63.8355 142.481 64.8232 143.05C65.4728 143.429 66.2114 143.629 66.9636 143.63C67.7195 143.631 68.4623 143.433 69.1174 143.055C69.7723 142.678 70.3161 142.134 70.6941 141.479L74.1645 135.477C74.7339 134.49 74.8884 133.318 74.594 132.217C74.2996 131.116 73.5804 130.177 72.5944 129.606C71.6074 129.036 70.4349 128.882 69.3341 129.176C68.2333 129.471 67.2944 130.19 66.7235 131.176Z"   fill="#0072FF" >
</path>
</svg>
