<svg xmlns="http://www.w3.org/2000/svg" xmlns:xlink="http://www.w3.org/1999/xlink" width="200.010009765625" height="240.002197265625" viewBox="0 0 200.010009765625 240.002197265625" fill="none">
<g  opacity="0.3">
<g opacity="0.3">
<path d="M7.88606 7.87972C5.38508 10.3788 3.40206 13.3467 2.0488 16.6126C0.697183 19.8764 0 23.3777 0 26.9115L0 189.132C0.0098658 196.264 2.85122 203.101 7.89922 208.138C12.9472 213.177 19.7875 216.004 26.9205 216.002L137.519 216.002C141.055 216.002 144.554 215.307 147.818 213.955C151.083 212.602 154.05 210.619 156.549 208.12C159.047 205.621 161.03 202.656 162.381 199.39C163.734 196.126 164.43 192.627 164.43 189.093L164.43 49.2416L139.67 49.2416C134.203 49.2372 128.961 47.0621 125.095 43.1979C121.229 39.3315 119.056 34.0892 119.051 28.6222L119.051 0.00219727L26.9205 0.00219727C23.3852 3.72657e-05 19.8845 0.695557 16.6189 2.04772C13.3534 3.39988 10.3854 5.3806 7.88606 7.87972Z"   fill="#FF3E4C" >
</path>
</g>
</g>
<path d="M119.05 0.00219727L119.05 28.622C119.055 34.0896 121.23 39.3312 125.095 43.197C128.961 47.0628 134.203 49.2368 139.67 49.2422L164.43 49.2422L119.05 0.00219727Z"   fill="#FF3E4C" >
</path>
<path d="M42.85 186.662L42.85 223.942C42.85 232.812 50.04 240.002 58.9102 240.002L183.95 240.002C192.82 240.002 200.01 232.812 200.01 223.942L200.01 186.662C200.01 177.793 192.82 170.602 183.95 170.602L58.9102 170.602C50.04 170.602 42.85 177.793 42.85 186.662Z"   fill="#FF3E4C" >
</path>
<path d="M79.86 213.372L79.86 220.642L87.38 220.642L87.38 213.372L79.86 213.372Z"   fill="#FFFFFF" >
</path>
<path d="M98.4401 220.692L98.4401 208.532L107.97 208.532L107.97 203.002L98.4401 203.002L98.4401 196.362L110.78 196.362L110.78 190.572L91.17 190.622L91.17 220.692L98.4401 220.692Z"   fill="#FFFFFF" >
</path>
<path d="M121.76 190.572L114.49 190.572L114.49 220.642L131.49 220.642L131.49 215.072L121.79 215.072L121.76 190.572Z"   fill="#FFFFFF" >
</path>
<path d="M132.68 190.572L143.1 220.642L152.5 220.642L162.96 190.572L155.18 190.572L147.82 213.202L140.46 190.572L132.68 190.572Z"   fill="#FFFFFF" >
</path>
<path d="M104.521 133.782L104.521 126.542L98.6308 126.542L98.6308 133.782L104.521 133.782ZM58.8827 133.782L64.7724 133.782L64.7724 126.542L58.8827 126.542L58.8827 133.782ZM98.6509 82.2422L98.6509 89.4824L104.541 89.4824L104.541 82.2422L98.6509 82.2422ZM58.9028 82.2422L58.9028 89.4824L64.7925 89.4824L64.7925 82.2422L58.9028 82.2422ZM74.7324 89.4824L74.7324 82.2422L68.8426 82.2422L68.8426 89.4824L74.7324 89.4824ZM118.93 82.2323C118.903 82.1755 118.869 82.1221 118.83 82.0725C118.708 81.8913 118.57 81.7211 118.42 81.5625L118.34 81.5024C118.208 81.3692 118.064 81.2485 117.91 81.1422L117.74 81.0326C117.61 80.9522 117.47 80.8822 117.33 80.8123L117.13 80.7225C116.97 80.6619 116.806 80.6118 116.64 80.5722L116.48 80.5722C116.253 80.5231 116.022 80.5 115.79 80.5022L48.3934 80.5022C47.468 80.587 46.6074 81.0144 45.9798 81.7007C45.3529 82.387 45.0045 83.2826 45.0037 84.2124C44.9985 84.2691 44.9985 84.3259 45.0037 84.3826L45.0037 132.062C44.9792 132.676 45.1742 133.279 45.5539 133.762C45.8822 134.316 46.349 134.774 46.9082 135.093C47.4673 135.413 48.0994 135.581 48.7433 135.582L115.74 135.582C116.714 135.572 117.646 135.183 118.338 134.498C119.031 133.814 119.429 132.886 119.45 131.912L119.45 84.2025C119.451 83.9711 119.431 83.7403 119.39 83.5123C119.387 83.4457 119.387 83.379 119.39 83.3124C119.39 83.1521 119.3 83.0023 119.25 82.8525L119.16 82.6525C119.091 82.5082 119.014 82.3678 118.93 82.2323ZM68.8225 133.782L74.7122 133.782L74.7122 126.542L68.8225 126.542L68.8225 133.782ZM108.571 133.782L114.46 133.782L114.46 126.542L108.571 126.542L108.571 133.782ZM116.81 91.4422L47.5938 91.4422L47.5938 124.592L116.81 124.592L116.81 91.4422ZM114.48 89.4824L114.48 82.2422L108.591 82.2422L108.591 89.4824L114.48 89.4824ZM48.9637 89.4824L54.8535 89.4824L54.8535 82.2422L48.9637 82.2422L48.9637 89.4824ZM88.7215 82.2422L88.7215 89.4824L94.6113 89.4824L94.6113 82.2422L88.7215 82.2422ZM84.6513 126.542L78.7616 126.542L78.7616 133.782L84.6513 133.782L84.6513 126.542ZM48.9436 126.542L48.9436 133.782L54.8334 133.782L54.8334 126.542L48.9436 126.542ZM94.5911 133.782L94.5911 126.542L88.7014 126.542L88.7014 133.782L94.5911 133.782ZM84.6714 82.2422L78.7817 82.2422L78.7817 89.4824L84.6714 89.4824L84.6714 82.2422Z" fill-rule="evenodd"  fill="#FF3E4C" >
</path>
<path d="M90.2259 105.558L80.6587 100.029C80.1634 99.7429 79.6017 99.5923 79.0299 99.5922C78.4581 99.592 77.8964 99.7424 77.401 100.028C76.9057 100.314 76.4941 100.725 76.2079 101.22C75.9217 101.715 75.7707 102.276 75.77 102.848L75.77 113.906C75.7707 114.478 75.9217 115.04 76.2079 115.535C76.4941 116.03 76.9057 116.441 77.401 116.726C77.8964 117.012 78.4581 117.162 79.0299 117.162C79.6017 117.162 80.1634 117.011 80.6587 116.726L90.2259 111.197C90.7199 110.91 91.13 110.499 91.4149 110.004C91.7 109.509 91.85 108.948 91.85 108.377C91.85 107.806 91.7 107.245 91.4149 106.75C91.13 106.255 90.7199 105.844 90.2259 105.558Z"   fill="#FF3E4C" >
</path>
</svg>
