<svg xmlns="http://www.w3.org/2000/svg" xmlns:xlink="http://www.w3.org/1999/xlink" width="200.010009765625" height="240.002197265625" viewBox="0 0 200.010009765625 240.002197265625" fill="none">
<g  opacity="0.3">
<g opacity="0.3">
<path d="M16.6189 2.04772C13.3534 3.39988 10.3854 5.3806 7.88606 7.87972C5.38508 10.3788 3.40206 13.3467 2.0488 16.6126C0.695539 19.8764 0 23.3777 0 26.9115L0 189.132C0.0098658 196.264 2.85122 203.101 7.89922 208.138C12.9472 213.177 19.7875 216.004 26.9205 216.002L137.519 216.002C144.657 216.002 151.501 213.166 156.549 208.12C161.595 203.075 164.43 196.23 164.43 189.093L164.43 49.2416L139.67 49.2416C134.203 49.2372 128.961 47.0621 125.095 43.1979C121.229 39.3315 119.056 34.0892 119.051 28.6222L119.051 0.00219727L26.9205 0.00219727C23.3852 3.72657e-05 19.8845 0.695557 16.6189 2.04772Z"   fill="#FF9908" >
</path>
</g>
</g>
<path d="M119.05 0.00219727L119.05 28.622C119.055 34.0896 121.23 39.3312 125.096 43.197C128.961 47.0628 134.203 49.2368 139.67 49.2422L164.43 49.2422L119.05 0.00219727Z"   fill="#FF9908" >
</path>
<path d="M42.85 186.662L42.85 223.942C42.85 232.812 50.04 240.002 58.9102 240.002L183.95 240.002C192.82 240.002 200.01 232.812 200.01 223.942L200.01 186.662C200.01 177.793 192.82 170.602 183.95 170.602L58.9102 170.602C50.04 170.602 42.85 177.793 42.85 186.662Z"   fill="#FF9908" >
</path>
<path d="M82.93 213.372L82.93 220.642L90.46 220.642L90.46 213.372L82.93 213.372Z"   fill="#FFFFFF" >
</path>
<path d="M102.842 199.219C103.539 198.453 104.395 197.85 105.35 197.45C106.306 197.051 107.337 196.867 108.372 196.91C109.7 196.883 111.01 197.23 112.151 197.909C113.171 198.516 113.986 199.415 114.491 200.489L122.19 200.489C121.697 197.499 120.067 194.816 117.641 193C114.909 191.08 111.616 190.127 108.282 190.29C105.528 190.225 102.806 190.891 100.393 192.22C98.1614 193.485 96.3423 195.367 95.1531 197.639C93.8836 200.112 93.2479 202.86 93.3032 205.639C93.2546 208.4 93.8901 211.131 95.1531 213.588C96.3444 215.865 98.1717 217.748 100.413 219.007C102.86 220.35 105.621 221.019 108.412 220.947C110.709 220.988 112.985 220.509 115.071 219.547C116.908 218.685 118.539 217.437 119.85 215.888C121.063 214.448 121.986 212.788 122.57 210.998L122.57 203.669L107.302 203.669L107.302 208.898L116.491 208.898C116.045 210.519 115.074 211.947 113.731 212.958C112.409 213.914 110.813 214.416 109.182 214.388C108.039 214.46 106.894 214.293 105.819 213.897C104.745 213.501 103.765 212.885 102.942 212.088C101.482 210.555 100.752 208.358 100.752 205.499C100.631 203.217 101.378 200.973 102.842 199.219Z"   fill="#FFFFFF" >
</path>
<path d="M126.66 190.572L126.66 220.642L133.93 220.642L133.93 190.572L126.66 190.572Z"   fill="#FFFFFF" >
</path>
<path d="M138.95 220.692L146.22 220.692L146.22 208.532L155.75 208.532L155.75 203.002L146.22 203.002L146.22 196.362L158.56 196.362L158.56 190.572L138.95 190.622L138.95 220.692Z"   fill="#FFFFFF" >
</path>
<path d="M101.621 137.264C107.983 130.903 111.564 122.278 111.58 113.282C111.564 104.286 107.983 95.6618 101.621 89.3008C95.2604 82.939 86.6362 79.3581 77.64 79.3425C68.6438 79.3581 60.0196 82.939 53.6586 89.3008C47.2968 95.6618 43.7159 104.286 43.7003 113.282C43.7159 122.278 47.2968 130.903 53.6586 137.264C60.0196 143.625 68.6438 147.206 77.64 147.222C86.6362 147.206 95.2604 143.625 101.621 137.264ZM77.64 72.1322C66.7303 72.1454 56.2716 76.485 48.5568 84.199C40.8428 91.9138 36.5032 102.373 36.49 113.282C36.5032 124.192 40.8428 134.651 48.5568 142.365C56.2716 150.079 66.7303 154.419 77.64 154.432C88.5497 154.419 99.0084 150.079 106.722 142.365C114.437 134.651 118.777 124.192 118.79 113.282C118.777 102.373 114.437 91.9138 106.722 84.199C99.0084 76.485 88.5497 72.1454 77.64 72.1322Z" fill-rule="evenodd"  fill="#FF9908" >
</path>
<path d="M91.1019 132.967C95.2428 130.752 98.7735 127.549 101.38 123.642L95.3801 119.642C93.4313 122.566 90.7902 124.963 87.6918 126.62C84.5935 128.278 81.1336 129.144 77.62 129.142C74.1073 129.143 70.6488 128.278 67.551 126.622C64.4531 124.967 61.811 122.573 59.8599 119.652L53.86 123.652C56.4722 127.562 60.0095 130.766 64.158 132.98C68.3065 135.194 72.9378 136.349 77.6399 136.342C82.3363 136.342 86.9605 135.183 91.1019 132.967Z"   fill="#FF9908" >
</path>
<path d="M66.23 97.3922C63.5846 97.3922 61.44 99.5368 61.44 102.182C61.44 104.828 63.5846 106.972 66.23 106.972C68.8754 106.972 71.02 104.828 71.02 102.182C71.02 99.5368 68.8754 97.3922 66.23 97.3922Z"   fill="#FF9908" >
</path>
<path d="M89.05 97.3922C86.4046 97.3922 84.26 99.5368 84.26 102.182C84.26 104.828 86.4046 106.972 89.05 106.972C91.6954 106.972 93.84 104.828 93.84 102.182C93.84 99.5368 91.6954 97.3922 89.05 97.3922Z"   fill="#FF9908" >
</path>
</svg>
