<svg xmlns="http://www.w3.org/2000/svg" xmlns:xlink="http://www.w3.org/1999/xlink" width="200" height="240" viewBox="0 0 200 240" fill="none">
<g  opacity="0.3">
<g opacity="0.3">
<path d="M139.67 49.2394C134.203 49.235 128.961 47.0599 125.095 43.1957C121.229 39.3293 119.056 34.087 119.051 28.62L119.051 0L26.9106 0C19.7744 0 12.9308 2.83392 7.88606 7.87752C2.83971 12.9233 0.0032886 19.764 0 26.9006L0 189.121C0.0082215 196.251 2.84628 203.09 7.89264 208.129C12.9374 213.168 19.7776 216 26.9106 216L137.51 216C141.045 216.002 144.545 215.307 147.811 213.954C151.077 212.602 154.045 210.622 156.544 208.122C159.045 205.623 161.028 202.656 162.381 199.39C163.734 196.126 164.43 192.624 164.43 189.091L164.43 49.2394L139.67 49.2394Z"   fill="#00C650" >
</path>
</g>
</g>
<path d="M119.05 0L119.05 28.6198C119.055 34.0874 121.229 39.329 125.095 43.1948C128.961 47.0606 134.203 49.2346 139.67 49.24L164.43 49.24L119.05 0Z"   fill="#00C650" >
</path>
<path d="M42.8401 186.66L42.8401 223.94C42.8401 232.81 50.0302 240 58.9003 240L183.94 240C192.81 240 200 232.81 200 223.94L200 186.66C200 177.79 192.81 170.6 183.94 170.6L58.9003 170.6C50.0302 170.6 42.8401 177.79 42.8401 186.66Z"   fill="#00C650" >
</path>
<path d="M60.47 213.37L60.47 220.64L68 220.64L68 213.37L60.47 213.37Z"   fill="#FFFFFF" >
</path>
<path d="M71.8301 190.57L71.8301 220.64L79.1 220.64L79.1 208.09L90.5 208.09L90.5 220.64L97.8201 220.64L97.8201 190.57L90.5 190.57L90.5 202.22L79.1 202.22L79.1 190.57L71.8301 190.57Z"   fill="#FFFFFF" >
</path>
<path d="M100.92 190.57L100.92 196.35L109 196.35L109 220.64L116.28 220.64L116.28 196.35L124.44 196.35L124.44 190.57L100.92 190.57Z"   fill="#FFFFFF" >
</path>
<path d="M144.48 211.61L136.35 190.81L127.46 190.81L127.46 220.67L134.74 220.67L134.74 201.96L141.24 220.67L147.54 220.67L154 202L154 220.64L161.32 220.64L161.32 190.78L152.43 190.81L144.48 211.61Z"   fill="#FFFFFF" >
</path>
<path d="M173.59 190.57L166.31 190.57L166.31 220.64L183.31 220.64L183.31 215.07L173.61 215.07L173.59 190.57Z"   fill="#FFFFFF" >
</path>
<path d="M43.1008 119.385C43.7606 119.705 44.4005 119.985 45.0306 120.235L46.9604 121.035L54.6801 124.286L60.6799 126.776L64.35 128.286L65.6698 128.756L66.09 128.896C66.2397 128.955 66.399 128.985 66.56 128.986C66.8712 129.004 67.183 128.957 67.4754 128.848C67.7679 128.74 68.035 128.572 68.2597 128.356C68.6444 127.975 68.8636 127.458 68.8699 126.916L68.8699 124.376C68.8729 123.91 68.7215 123.456 68.4397 123.086C68.1431 122.676 67.7379 122.357 67.2699 122.166L51.5004 115.715L67.2699 109.264C67.7551 109.092 68.1676 108.761 68.4397 108.324C68.7111 107.936 68.8609 107.477 68.8699 107.004L68.8699 104.463C68.8674 104.198 68.8122 103.936 68.7076 103.692C68.6028 103.448 68.4505 103.228 68.2597 103.043C68.0309 102.834 67.7627 102.672 67.4711 102.568C67.1792 102.463 66.8696 102.417 66.56 102.433C66.3979 102.433 66.2376 102.467 66.09 102.533C66.0274 102.519 65.9623 102.519 65.8996 102.533L65.6698 102.633L64.35 103.103L60.6799 104.603C57.7532 105.77 55.7535 106.604 54.6801 107.104L46.9604 110.354L45.0306 111.154C44.3683 111.389 43.7235 111.67 43.1008 111.994C42.6888 112.267 42.3239 112.605 42.0206 112.994C41.7635 113.341 41.6295 113.763 41.6404 114.194L41.6404 117.265C41.672 117.717 41.8242 118.152 42.081 118.525C42.3378 118.898 42.6899 119.195 43.1008 119.385Z"   fill="#00C650" >
</path>
<path d="M75.5802 131.74C76.0918 131.745 76.5966 131.623 77.049 131.384C77.5014 131.144 77.8867 130.796 78.1698 130.37C78.3746 130.027 78.5454 129.666 78.6799 129.29L79.0601 128.35L80.9399 124.25L86.2599 112.441L90.2601 103.691L90.7799 102.561C91.8576 100.344 92.7996 98.0634 93.6001 95.7316C93.5987 95.4637 93.5367 95.1997 93.419 94.9588C93.3012 94.7184 93.1306 94.5071 92.9199 94.3415C92.4385 93.9403 91.8262 93.7302 91.2 93.7515L88.85 93.7515C88.3434 93.7344 87.8408 93.8522 87.3946 94.0927C86.9481 94.3335 86.574 94.6887 86.31 95.1214C86.1098 95.4402 85.9357 95.7745 85.7899 96.1217L85.41 97.0616L83.5299 101.151L78.2099 112.961L77.5101 114.471L74.21 121.72C71.95 126.72 70.8201 129.34 70.8201 129.72C70.8226 129.989 70.8861 130.253 71.0057 130.494C71.1251 130.735 71.2975 130.945 71.5101 131.11C71.9873 131.511 72.5967 131.722 73.2199 131.7L75.5802 131.74Z"   fill="#00C650" >
</path>
<path d="M112.99 115.734L97.1801 122.185C96.6971 122.365 96.2793 122.685 95.9801 123.105C95.7154 123.483 95.5757 123.934 95.5801 124.395L95.5801 126.935C95.5798 127.204 95.6337 127.47 95.7386 127.718C95.8434 127.965 95.997 128.189 96.19 128.376C96.4212 128.594 96.6951 128.763 96.9944 128.872C97.2939 128.98 97.6123 129.026 97.93 129.006L98.8501 128.926L99.0402 128.786C99.1301 128.726 99.4301 128.565 99.9301 128.315L117.35 121.025L119.35 120.225C120.11 119.905 120.79 119.605 121.35 119.325C121.771 119.096 122.133 118.775 122.41 118.384C122.665 118.044 122.806 117.63 122.81 117.204L122.81 114.104C122.793 113.642 122.648 113.194 122.389 112.811C122.132 112.427 121.772 112.124 121.35 111.934C120.766 111.601 120.154 111.32 119.52 111.094L118.44 110.664C118.12 110.544 117.87 110.444 117.68 110.383C114.727 109.097 112.107 107.983 109.82 107.043C105.627 105.29 103.627 104.456 103.82 104.543L100.1 103.043C99.1902 102.693 98.7603 102.573 98.8303 102.573L98.6203 102.473C98.5343 102.457 98.4463 102.457 98.3603 102.473C98.2277 102.403 98.0795 102.369 97.93 102.373C97.2991 102.344 96.6818 102.563 96.2102 102.983C96.0119 103.162 95.8535 103.382 95.7451 103.626C95.6364 103.871 95.5804 104.135 95.5801 104.403L95.5801 106.983C95.5882 107.449 95.7345 107.901 96.0002 108.283C96.2889 108.723 96.6984 109.071 97.1801 109.283L112.99 115.734Z"   fill="#00C650" >
</path>
</svg>
