<svg xmlns="http://www.w3.org/2000/svg" xmlns:xlink="http://www.w3.org/1999/xlink" width="200.010009765625" height="240.01214599609375" viewBox="0 0 200.010009765625 240.01214599609375" fill="none">
<g  opacity="0.3">
<g opacity="0.3">
<path d="M7.88606 7.88111C5.38508 10.3785 3.40206 13.3469 2.0488 16.6113C0.697183 19.8778 0 23.3777 0 26.9121L0 189.132C0 192.667 0.697183 196.166 2.0488 199.433C3.40206 202.697 5.38508 205.666 7.88606 208.163C10.3854 210.663 13.3534 212.644 16.6189 213.996C19.8845 215.349 23.3852 216.044 26.9205 216.042L137.519 216.042C141.055 216.042 144.554 215.346 147.818 213.994C151.083 212.642 154.05 210.658 156.549 208.161C159.047 205.661 161.03 202.695 162.381 199.431C163.734 196.164 164.43 192.667 164.43 189.132L164.43 49.2528L139.67 49.2528C134.201 49.2441 128.961 47.0686 125.095 43.1993C121.229 39.3322 119.056 34.0911 119.051 28.6231L119.051 0.00213623L26.9205 0.00213623C23.3852 -2.41695e-05 19.8845 0.695625 16.6189 2.04804C13.3534 3.40045 10.3854 5.38153 7.88606 7.88111Z"   fill="#0072FF" >
</path>
</g>
</g>
<path d="M119.05 0.00213623L119.05 28.6223C119.055 34.09 121.229 39.3327 125.095 43.2003C128.96 47.0679 134.202 49.2443 139.67 49.2521L164.43 49.2521L119.05 0.00213623Z"   fill="#0072FF" >
</path>
<path d="M42.85 186.672L42.85 223.952C42.85 232.822 50.04 240.012 58.9102 240.012L183.95 240.012C192.82 240.012 200.01 232.822 200.01 223.952L200.01 186.672C200.01 177.803 192.82 170.612 183.95 170.612L58.9102 170.612C50.04 170.612 42.85 177.803 42.85 186.672Z"   fill="#0072FF" >
</path>
<path d="M81.41 213.382L81.41 220.652L88.94 220.652L88.94 213.382L81.41 213.382Z"   fill="#FFFFFF" >
</path>
<path d="M92.72 190.582L92.72 220.652L99.99 220.652L99.99 190.582L92.72 190.582Z"   fill="#FFFFFF" >
</path>
<path d="M125.412 216.572C126.205 215.28 126.631 213.797 126.643 212.282C126.716 210.595 126.254 208.929 125.322 207.521C124.508 206.358 123.428 205.405 122.172 204.741C120.651 203.974 119.072 203.325 117.451 202.802C116.121 202.322 115.1 201.921 114.39 201.611C113.727 201.332 113.128 200.92 112.63 200.402C112.163 199.915 111.908 199.265 111.92 198.591C111.895 198.22 111.953 197.848 112.09 197.502C112.226 197.157 112.438 196.846 112.71 196.591C113.288 196.116 114.023 195.873 114.77 195.911C115.202 195.888 115.634 195.954 116.04 196.103C116.446 196.253 116.817 196.484 117.131 196.782C117.747 197.425 118.131 198.255 118.221 199.142L126.092 199.142C126.021 197.878 125.688 196.642 125.112 195.514C124.537 194.387 123.733 193.391 122.752 192.591C120.442 190.893 117.613 190.052 114.75 190.212C112.867 190.165 110.995 190.505 109.249 191.211C107.735 191.837 106.428 192.877 105.479 194.211C104.552 195.578 104.076 197.201 104.118 198.851C104.042 200.516 104.497 202.163 105.419 203.552C106.216 204.696 107.28 205.629 108.519 206.272C110.029 207.005 111.586 207.636 113.18 208.162C114.48 208.622 115.5 209.011 116.241 209.331C116.933 209.628 117.562 210.056 118.091 210.591C118.339 210.843 118.533 211.142 118.662 211.47C118.791 211.798 118.852 212.149 118.841 212.502C118.853 212.873 118.787 213.243 118.647 213.587C118.508 213.932 118.298 214.243 118.031 214.502C117.423 215.037 116.63 215.313 115.82 215.272C114.837 215.302 113.88 214.943 113.16 214.272C112.431 213.564 111.998 212.606 111.95 211.591L104.198 211.591C104.237 212.935 104.579 214.253 105.2 215.447C105.82 216.64 106.701 217.677 107.779 218.481C110.208 220.201 113.137 221.07 116.111 220.952C118.084 221.007 120.044 220.6 121.832 219.761C123.303 219.059 124.545 217.953 125.412 216.572Z"   fill="#FFFFFF" >
</path>
<path d="M152.656 219.022C154.951 217.715 156.848 215.811 158.147 213.512C159.511 211.07 160.202 208.309 160.147 205.512C160.19 202.736 159.5 199.997 158.147 197.573C156.852 195.285 154.962 193.391 152.676 192.093C150.331 190.757 147.674 190.067 144.976 190.093C142.283 190.069 139.633 190.759 137.294 192.093C135.006 193.391 133.112 195.284 131.814 197.573C130.452 199.994 129.762 202.735 129.814 205.512C129.754 208.309 130.445 211.072 131.814 213.512C133.105 215.813 135 217.718 137.294 219.022C139.633 220.355 142.283 221.045 144.976 221.021C147.668 221.047 150.318 220.356 152.656 219.022ZM144.955 214.142C146.012 214.186 147.066 213.999 148.043 213.595C149.021 213.191 149.898 212.579 150.616 211.802C152.098 210.052 152.857 207.802 152.736 205.512C152.857 203.223 152.107 200.972 150.636 199.212C149.918 198.431 149.037 197.817 148.055 197.412C147.074 197.008 146.016 196.824 144.955 196.873C143.9 196.829 142.848 197.013 141.871 197.414C140.894 197.814 140.016 198.421 139.295 199.192L139.275 199.192C137.798 200.957 137.048 203.215 137.174 205.512C137.055 207.799 137.806 210.046 139.275 211.802C139.993 212.583 140.874 213.197 141.856 213.601C142.837 214.005 143.895 214.19 144.955 214.142Z" fill-rule="evenodd"  fill="#FFFFFF" >
</path>
<path d="M78.4999 143.402C87.3551 143.392 95.844 139.869 102.105 133.608C108.367 127.346 111.889 118.857 111.9 110.002C111.882 101.154 108.355 92.6725 102.095 86.4196C95.8333 80.166 87.3487 76.6499 78.4999 76.642L78.4999 76.6022C69.6441 76.61 61.1531 80.1312 54.8917 86.3933C48.6295 92.6554 45.1077 101.146 45.0999 110.002C45.1105 118.857 48.6331 127.346 54.8945 133.608C61.1559 139.869 69.6448 143.392 78.4999 143.402ZM78.4999 145.602C87.9276 145.591 96.9662 141.841 103.633 135.175C110.299 128.508 114.049 119.47 114.06 110.042C114.049 100.614 110.299 91.5758 103.633 84.909C96.9662 78.2429 87.9276 74.4928 78.4999 74.4821C69.0723 74.4928 60.0336 78.2429 53.3668 84.909C46.7008 91.5758 42.9506 100.614 42.9399 110.042C42.9506 119.47 46.7008 128.508 53.3668 135.175C60.0336 141.841 69.0723 145.591 78.4999 145.602Z" fill-rule="evenodd"  fill="#0072FF" >
</path>
<path d="M44 109.942C43.9962 115.644 45.4048 121.258 48.1 126.282L48.6401 127.282L73.0099 113.212C72.4599 112.246 72.1703 111.154 72.17 110.042C72.17 108.349 72.842 106.725 74.0381 105.527C75.2342 104.329 76.8571 103.655 78.55 103.652L78.55 75.3722L77.7999 75.3421C71.897 75.4704 66.1258 77.1127 61.0401 80.1123C55.9809 83.0978 51.7599 87.3158 48.77 92.3722C45.7652 97.4592 44.1223 103.235 44 109.142C44 109.402 44 109.662 44 109.942Z"   fill="#0072FF" >
</path>
<path d="M84.0099 106.832C84.5846 107.804 84.8853 108.913 84.8801 110.042C84.8773 111.725 84.2113 113.339 83.0263 114.533C81.8412 115.728 80.2326 116.407 78.55 116.422L78.55 144.572C84.5317 144.585 90.413 143.034 95.6099 140.072C101.07 136.983 105.585 132.465 108.67 127.002C111.611 121.819 113.154 115.961 113.15 110.002C113.15 109.702 113.15 109.442 113.14 109.182C113.015 103.378 111.426 97.6986 108.52 92.6721L84.0099 106.832Z"   fill="#0072FF" >
</path>
<path d="M76.9472 111.595C77.3593 112.007 77.9173 112.239 78.5 112.242C79.0827 112.239 79.6408 112.007 80.0528 111.595C80.4648 111.183 80.6975 110.625 80.7001 110.042C80.7001 109.753 80.6432 109.467 80.5326 109.2C80.4221 108.933 80.26 108.691 80.0557 108.486C79.8514 108.282 79.6088 108.12 79.3419 108.009C79.075 107.899 78.7889 107.842 78.5 107.842C77.9166 107.842 77.3571 108.074 76.9445 108.486C76.5319 108.899 76.3 109.459 76.3 110.042C76.3027 110.625 76.5352 111.183 76.9472 111.595ZM81.5837 106.956C80.7663 106.136 79.6572 105.675 78.5 105.672C77.3428 105.675 76.2339 106.136 75.4165 106.956C74.5991 107.775 74.14 108.885 74.14 110.042C74.14 111.198 74.5995 112.307 75.4171 113.125C76.2348 113.943 77.3437 114.402 78.5 114.402C79.6564 114.402 80.7654 113.943 81.5831 113.125C82.4007 112.307 82.86 111.198 82.86 110.042C82.86 108.885 82.401 107.775 81.5837 106.956Z" fill-rule="evenodd"  fill="#0072FF" >
</path>
</svg>
