<svg xmlns="http://www.w3.org/2000/svg" xmlns:xlink="http://www.w3.org/1999/xlink" width="200" height="240" viewBox="0 0 200 240" fill="none">
<g  opacity="0.3">
<g opacity="0.3">
<path d="M139.709 49.2394C134.242 49.235 128.999 47.0599 125.132 43.1957C121.265 39.3293 119.088 34.0891 119.08 28.62L119.08 0L26.9106 0C19.7731 0 12.9283 2.83608 7.88229 7.88184C2.8346 12.9276 0 19.7726 0 26.9093L0 189.13C0.0098652 196.26 2.85104 203.094 7.89545 208.133C12.9415 213.17 19.7797 216 26.9106 216L137.509 216C144.647 216 151.492 213.164 156.538 208.118C161.585 203.072 164.42 196.227 164.42 189.091L164.42 49.2394L139.709 49.2394Z"   fill="#FF3E4C" >
</path>
</g>
</g>
<path d="M119.08 0L119.08 28.6198C119.088 34.0879 121.264 39.33 125.132 43.1953C128.999 47.0611 134.242 49.2346 139.71 49.24L164.42 49.24L119.08 0Z"   fill="#FF3E4C" >
</path>
<path d="M42.84 186.66L42.84 223.94C42.84 232.81 50.03 240 58.9001 240L183.94 240C192.81 240 200 232.81 200 223.94L200 186.66C200 177.79 192.81 170.6 183.94 170.6L58.9001 170.6C50.03 170.6 42.84 177.79 42.84 186.66Z"   fill="#FF3E4C" >
</path>
<path d="M59.1801 213.37L59.1801 220.64L66.7101 220.64L66.7101 213.37L59.1801 213.37Z"   fill="#FFFFFF" >
</path>
<path d="M78.9799 214.373C76.8533 214.373 75.7899 212.966 75.7899 210.152L68.6 210.152C68.6 213.623 69.5599 216.303 71.49 218.154C72.5465 219.112 73.7822 219.853 75.126 220.332C76.4698 220.81 77.8952 221.018 79.3199 220.944C80.6171 221.019 81.9163 220.832 83.1396 220.394C84.363 219.956 85.4853 219.275 86.4399 218.394C88.1599 216.683 89.02 214.263 89.02 211.112L89.02 190.57L81.74 190.59L81.74 211.133C81.74 213.293 80.8199 214.373 78.9799 214.373Z"   fill="#FFFFFF" >
</path>
<path d="M106.84 198.57L103.05 209.62L110.58 209.62L106.84 198.57ZM112.45 215.15L114.29 220.64L122.03 220.64L111.03 190.78L102.65 190.78L91.65 220.64L99.31 220.64L101.18 215.15L112.45 215.15Z" fill-rule="evenodd"  fill="#FFFFFF" >
</path>
<path d="M122.71 190.57L133.12 220.64L142.52 220.64L152.99 190.57L145.2 190.57L137.84 213.2L130.49 190.57L122.71 190.57Z"   fill="#FFFFFF" >
</path>
<path d="M172.55 209.62L168.81 198.57L165.02 209.62L172.55 209.62ZM153.62 220.64L161.28 220.64L163.15 215.15L174.42 215.15L176.26 220.64L184 220.64L173 190.78L164.62 190.78L153.62 220.64Z" fill-rule="evenodd"  fill="#FFFFFF" >
</path>
<path d="M67.11 146.46L65.6 146.46C59.5999 146.46 56.5999 143.07 56.5999 136.29L56.5999 119.29C56.4332 113.383 54.0999 109.69 49.6 108.21L49.6 107.81C54.1933 106.223 56.5266 102.43 56.5999 96.4303L56.5999 79.7101C56.5999 72.9299 59.5999 69.5402 65.6 69.5402L67.11 69.5402L67.11 61.8799L64.8999 61.8799C59.7932 61.8734 55.7299 63.3662 52.7099 66.36C49.6899 69.3529 48.18 73.3995 48.18 78.4996L48.18 94.8195C48.18 101.06 45.6965 104.18 40.73 104.18L40.73 111.84C45.6965 111.84 48.18 114.96 48.18 121.2L48.18 137.52C48.1734 142.613 49.6834 146.657 52.7099 149.65C55.7365 152.643 59.7998 154.14 64.8999 154.14L67.11 154.14L67.11 146.46Z"   fill="#FF3E4C" >
</path>
<path d="M107.81 96.4503C107.903 102.423 110.237 106.217 114.81 107.83L114.81 108.23C110.277 109.703 107.943 113.397 107.81 119.31L107.81 136.309C107.81 143.09 104.81 146.48 98.8101 146.48L97.3 146.48L97.3 154.14L99.5202 154.16C104.614 154.153 108.673 152.657 111.7 149.67C114.727 146.683 116.24 142.64 116.24 137.54L116.24 121.22C116.24 114.98 118.723 111.86 123.69 111.86L123.69 104.2C118.723 104.2 116.24 101.08 116.24 94.8395L116.24 78.5196C116.234 73.413 114.72 69.3665 111.7 66.3801C108.68 63.3936 104.62 61.8999 99.5202 61.8999L97.3 61.8999L97.3 69.5602L98.8101 69.5602C104.81 69.5602 107.81 72.9499 107.81 79.7301L107.81 96.4503Z"   fill="#FF3E4C" >
</path>
<path d="M81.38 72.9099C77.7184 72.9099 74.75 75.8784 74.75 79.54C74.75 83.2017 77.7184 86.1699 81.38 86.1699C85.0416 86.1699 88.01 83.2017 88.01 79.54C88.01 75.8784 85.0416 72.9099 81.38 72.9099Z"   fill="#FF3E4C" >
</path>
<path d="M81.38 101.38C77.7184 101.38 74.75 104.348 74.75 108.01C74.75 111.672 77.7184 114.64 81.38 114.64C85.0416 114.64 88.01 111.672 88.01 108.01C88.01 104.348 85.0416 101.38 81.38 101.38Z"   fill="#FF3E4C" >
</path>
<path d="M81.38 129.85C77.7184 129.85 74.75 132.818 74.75 136.48C74.75 140.142 77.7184 143.11 81.38 143.11C85.0416 143.11 88.01 140.142 88.01 136.48C88.01 132.818 85.0416 129.85 81.38 129.85Z"   fill="#FF3E4C" >
</path>
</svg>
