<svg xmlns="http://www.w3.org/2000/svg" xmlns:xlink="http://www.w3.org/1999/xlink" width="200.001708984375" height="240" viewBox="0 0 200.001708984375 240" fill="none">
<g  opacity="0.3">
<g opacity="0.3">
<path d="M2.04709 16.6186C0.695561 19.8852 6.47844e-05 23.3853 0.00170898 26.9198L0.00170898 189.13C6.47844e-05 192.665 0.695561 196.165 2.04709 199.431C3.39863 202.696 5.38153 205.664 7.87907 208.164C10.3783 210.664 13.346 212.647 16.6114 214C19.8768 215.354 23.3773 216.05 26.9123 216.05L137.511 216.05C141.046 216.05 144.547 215.354 147.812 214C151.077 212.647 154.045 210.664 156.543 208.164C159.042 205.664 161.025 202.696 162.376 199.431C163.728 196.165 164.423 192.665 164.422 189.13L164.422 49.2508L139.672 49.24C134.205 49.2378 128.961 47.0643 125.094 43.197C121.227 39.3319 119.055 34.0884 119.052 28.6201L119.052 0L26.9123 0C23.3773 0 19.8768 0.695681 16.6114 2.05031C13.346 3.40279 10.3783 5.38613 7.87907 7.88583C5.38153 10.3855 3.39863 13.3519 2.04709 16.6186Z"   fill="#00C650" >
</path>
</g>
</g>
<path d="M119.052 0L119.052 28.6198C119.054 34.0879 121.228 39.3314 125.094 43.1978C128.961 47.0641 134.204 49.2375 139.672 49.24L164.422 49.24L119.052 0Z"   fill="#00C650" >
</path>
<path d="M42.8418 186.66L42.8418 223.94C42.8418 232.809 50.0319 240 58.902 240L183.942 240C192.812 240 200.002 232.809 200.002 223.94L200.002 186.66C200.002 177.791 192.812 170.6 183.942 170.6L58.902 170.6C50.0319 170.6 42.8418 177.791 42.8418 186.66Z"   fill="#00C650" >
</path>
<path d="M76.6917 213.37L76.6917 220.65L84.2216 220.65L84.2216 213.37L76.6917 213.37Z"   fill="#FFFFFF" >
</path>
<path d="M92.6834 220.337C94.0256 220.814 95.449 221.02 96.8717 220.944C98.1704 221.019 99.4712 220.832 100.696 220.394C101.921 219.956 103.045 219.275 104.002 218.393C105.715 216.7 106.572 214.276 106.572 211.123L106.572 190.58L99.3015 190.6L99.3015 211.143C99.3015 213.293 98.3816 214.373 96.5315 214.373C94.4115 214.373 93.3415 212.973 93.3415 210.163L86.1516 210.163C86.1583 213.636 87.1248 216.303 89.0515 218.163C90.1066 219.121 91.3411 219.859 92.6834 220.337Z"   fill="#FFFFFF" >
</path>
<path d="M131.301 193.23C129.428 191.463 126.708 190.58 123.141 190.58L111.362 190.58L111.362 220.65L118.632 220.65L118.632 210.1L123.141 210.1C125.213 210.16 127.269 209.729 129.141 208.84C130.695 208.088 131.99 206.891 132.861 205.4C133.707 203.871 134.138 202.147 134.111 200.4C134.175 199.074 133.958 197.75 133.474 196.514C132.989 195.278 132.249 194.159 131.301 193.23ZM118.632 196.4L118.632 204.23L122.331 204.23C125.251 204.257 126.711 202.98 126.711 200.4C126.711 197.733 125.251 196.4 122.331 196.4L118.632 196.4Z" fill-rule="evenodd"  fill="#FFFFFF" >
</path>
<path d="M151.834 220.904C154.127 220.945 156.4 220.467 158.483 219.504C160.325 218.645 161.958 217.396 163.272 215.844C164.485 214.405 165.408 212.744 165.992 210.954L165.992 203.764L150.724 203.764L150.724 208.994L159.913 208.994C159.467 210.618 158.492 212.047 157.143 213.055C155.822 214.012 154.225 214.514 152.594 214.484C151.452 214.556 150.309 214.389 149.236 213.992C148.163 213.597 147.185 212.981 146.364 212.184C144.905 210.651 144.175 208.454 144.175 205.594C144.051 203.315 144.798 201.073 146.264 199.324C146.957 198.556 147.812 197.95 148.765 197.549C149.719 197.148 150.75 196.962 151.784 197.004C153.115 196.978 154.428 197.324 155.573 198.004C156.59 198.581 157.412 199.448 157.933 200.494L165.632 200.494C165.132 197.506 163.503 194.825 161.082 193.004C158.351 191.063 155.051 190.088 151.703 190.234C148.95 190.171 146.228 190.837 143.815 192.164C141.584 193.431 139.767 195.317 138.585 197.594C137.321 200.051 136.685 202.782 136.735 205.544C136.677 208.323 137.313 211.073 138.585 213.544C139.769 215.827 141.594 217.714 143.835 218.974C146.284 220.312 149.044 220.978 151.834 220.904Z"   fill="#FFFFFF" >
</path>
<path d="M104.301 139.2C106.714 139.197 109.026 138.237 110.73 136.531C112.435 134.825 113.392 132.512 113.392 130.1L113.392 85.9302C113.392 83.5182 112.435 81.2053 110.73 79.499C109.026 77.7928 106.714 76.8329 104.301 76.8298L60.1322 76.8298C57.719 76.8329 55.4056 77.792 53.7003 79.4983C51.9942 81.2045 51.0345 83.5174 51.0314 85.9302L51.0314 130.1C51.0345 132.513 51.9942 134.825 53.7003 136.532C55.4056 138.238 57.719 139.197 60.1322 139.2L104.301 139.2ZM60.1322 146.41L104.301 146.41C108.625 146.405 112.769 144.685 115.825 141.627C118.881 138.568 120.599 134.423 120.602 130.1L120.602 85.9302C120.599 81.6069 118.881 77.4618 115.825 74.4032C112.769 71.3455 108.625 69.6254 104.301 69.62L60.1322 69.62C55.8079 69.6254 51.6626 71.3455 48.6044 74.4032C45.547 77.4603 43.8272 81.6061 43.8218 85.9302L43.8218 130.1C43.8272 134.424 45.547 138.57 48.6044 141.627C51.6626 144.685 55.8079 146.405 60.1322 146.41Z" fill-rule="evenodd"  fill="#00C650" >
</path>
<path d="M51.1516 139.08C53.5329 141.462 56.7631 142.8 60.1316 142.8L104.302 142.8C107.669 142.798 110.898 141.458 113.279 139.077C115.66 136.696 116.999 133.467 117.002 130.1L117.002 121.7C115.991 121.501 114.944 121.676 114.052 122.19C110.742 124.4 103.001 121.81 98.2212 121.08C93.4418 120.35 91.9613 125.5 91.9613 125.5L86.4416 111.5L78.3416 119.22C65.2715 114 54.5013 114.48 47.4316 116L47.4316 130.1C47.4316 133.468 48.7695 136.698 51.1516 139.08Z"   fill="#00C650" >
</path>
<path d="M101.532 85.13C98.82 85.13 96.6218 87.3283 96.6218 90.0401C96.6218 92.7518 98.82 94.95 101.532 94.95C104.243 94.95 106.442 92.7518 106.442 90.0401C106.442 87.3283 104.243 85.13 101.532 85.13Z"   fill="#00C650" >
</path>
</svg>
