<svg xmlns="http://www.w3.org/2000/svg" xmlns:xlink="http://www.w3.org/1999/xlink" width="200" height="240.010009765625" viewBox="0 0 200 240.010009765625" fill="none">
<g  opacity="0.3">
<g opacity="0.3">
<path d="M119.051 28.62L119.051 0L26.9106 0C19.7727 0 12.9291 2.83608 7.88113 7.88184C2.83477 12.9276 0 19.7726 0 26.9093L0 189.13C0.0098658 196.26 2.85122 203.094 7.89593 208.133C12.9406 213.17 19.7793 216 26.9106 216L137.51 216C141.045 216.002 144.545 215.307 147.811 213.954C151.077 212.602 154.045 210.622 156.544 208.122C159.045 205.623 161.028 202.656 162.381 199.39C163.733 196.126 164.43 192.624 164.43 189.091L164.43 49.2091L139.67 49.2502C134.201 49.2415 128.961 47.0664 125.095 43.1978C121.229 39.3314 119.056 34.0891 119.051 28.62Z"   fill="#A140FF" >
</path>
</g>
</g>
<path d="M119.05 0L119.05 28.6202C119.055 34.0879 121.229 39.3306 125.095 43.1982C128.96 47.0658 134.202 49.2421 139.67 49.25L164.43 49.25L119.05 0Z"   fill="#A140FF" >
</path>
<path d="M42.84 186.67L42.84 223.95C42.84 232.819 50.0301 240.01 58.9002 240.01L183.94 240.01C192.81 240.01 200 232.819 200 223.95L200 186.67C200 177.801 192.81 170.61 183.94 170.61L58.9002 170.61C50.0301 170.61 42.84 177.801 42.84 186.67Z"   fill="#A140FF" >
</path>
<path d="M67.69 213.38L67.69 220.65L75.21 220.65L75.21 213.38L67.69 213.38Z"   fill="#FFFFFF" >
</path>
<path d="M79 220.67L86.2698 220.67L86.2698 201.95L92.7799 220.67L99.07 220.67L105.54 202L105.54 220.65L112.81 220.65L112.81 190.79L104.01 190.81L96.0101 211.61L87.89 190.81L79 190.81L79 220.67Z"   fill="#FFFFFF" >
</path>
<path d="M137.558 218.725C139.854 217.52 141.745 215.666 142.997 213.395C144.284 210.982 144.931 208.28 144.877 205.546C144.931 202.816 144.28 200.12 142.987 197.716C141.737 195.465 139.852 193.632 137.568 192.446C134.971 191.143 132.093 190.501 129.189 190.576L117.83 190.576L117.83 220.645L129.199 220.645C132.102 220.715 134.976 220.055 137.558 218.725ZM135.168 211.885C135.982 211.052 136.613 210.057 137.02 208.965C137.426 207.874 137.599 206.709 137.528 205.546C137.599 204.382 137.426 203.217 137.02 202.126C136.613 201.034 135.982 200.039 135.168 199.206C133.347 197.615 130.972 196.807 128.559 196.956L125.099 196.956L125.099 214.135L128.549 214.135C130.962 214.284 133.337 213.476 135.158 211.885L135.168 211.885Z" fill-rule="evenodd"  fill="#FFFFFF" >
</path>
<path d="M160.921 196.41L156.24 196.41L156.28 202.87L161.001 202.87C163.527 202.87 164.791 201.793 164.791 199.64C164.791 197.48 163.501 196.41 160.921 196.41ZM170.821 202.77C171.81 201.472 172.319 199.871 172.261 198.24C172.324 197.159 172.129 196.079 171.693 195.088C171.256 194.097 170.591 193.224 169.751 192.54C168.078 191.207 165.711 190.54 162.651 190.54L149 190.54L149 220.61L163.001 220.61C166.211 220.61 168.661 219.89 170.381 218.44C171.236 217.7 171.912 216.775 172.357 215.736C172.803 214.696 173.006 213.569 172.951 212.44C172.977 210.755 172.414 209.115 171.361 207.8C170.274 206.432 168.742 205.487 167.031 205.13C168.526 204.797 169.863 203.965 170.821 202.77ZM156.3 214.74L161.491 214.74C164.171 214.74 165.511 213.633 165.511 211.42C165.536 210.946 165.454 210.472 165.271 210.033C165.087 209.595 164.807 209.204 164.451 208.89C163.594 208.233 162.529 207.907 161.451 207.97L156.3 207.97L156.3 214.74Z" fill-rule="evenodd"  fill="#FFFFFF" >
</path>
<path d="M65.1522 79.3327C64.2251 81.5732 63.7485 83.9748 63.75 86.3997C63.7493 90.1616 64.8981 93.8337 67.0428 96.9239C69.1876 100.014 72.2259 102.375 75.75 103.69L75.75 109.6L77.7499 111.6L77.7499 118L75.86 119.1L75.86 123.83L77.7499 124.93L77.7499 128.13L75.4999 129.43L75.4999 133.33L77.7499 134.64L77.7499 139.08L75.6801 140.28L75.6801 143.74L81.2001 148.09L87.1999 148.09L89.8599 144.01L89.8599 103.19C93.0885 101.723 95.8261 99.3583 97.7466 96.3772C99.6671 93.3968 100.689 89.9259 100.69 86.3796C100.685 81.4834 98.7351 76.7885 95.2698 73.3288C91.8041 69.8691 87.1068 67.9276 82.21 67.93C79.7849 67.93 77.3838 68.4077 75.1434 69.336C72.903 70.2643 70.8676 71.6254 69.1532 73.34C67.4388 75.0554 66.0794 77.0915 65.1522 79.3327ZM82.6799 82.8798C83.9133 82.883 85.0976 82.3973 85.9746 81.5299C86.8515 80.6626 87.3495 79.4835 87.3598 78.2498C87.3598 77.6358 87.239 77.0282 87.0037 76.4606C86.7684 75.8931 86.4234 75.3777 85.9886 74.944C85.5538 74.5103 85.0378 74.1664 84.4704 73.9324C83.9026 73.6983 83.2942 73.5789 82.6799 73.5797C81.4406 73.5797 80.2515 74.0719 79.3741 74.9472C78.4968 75.8225 78.0026 77.0105 78 78.2498C78 79.4915 78.4931 80.6818 79.3708 81.5588C80.2485 82.4365 81.4387 82.9303 82.6799 82.9303L82.6799 82.8798Z" fill-rule="evenodd"  fill="#A140FF" >
</path>
</svg>
