<svg xmlns="http://www.w3.org/2000/svg" xmlns:xlink="http://www.w3.org/1999/xlink" width="200.010009765625" height="240.002197265625" viewBox="0 0 200.010009765625 240.002197265625" fill="none">
<g  opacity="0.3">
<g opacity="0.3">
<path d="M26.9205 216.002L137.519 216.002C144.657 216.002 151.501 213.166 156.549 208.12C161.595 203.075 164.43 196.23 164.43 189.093L164.43 49.2416L139.67 49.2416C134.203 49.2372 128.961 47.0621 125.095 43.1979C121.229 39.3315 119.056 34.0892 119.051 28.6222L119.051 0.00219727L26.9205 0.00219727C23.3852 3.72657e-05 19.8845 0.695557 16.6189 2.04772C13.3534 3.39988 10.3854 5.3806 7.88606 7.87972C5.38508 10.3788 3.40206 13.3467 2.0488 16.6126C0.695539 19.8764 0 23.3777 0 26.9115L0 189.132C0.0098658 196.264 2.85122 203.101 7.89922 208.138C12.9472 213.177 19.7875 216.004 26.9205 216.002Z"   fill="#005FAD" >
</path>
</g>
</g>
<path d="M119.05 0.00219727L119.05 28.622C119.055 34.0896 121.23 39.3312 125.096 43.197C128.961 47.0628 134.203 49.2368 139.67 49.2422L164.43 49.2422L119.05 0.00219727Z"   fill="#005FAD" >
</path>
<path d="M42.85 186.662L42.85 223.942C42.85 232.812 50.04 240.002 58.9102 240.002L183.95 240.002C192.82 240.002 200.01 232.812 200.01 223.942L200.01 186.662C200.01 177.792 192.82 170.602 183.95 170.602L58.9102 170.602C50.04 170.602 42.85 177.792 42.85 186.662Z"   fill="#005FAD" >
</path>
<path d="M75.86 213.372L75.86 220.642L83.34 220.642L83.34 213.372L75.86 213.372Z"   fill="#FFFFFF" >
</path>
<path d="M87.08 190.812L87.08 220.672L94.3599 220.672L94.3599 201.962L100.86 220.672L107.2 220.672L113.66 202.002L113.66 220.642L120.94 220.642L120.94 190.782L112.1 190.812L104.1 211.612L95.97 190.812L87.08 190.812Z"   fill="#FFFFFF" >
</path>
<path d="M125.96 190.572L125.96 220.642L133.23 220.642L133.23 190.572L125.96 190.572Z"   fill="#FFFFFF" >
</path>
<path d="M145.519 214.128L148.959 214.128C151.375 214.276 153.752 213.468 155.578 211.878C156.391 211.043 157.02 210.048 157.427 208.957C157.833 207.865 158.007 206.701 157.938 205.538C158.006 204.375 157.832 203.211 157.426 202.119C157.019 201.028 156.39 200.033 155.578 199.198C153.752 197.608 151.375 196.8 148.959 196.948L145.519 196.948L145.519 214.128ZM149.599 190.569L138.25 190.569L138.25 220.637L149.599 220.637C152.5 220.707 155.374 220.05 157.958 218.727C160.254 217.518 162.145 215.661 163.397 213.388C164.697 210.979 165.351 208.275 165.296 205.538C165.353 202.811 164.699 200.115 163.397 197.718C162.154 195.46 160.268 193.622 157.978 192.439C155.382 191.133 152.503 190.491 149.599 190.569Z" fill-rule="evenodd"  fill="#FFFFFF" >
</path>
<path d="M62.8514 74.8567C60.4455 77.2603 59.0925 80.5215 59.09 83.9225L59.09 131.922L70.0897 131.922L70.0897 87.6624C70.0928 86.179 70.684 84.757 71.7338 83.7091C72.7836 82.6611 74.2063 82.0724 75.6901 82.0724L103.69 82.0724C105.172 82.0724 106.595 82.6611 107.643 83.7097C108.691 84.7576 109.28 86.1796 109.28 87.6624L109.28 131.922L120.23 131.922L120.15 83.9225C120.15 80.5221 118.799 77.2615 116.395 74.8573C113.991 72.4531 110.73 71.1023 107.33 71.1023L71.9203 71.1023C68.519 71.1023 65.2572 72.4525 62.8514 74.8567Z"   fill="#005FAD" >
</path>
<path d="M107.25 118.942C100.081 118.942 94.27 124.754 94.27 131.922C94.27 139.091 100.081 144.902 107.25 144.902C114.419 144.902 120.23 139.091 120.23 131.922C120.23 124.754 114.419 118.942 107.25 118.942Z"   fill="#005FAD" >
</path>
<path d="M57.18 118.942C50.0114 118.942 44.2 124.754 44.2 131.922C44.2 139.091 50.0114 144.902 57.18 144.902C64.3486 144.902 70.16 139.091 70.16 131.922C70.16 124.754 64.3486 118.942 57.18 118.942Z"   fill="#005FAD" >
</path>
</svg>
