<svg xmlns="http://www.w3.org/2000/svg" xmlns:xlink="http://www.w3.org/1999/xlink" width="200" height="240" viewBox="0 0 200 240" fill="none">
<g  opacity="0.3">
<g opacity="0.3">
<path d="M119.05 0L26.9106 0C19.7731 0 12.9283 2.83608 7.88229 7.88184C2.8346 12.9276 0 19.7726 0 26.9093L0 189.13C0.0098652 196.26 2.85104 203.094 7.89545 208.133C12.9415 213.17 19.7797 216 26.9106 216L137.509 216C141.044 216.002 144.543 215.307 147.809 213.954C151.076 212.602 154.042 210.619 156.541 208.12C159.04 205.621 161.021 202.656 162.375 199.39C163.726 196.124 164.422 192.624 164.42 189.091L164.42 49.2394L139.67 49.2394C134.203 49.235 128.961 47.0599 125.096 43.1957C121.23 39.3293 119.055 34.087 119.05 28.62L119.05 0Z"   fill="#0072FF" >
</path>
</g>
</g>
<path d="M119.05 0L119.05 28.6198C119.055 34.0874 121.23 39.329 125.096 43.1948C128.961 47.0606 134.203 49.2346 139.67 49.24L164.42 49.24L119.05 0Z"   fill="#0072FF" >
</path>
<path d="M42.8401 186.66L42.8401 223.94C42.8401 232.809 50.0302 240 58.9003 240L183.94 240C192.81 240 200 232.809 200 223.94L200 186.66C200 177.791 192.81 170.6 183.94 170.6L58.9003 170.6C50.0302 170.6 42.8401 177.791 42.8401 186.66Z"   fill="#0072FF" >
</path>
<path d="M65.8899 213.37L65.8899 220.64L73.4099 220.64L73.4099 213.37L65.8899 213.37Z"   fill="#FFFFFF" >
</path>
<path d="M84.4701 201.96L90.9799 220.67L97.2699 220.67L103.74 202L103.74 220.64L111.01 220.64L111.01 190.79L102.21 190.82L94.2101 211.61L86.09 190.82L77.2 190.82L77.2 220.67L84.4701 220.67L84.4701 201.96Z"   fill="#FFFFFF" >
</path>
<path d="M127.225 213.599C128.207 214.003 129.265 214.188 130.325 214.14C131.382 214.185 132.436 213.999 133.414 213.595C134.392 213.19 135.269 212.578 135.986 211.8C137.474 210.049 138.237 207.795 138.116 205.5C138.233 203.212 137.48 200.965 136.006 199.21C135.288 198.429 134.407 197.814 133.425 197.41C132.444 197.006 131.385 196.821 130.325 196.87C129.266 196.821 128.21 197.003 127.229 197.404C126.248 197.804 125.366 198.414 124.644 199.19C123.164 200.948 122.413 203.206 122.544 205.5C122.423 207.79 123.174 210.04 124.644 211.8C125.363 212.581 126.244 213.195 127.225 213.599ZM138.046 192.08C135.701 190.745 133.044 190.055 130.345 190.081C127.653 190.058 125.003 190.748 122.664 192.08C120.375 193.383 118.482 195.279 117.183 197.57C115.822 199.988 115.131 202.726 115.183 205.5C115.127 208.297 115.817 211.058 117.183 213.5C118.475 215.798 120.37 217.7 122.664 218.999C125.003 220.332 127.653 221.022 130.345 220.999C133.037 221.024 135.688 220.334 138.026 218.999C140.323 217.7 142.221 215.798 143.517 213.5C144.879 211.057 145.569 208.296 145.517 205.5C145.56 202.727 144.87 199.991 143.517 197.57C142.226 195.278 140.335 193.38 138.046 192.08Z" fill-rule="evenodd"  fill="#FFFFFF" >
</path>
<path d="M147.43 190.57L157.85 220.64L167.25 220.64L177.71 190.57L169.93 190.57L162.57 213.2L155.2 190.57L147.43 190.57Z"   fill="#FFFFFF" >
</path>
<path d="M65.4732 94.401C65.2113 93.4264 64.7598 92.5141 64.1455 91.7138C63.5304 90.9143 62.764 90.2438 61.8902 89.74C60.1263 88.7217 58.0307 88.446 56.0633 88.9728C54.096 89.4996 52.4189 90.7868 51.3999 92.5501C50.3817 94.3135 50.106 96.4093 50.6328 98.377C51.1595 100.344 52.4465 102.021 54.2096 103.04C55.975 104.059 58.0729 104.335 60.0418 103.808C62.01 103.281 63.6894 101.994 64.7099 100.23C65.2136 99.3562 65.5408 98.3916 65.6713 97.3916C65.8026 96.3909 65.735 95.3748 65.4732 94.401ZM85.8602 84.7703C85.8602 82.7328 85.0508 80.7798 83.6102 79.3398C82.1704 77.899 80.2169 77.0903 78.1804 77.0903C76.1432 77.0903 74.1896 77.899 72.7498 79.3398C71.3092 80.7798 70.4999 82.7328 70.4999 84.7703C70.4999 86.807 71.3092 88.7601 72.7498 90.2008C74.1896 91.6408 76.1432 92.4503 78.1804 92.4503C80.2169 92.4503 82.1704 91.6408 83.6102 90.2008C85.0508 88.7601 85.8602 86.807 85.8602 84.7703ZM53.3742 125.725C54.1735 126.34 55.0866 126.791 56.061 127.053C57.0355 127.314 58.0514 127.382 59.0512 127.251C60.0511 127.12 61.0163 126.794 61.8902 126.29C63.6563 125.271 64.9449 123.593 65.474 121.624C66.003 119.655 65.7281 117.556 64.7099 115.79C63.6894 114.026 62.01 112.739 60.0418 112.212C58.0729 111.685 55.975 111.961 54.2096 112.98C52.4465 113.999 51.1595 115.676 50.6328 117.643C50.106 119.611 50.3817 121.706 51.3999 123.47C51.9036 124.344 52.574 125.11 53.3742 125.725ZM91.6601 100.19C92.6784 101.954 94.3562 103.24 96.3236 103.767C98.2902 104.294 100.387 104.018 102.15 103C103.024 102.497 103.791 101.826 104.405 101.026C105.019 100.226 105.47 99.3124 105.731 98.3378C105.992 97.3632 106.058 96.3471 105.926 95.3472C105.794 94.3473 105.465 93.3827 104.96 92.5102C103.941 90.7469 102.264 89.4597 100.297 88.9329C98.3293 88.406 96.2337 88.6817 94.4699 89.7001C92.7068 90.7185 91.4198 92.3958 90.893 94.3634C90.3662 96.3302 90.6419 98.4261 91.6601 100.19ZM105.32 80.8604C98.122 73.662 88.3605 69.6154 78.1804 69.61C67.9957 69.61 58.2288 73.6558 51.0275 80.8573C43.8253 88.0589 39.78 97.8255 39.78 108.01C39.78 118.194 43.8253 127.962 51.0275 135.163C58.2288 142.364 67.9957 146.41 78.1804 146.41C88.3635 146.405 98.1281 142.356 105.327 135.153C112.526 127.95 116.57 118.184 116.57 108C116.565 97.8202 112.519 88.0581 105.32 80.8604ZM102.15 112.98C100.387 111.962 98.2902 111.686 96.3236 112.212C94.3562 112.74 92.6784 114.026 91.6601 115.79C90.6411 117.555 90.3654 119.653 90.8922 121.621C91.419 123.59 92.706 125.269 94.4699 126.29C95.3437 126.795 96.3082 127.122 97.3088 127.255C98.3094 127.386 99.3261 127.319 100.301 127.057C101.275 126.795 102.188 126.344 102.987 125.728C103.787 125.113 104.457 124.345 104.96 123.47C105.465 122.597 105.794 121.633 105.926 120.633C106.058 119.633 105.992 118.616 105.731 117.642C105.47 116.668 105.019 115.755 104.405 114.954C103.791 114.154 103.024 113.484 102.15 112.98ZM83.6133 125.827C82.8999 125.113 82.0529 124.547 81.1207 124.162C80.1885 123.776 79.1894 123.579 78.1804 123.58C76.1432 123.58 74.1896 124.389 72.7498 125.829C71.3092 127.27 70.4999 129.223 70.4999 131.26C70.4999 133.297 71.3092 135.25 72.7498 136.691C74.1896 138.131 76.1432 138.94 78.1804 138.94C80.2169 138.94 82.1704 138.131 83.6102 136.691C85.0508 135.25 85.8602 133.297 85.8602 131.26C85.8617 130.251 85.6636 129.252 85.2781 128.32C84.8926 127.387 84.3267 126.54 83.6133 125.827Z" fill-rule="evenodd"  fill="#0072FF" >
</path>
<path d="M112.739 138.31C113.255 138.421 113.781 138.478 114.309 138.48C117.318 138.48 120.648 136.67 124.277 133.059C124.522 132.812 124.66 132.477 124.66 132.129C124.66 131.78 124.522 131.446 124.277 131.199C124.154 131.076 124.008 130.978 123.848 130.911C123.688 130.845 123.515 130.81 123.342 130.81C123.168 130.81 122.996 130.845 122.836 130.911C122.675 130.978 122.53 131.076 122.407 131.199C118.898 134.739 115.768 136.27 113.349 135.739C110.51 135.109 109.22 131.739 109.22 131.679C109.162 131.516 109.072 131.367 108.956 131.239C108.84 131.112 108.7 131.008 108.544 130.935C108.388 130.861 108.219 130.819 108.047 130.811C107.874 130.804 107.702 130.83 107.54 130.889C107.376 130.946 107.224 131.035 107.095 131.151C106.965 131.268 106.86 131.408 106.786 131.566C106.711 131.723 106.669 131.894 106.661 132.068C106.653 132.242 106.68 132.416 106.74 132.579C106.74 132.769 108.47 137.31 112.739 138.31Z"   fill="#0072FF" >
</path>
</svg>
