<svg xmlns="http://www.w3.org/2000/svg" xmlns:xlink="http://www.w3.org/1999/xlink" width="200" height="240" viewBox="0 0 200 240" fill="none">
<g  opacity="0.3">
<g opacity="0.3">
<path d="M156.537 208.129C161.584 203.09 164.422 196.251 164.43 189.121L164.43 49.2394L139.67 49.2394C134.203 49.235 128.961 47.0599 125.095 43.1957C121.229 39.3293 119.056 34.087 119.051 28.62L119.051 0L26.9106 0C19.7727 0 12.9291 2.83608 7.88113 7.88184C2.83477 12.9276 0 19.7726 0 26.9093L0 189.13C0.0098658 196.26 2.85122 203.094 7.89593 208.133C12.9406 213.17 19.7793 216 26.9106 216L137.519 216C144.652 216 151.493 213.168 156.537 208.129Z"   fill="#FF3E4C" >
</path>
</g>
</g>
<path d="M119.05 0L119.05 28.6198C119.055 34.0874 121.23 39.329 125.095 43.1948C128.961 47.0606 134.203 49.2346 139.67 49.24L164.43 49.24L119.05 0Z"   fill="#FF3E4C" >
</path>
<path d="M42.84 186.66L42.84 223.94C42.84 232.81 50.0301 240 58.9002 240L183.94 240C192.81 240 200 232.81 200 223.94L200 186.66C200 177.79 192.81 170.6 183.94 170.6L58.9002 170.6C50.0301 170.6 42.84 177.79 42.84 186.66Z"   fill="#FF3E4C" >
</path>
<path d="M71.13 213.37L71.13 220.64L78.66 220.64L78.66 213.37L71.13 213.37Z"   fill="#FFFFFF" >
</path>
<path d="M82.43 220.67L89.72 220.67L89.72 201.96L96.2299 220.67L102.52 220.67L108.99 202L108.99 220.64L116.26 220.64L116.26 190.78L107.44 190.81L99.4401 211.61L91.3198 190.81L82.43 190.81L82.43 220.67Z"   fill="#FFFFFF" >
</path>
<path d="M142.779 205.39C143.633 203.864 144.065 202.138 144.029 200.39C144.094 199.067 143.878 197.744 143.395 196.51C142.913 195.276 142.174 194.158 141.229 193.23C139.359 191.46 136.629 190.57 133.059 190.57L121.28 190.57L121.28 220.64L128.55 220.64L128.55 210.09L133.059 210.09C135.129 210.149 137.184 209.721 139.059 208.84C140.612 208.082 141.906 206.882 142.779 205.39ZM128.55 204.27L132.249 204.27C135.169 204.27 136.629 202.977 136.629 200.39C136.629 197.763 135.169 196.447 132.249 196.44L128.55 196.44L128.55 204.27Z" fill-rule="evenodd"  fill="#FFFFFF" >
</path>
<path d="M156.42 214.697C155.902 214.498 155.434 214.187 155.049 213.785C154.324 212.897 153.931 211.782 153.94 210.635L146.84 210.635C147.01 214.125 148.12 216.726 150.14 218.426C152.16 220.126 154.91 220.976 158.369 220.976C160.252 221.025 162.12 220.638 163.829 219.846C165.272 219.163 166.48 218.066 167.299 216.695C168.106 215.295 168.517 213.701 168.489 212.085C168.495 208.478 166.552 206.055 162.659 204.814L162.659 204.594C164.137 204.301 165.469 203.506 166.429 202.344C167.482 201.003 168.018 199.327 167.939 197.623C167.96 196.115 167.555 194.631 166.769 193.343C165.945 192.028 164.752 190.984 163.339 190.343C161.664 189.579 159.839 189.203 157.999 189.243C154.679 189.243 152.1 190.093 150.26 191.793C149.294 192.749 148.53 193.89 148.015 195.148C147.5 196.406 147.243 197.755 147.26 199.114L154.369 199.114C154.39 198.1 154.741 197.12 155.369 196.323C155.671 195.985 156.045 195.719 156.465 195.545C156.884 195.372 157.337 195.296 157.789 195.323C158.198 195.302 158.607 195.365 158.99 195.508C159.374 195.651 159.724 195.87 160.019 196.154C160.311 196.47 160.535 196.842 160.678 197.248C160.82 197.654 160.879 198.085 160.849 198.514C160.849 200.861 159.249 202.011 156.049 201.964L154.73 201.964L154.73 207.875L156.089 207.875C159.662 207.868 161.449 209.101 161.449 211.575C161.466 212.019 161.394 212.463 161.236 212.879C161.077 213.295 160.837 213.674 160.529 213.995C160.204 214.316 159.816 214.565 159.388 214.727C158.961 214.889 158.505 214.96 158.049 214.935C157.496 214.977 156.939 214.896 156.42 214.697Z"   fill="#FFFFFF" >
</path>
<path d="M103.69 82.0702C105.173 82.0702 106.595 82.6589 107.643 83.7075C108.691 84.7554 109.28 86.1774 109.28 87.6602L109.28 131.92L120.23 131.92L120.25 83.9203C120.25 80.5199 118.899 77.2593 116.495 74.8551C114.091 72.4509 110.83 71.1001 107.43 71.1001L71.9299 71.1001C70.2458 71.0989 68.5776 71.4291 67.0208 72.0732C65.4645 72.7167 64.0501 73.6606 62.8583 74.8515C61.6671 76.0417 60.7217 77.4558 60.0766 79.0116C59.432 80.5679 59.1 82.2356 59.1 83.9203L59.1 131.92L70.1003 131.92L70.1003 87.6602C70.1003 86.9261 70.2446 86.1993 70.5253 85.5211C70.8066 84.843 71.2181 84.2263 71.7373 83.7075C72.2564 83.1881 72.8728 82.7763 73.551 82.4953C74.2291 82.215 74.9562 82.0702 75.69 82.0702L103.69 82.0702Z"   fill="#FF3E4C" >
</path>
<path d="M107.25 118.94C100.081 118.94 94.27 124.751 94.27 131.92C94.27 139.089 100.081 144.9 107.25 144.9C114.419 144.9 120.23 139.089 120.23 131.92C120.23 124.751 114.419 118.94 107.25 118.94Z"   fill="#FF3E4C" >
</path>
<path d="M57.18 118.94C50.0114 118.94 44.2 124.751 44.2 131.92C44.2 139.089 50.0114 144.9 57.18 144.9C64.3486 144.9 70.16 139.089 70.16 131.92C70.16 124.751 64.3486 118.94 57.18 118.94Z"   fill="#FF3E4C" >
</path>
</svg>
