<svg xmlns="http://www.w3.org/2000/svg" xmlns:xlink="http://www.w3.org/1999/xlink" width="200" height="240" viewBox="0 0 200 240" fill="none">
<g  opacity="0.3">
<g opacity="0.3">
<path d="M119.051 28.62L119.051 0L26.9106 0C19.7744 0 12.9308 2.83392 7.88606 7.87752C2.83971 12.9233 0.0032886 19.764 0 26.9006L0 189.121C0.0082215 196.251 2.84628 203.09 7.89264 208.129C12.9374 213.168 19.7776 216 26.9106 216L137.51 216C141.045 216.002 144.545 215.307 147.811 213.954C151.077 212.602 154.045 210.622 156.544 208.122C159.045 205.623 161.028 202.656 162.381 199.39C163.734 196.126 164.43 192.624 164.43 189.091L164.43 49.2394L139.67 49.2394C134.203 49.235 128.961 47.0599 125.095 43.1957C121.229 39.3293 119.056 34.087 119.051 28.62Z"   fill="#A140FF" >
</path>
</g>
</g>
<path d="M119.05 0L119.05 28.6198C119.055 34.0874 121.229 39.329 125.095 43.1948C128.961 47.0606 134.203 49.2346 139.67 49.24L164.43 49.24L119.05 0Z"   fill="#A140FF" >
</path>
<path d="M42.8401 186.66L42.8401 223.94C42.8401 232.809 50.0302 240 58.9003 240L183.94 240C192.81 240 200 232.809 200 223.94L200 186.66C200 177.791 192.81 170.6 183.94 170.6L58.9003 170.6C50.0302 170.6 42.8401 177.791 42.8401 186.66Z"   fill="#A140FF" >
</path>
<path d="M71.0601 213.37L71.0601 220.64L78.5901 220.64L78.5901 213.37L71.0601 213.37Z"   fill="#FFFFFF" >
</path>
<path d="M116.19 220.64L116.19 190.79L107.39 190.82L99.39 211.61L91.2699 190.82L82.3799 190.82L82.3799 220.67L89.65 220.67L89.65 201.96L96.1598 220.67L102.45 220.67L108.92 202L108.92 220.64L116.19 220.64Z"   fill="#FFFFFF" >
</path>
<path d="M121.21 190.57L121.21 220.64L128.48 220.64L128.48 210.1L132.999 210.1C135.071 210.161 137.127 209.729 138.999 208.84C140.551 208.085 141.845 206.888 142.719 205.4C143.571 203.874 144.003 202.148 143.968 200.4C144.034 199.075 143.819 197.751 143.336 196.515C142.854 195.28 142.115 194.16 141.169 193.23C139.299 191.46 136.569 190.57 132.999 190.57L121.21 190.57ZM128.48 204.23L132.179 204.23C135.099 204.257 136.559 202.98 136.559 200.4C136.559 197.733 135.099 196.4 132.179 196.4L128.48 196.4L128.48 204.23Z" fill-rule="evenodd"  fill="#FFFFFF" >
</path>
<path d="M161.1 215.08L161.1 220.61L168.46 220.61L168.46 215.08L172.08 215.08L172.08 208.75L168.46 208.75L168.46 190.16L160.64 190.16L146.9 209L146.9 215.11L161.1 215.08ZM154.3 208.78L161.7 208.78L161.7 198.61L154.3 208.78Z" fill-rule="evenodd"  fill="#FFFFFF" >
</path>
<path d="M118.87 82.2301L118.77 82.0698C118.644 81.8891 118.504 81.7183 118.35 81.5601L118.28 81.5001C118.144 81.3717 118.001 81.2516 117.85 81.1403L117.67 81.0301L117.27 80.8102L117.06 80.7198C116.904 80.6598 116.743 80.6096 116.58 80.57L116.42 80.57C116.194 80.522 115.962 80.4983 115.73 80.5L48.3724 80.5C47.4461 80.5849 46.5853 81.0124 45.9584 81.6984C45.3314 82.385 44.983 83.2803 44.9822 84.2099C44.9822 84.2699 44.9822 84.3201 44.9822 84.3801L44.9822 132.08C44.9576 132.694 45.1527 133.297 45.5317 133.78C45.8601 134.334 46.327 134.793 46.8862 135.112C47.4454 135.431 48.0783 135.599 48.7216 135.6L115.72 135.6C116.7 135.595 117.639 135.205 118.334 134.515C119.03 133.825 119.427 132.89 119.44 131.91L119.44 84.2C119.438 83.9685 119.414 83.7377 119.37 83.5101C119.36 83.4423 119.342 83.3751 119.32 83.3101C119.284 83.1536 119.237 82.9999 119.18 82.85C119.154 82.7817 119.124 82.715 119.09 82.65C119.029 82.504 118.955 82.3635 118.87 82.2301ZM84.7111 82.2401L78.8213 82.2401L78.8213 89.4802L84.7111 89.4802L84.7111 82.2401ZM54.8817 133.78L54.8817 126.54L48.9919 126.54L48.9919 133.78L54.8817 133.78ZM64.8318 89.4802L64.8318 82.2401L58.9412 82.2401L58.9412 89.4802L64.8318 89.4802ZM68.8712 126.54L68.8712 133.78L74.761 133.78L74.761 126.54L68.8712 126.54ZM68.8809 82.2401L68.8809 89.4802L74.7714 89.4802L74.7714 82.2401L68.8809 82.2401ZM78.8109 126.54L78.8109 133.78L84.7007 133.78L84.7007 126.54L78.8109 126.54ZM94.6403 126.54L88.7505 126.54L88.7505 133.78L94.6403 133.78L94.6403 126.54ZM98.7006 82.2401L98.7006 89.4802L104.59 89.4802L104.59 82.2401L98.7006 82.2401ZM114.52 126.54L108.63 126.54L108.63 133.78L114.52 133.78L114.52 126.54ZM114.53 89.4802L114.53 82.2401L108.64 82.2401L108.64 89.4802L114.53 89.4802ZM49.0016 82.2401L49.0016 89.4802L54.8913 89.4802L54.8913 82.2401L49.0016 82.2401ZM116.87 124.59L116.87 91.4401L47.6419 91.4401L47.6419 124.59L116.87 124.59ZM94.6508 89.4802L94.6508 82.2401L88.761 82.2401L88.761 89.4802L94.6508 89.4802ZM58.9315 133.78L64.8213 133.78L64.8213 126.54L58.9315 126.54L58.9315 133.78ZM104.581 126.54L98.6902 126.54L98.6902 133.78L104.581 133.78L104.581 126.54Z" fill-rule="evenodd"  fill="#A140FF" >
</path>
<path d="M79.0228 117.16C79.5931 117.161 80.1536 117.012 80.6486 116.729L90.216 111.2C90.7098 110.913 91.1198 110.502 91.4048 110.007C91.6898 109.512 91.84 108.951 91.84 108.38C91.84 107.809 91.6898 107.248 91.4048 106.753C91.1198 106.258 90.7098 105.847 90.216 105.56L80.6486 100.031C80.1536 99.7475 79.5931 99.5989 79.0228 99.6C78.4524 99.601 77.8922 99.7519 77.3986 100.037C76.9047 100.323 76.4945 100.733 76.2086 101.226C75.9228 101.72 75.7716 102.28 75.77 102.851L75.77 113.909C75.7716 114.48 75.9228 115.04 76.2086 115.534C76.4945 116.027 76.9047 116.437 77.3986 116.723C77.8922 117.008 78.4524 117.159 79.0228 117.16Z"   fill="#A140FF" >
</path>
</svg>
