<svg xmlns="http://www.w3.org/2000/svg" xmlns:xlink="http://www.w3.org/1999/xlink" width="200" height="240" viewBox="0 0 200 240" fill="none">
<g  opacity="0.3">
<g opacity="0.3">
<path d="M125.092 43.1957C121.224 39.3293 119.048 34.0891 119.04 28.62L119.04 0L26.9106 0C19.7731 0 12.9283 2.83608 7.88229 7.88184C2.8346 12.9276 0 19.7726 0 26.9093L0 189.13C0.0098652 196.26 2.85104 203.094 7.89545 208.133C12.9415 213.17 19.7797 216 26.9106 216L137.509 216C144.647 216 151.492 213.164 156.538 208.118C161.585 203.072 164.42 196.227 164.42 189.091L164.42 49.2394L139.67 49.2394C134.201 49.235 128.96 47.0599 125.092 43.1957Z"   fill="#00C650" >
</path>
</g>
</g>
<path d="M119.04 0L119.04 28.6198C119.048 34.0879 121.224 39.33 125.092 43.1953C128.959 47.0611 134.202 49.2346 139.67 49.24L164.42 49.24L119.04 0Z"   fill="#00C650" >
</path>
<path d="M42.8401 186.66L42.8401 223.94C42.8401 232.809 50.0302 240 58.9003 240L183.94 240C192.81 240 200 232.809 200 223.94L200 186.66C200 177.791 192.81 170.6 183.94 170.6L58.9003 170.6C50.0302 170.6 42.8401 177.791 42.8401 186.66Z"   fill="#00C650" >
</path>
<path d="M57.53 213.37L57.53 220.64L65.06 220.64L65.06 213.37L57.53 213.37Z"   fill="#FFFFFF" >
</path>
<path d="M82.62 220.67L88.92 220.67L95.38 202L95.38 220.64L102.66 220.64L102.66 190.79L93.8601 190.82L85.86 211.61L77.7304 190.82L68.8401 190.82L68.8401 220.67L76.1202 220.67L76.1202 201.96L82.62 220.67Z"   fill="#FFFFFF" >
</path>
<path d="M119.459 190.57L107.68 190.57L107.68 220.64L114.949 220.64L114.949 210.1L119.459 210.1C121.531 210.161 123.587 209.729 125.459 208.84C127.011 208.085 128.305 206.888 129.178 205.4C130.025 203.871 130.456 202.147 130.428 200.4C130.495 199.074 130.278 197.749 129.794 196.513C129.31 195.277 128.568 194.158 127.618 193.23C125.745 191.457 123.025 190.57 119.459 190.57ZM118.649 196.4L114.949 196.4L114.949 204.23L118.649 204.23C121.569 204.257 123.029 202.98 123.029 200.4C123.029 197.733 121.569 196.4 118.649 196.4Z" fill-rule="evenodd"  fill="#FFFFFF" >
</path>
<path d="M152.72 190.57L134 190.57L134 220.64L152.72 220.64L152.72 214.82L141.28 214.82L141.28 208.14L151.44 208.14L151.44 202.65L141.28 202.65L141.28 196.36L152.72 196.36L152.72 190.57Z"   fill="#FFFFFF" >
</path>
<path d="M157.733 197.638C156.464 200.11 155.828 202.858 155.883 205.637C155.835 208.399 156.47 211.129 157.733 213.586C158.918 215.865 160.742 217.749 162.983 219.005C165.431 220.346 168.191 221.015 170.982 220.945C173.275 220.986 175.548 220.507 177.631 219.545C179.472 218.683 181.105 217.435 182.42 215.886C183.629 214.443 184.553 212.784 185.14 210.996L185.14 203.767L169.952 203.767L169.952 208.996L179.141 208.996C178.675 210.583 177.702 211.974 176.371 212.956C175.05 213.914 173.453 214.415 171.822 214.386C170.68 214.458 169.537 214.29 168.464 213.894C167.391 213.498 166.413 212.882 165.592 212.086C164.133 210.553 163.403 208.356 163.403 205.497C163.283 203.217 164.026 200.975 165.482 199.218C166.18 198.453 167.036 197.85 167.991 197.451C168.946 197.052 169.978 196.866 171.012 196.908C172.344 196.88 173.656 197.227 174.801 197.908C175.821 198.514 176.636 199.413 177.141 200.487L184.79 200.487C184.293 197.499 182.664 194.816 180.241 192.998C177.499 191.076 174.195 190.123 170.852 190.288C168.098 190.226 165.376 190.891 162.963 192.218C160.735 193.484 158.919 195.366 157.733 197.638Z"   fill="#FFFFFF" >
</path>
<path d="M119.44 84.2003C119.438 83.9684 119.414 83.7376 119.37 83.5101C119.376 83.4435 119.376 83.3768 119.37 83.3102C119.37 83.1499 119.28 83.0001 119.23 82.8503L119.14 82.6503C119.075 82.5038 118.999 82.3634 118.91 82.2301L118.82 82.0703C118.691 81.8913 118.551 81.7211 118.4 81.5603L118.33 81.5003C118.194 81.3719 118.05 81.2518 117.9 81.14L117.72 81.0299C117.59 80.95 117.45 80.8801 117.31 80.8101L117.11 80.7203C116.95 80.6597 116.787 80.6096 116.62 80.57L116.46 80.57C116.237 80.5215 116.008 80.4983 115.78 80.5L48.4216 80.5C47.496 80.5848 46.6351 81.0122 46.0078 81.6985C45.3812 82.3848 45.0323 83.2804 45.0315 84.2102C45.0315 84.2702 45.0315 84.3204 45.0315 84.3798L45.0315 132.06C45.0114 132.673 45.2064 133.274 45.5814 133.76C45.9118 134.314 46.3806 134.773 46.9416 135.093C47.5019 135.411 48.1359 135.579 48.781 135.58L115.78 135.58C116.746 135.56 117.667 135.166 118.348 134.482C119.031 133.798 119.422 132.876 119.44 131.91L119.44 84.2003ZM54.8313 133.78L54.8313 126.54L48.9418 126.54L48.9418 133.78L54.8313 133.78ZM48.9514 89.4802L54.841 89.4802L54.841 82.24L48.9514 82.24L48.9514 89.4802ZM84.6608 89.4802L84.6608 82.24L78.7705 82.24L78.7705 89.4802L84.6608 89.4802ZM68.8308 89.4802L74.7211 89.4802L74.7211 82.24L68.8308 82.24L68.8308 89.4802ZM108.58 133.78L114.47 133.78L114.47 126.54L108.58 126.54L108.58 133.78ZM94.5908 126.54L88.7005 126.54L88.7005 133.78L94.5908 133.78L94.5908 126.54ZM114.48 89.4802L114.48 82.24L108.59 82.24L108.59 89.4802L114.48 89.4802ZM116.81 124.59L116.81 91.44L47.5912 91.44L47.5912 124.59L116.81 124.59ZM98.6506 89.4802L104.54 89.4802L104.54 82.24L98.6506 82.24L98.6506 89.4802ZM88.7109 82.24L88.7109 89.4802L94.6005 89.4802L94.6005 82.24L88.7109 82.24ZM98.6402 126.54L98.6402 133.78L104.531 133.78L104.531 126.54L98.6402 126.54ZM64.771 133.78L64.771 126.54L58.8815 126.54L58.8815 133.78L64.771 133.78ZM68.8211 133.78L74.7107 133.78L74.7107 126.54L68.8211 126.54L68.8211 133.78ZM78.7608 133.78L84.6504 133.78L84.6504 126.54L78.7608 126.54L78.7608 133.78ZM64.7807 82.24L58.8911 82.24L58.8911 89.4802L64.7807 89.4802L64.7807 82.24Z" fill-rule="evenodd"  fill="#00C650" >
</path>
<path d="M77.391 116.724C77.8863 117.01 78.4481 117.16 79.0199 117.16C79.5917 117.16 80.1534 117.009 80.6487 116.723L90.2161 111.194C90.7101 110.908 91.1201 110.497 91.405 110.002C91.6901 109.507 91.84 108.946 91.84 108.375C91.84 107.804 91.6901 107.243 91.405 106.748C91.1201 106.253 90.7101 105.842 90.2161 105.556L80.6487 100.027C80.1534 99.7407 79.5917 99.5901 79.0199 99.59C78.4481 99.5898 77.8863 99.7402 77.391 100.026C76.8956 100.311 76.4839 100.723 76.1977 101.217C75.9113 101.713 75.7607 102.274 75.76 102.846L75.76 113.904C75.7607 114.476 75.9113 115.037 76.1977 115.532C76.4839 116.027 76.8956 116.439 77.391 116.724Z"   fill="#00C650" >
</path>
</svg>
