<svg xmlns="http://www.w3.org/2000/svg" xmlns:xlink="http://www.w3.org/1999/xlink" width="200" height="240.010009765625" viewBox="0 0 200 240.010009765625" fill="none">
<g  opacity="0.3">
<g opacity="0.3">
<path d="M0 26.9093L0 189.13C0.0098658 196.26 2.85122 203.094 7.89593 208.133C12.9406 213.17 19.7793 216 26.9106 216L137.519 216C144.651 216 151.489 213.17 156.534 208.133C161.579 203.094 164.42 196.26 164.43 189.13L164.43 49.2502L139.67 49.2502C134.203 49.2437 128.961 47.0707 125.095 43.2043C121.229 39.3379 119.056 34.0978 119.051 28.6308L119.051 0L26.9106 0C19.7727 0 12.9291 2.83608 7.88113 7.88184C2.83477 12.9276 0 19.7726 0 26.9093Z"   fill="#FF3E4C" >
</path>
</g>
</g>
<path d="M119.05 0L119.05 28.63C119.055 34.0973 121.23 39.3389 125.095 43.2046C128.961 47.0707 134.203 49.2446 139.67 49.25L164.43 49.25L119.05 0Z"   fill="#FF3E4C" >
</path>
<path d="M27.3604 143.35C26.3672 143.35 25.4149 143.744 24.7117 144.445C24.0086 145.146 23.6122 146.097 23.61 147.09C23.61 148.085 24.0053 149.038 24.7084 149.742C25.4116 150.445 26.3649 150.84 27.3604 150.84L130.6 150.84C131.092 150.84 131.579 150.743 132.033 150.554C132.487 150.366 132.9 150.089 133.248 149.741C133.596 149.393 133.87 148.979 134.058 148.524C134.246 148.069 134.341 147.582 134.34 147.09C134.34 146.098 133.946 145.147 133.245 144.445C132.543 143.744 131.592 143.35 130.6 143.35L27.3604 143.35Z"   fill="#FF3E4C" >
</path>
<path d="M133.245 107.505C133.946 106.803 134.34 105.852 134.34 104.86C134.341 104.368 134.246 103.881 134.058 103.426C133.87 102.971 133.596 102.557 133.248 102.209C132.9 101.86 132.487 101.584 132.033 101.396C131.579 101.207 131.092 101.11 130.6 101.11L27.3604 101.11C26.3649 101.11 25.4116 101.505 24.7084 102.208C24.0053 102.911 23.61 103.865 23.61 104.86C23.6122 105.853 24.0086 106.804 24.7117 107.505C25.4149 108.206 26.3672 108.6 27.3604 108.6L130.6 108.6C131.592 108.6 132.543 108.206 133.245 107.505Z"   fill="#FF3E4C" >
</path>
<path d="M130.6 122.23L27.3604 122.23C26.3672 122.23 25.4149 122.624 24.7117 123.325C24.0086 124.026 23.6122 124.977 23.61 125.97C23.61 126.965 24.0053 127.918 24.7084 128.622C25.4116 129.325 26.3649 129.72 27.3604 129.72L130.6 129.72C131.092 129.72 131.579 129.623 132.033 129.434C132.487 129.246 132.9 128.97 133.248 128.621C133.596 128.273 133.87 127.859 134.058 127.404C134.246 126.949 134.341 126.462 134.34 125.97C134.34 124.978 133.946 124.027 133.245 123.325C132.543 122.624 131.592 122.23 130.6 122.23Z"   fill="#FF3E4C" >
</path>
<path d="M89.8801 87.48C90.8714 87.4774 91.8207 87.0824 92.5215 86.3816C93.2223 85.6808 93.6172 84.7311 93.62 83.74C93.62 82.7471 93.2265 81.7948 92.525 81.0918C91.8242 80.3888 90.8728 79.9926 89.8801 79.99L27.3597 79.99C26.3656 79.99 25.4113 80.3851 24.7084 81.0884C24.0048 81.7916 23.61 82.7454 23.61 83.74C23.6128 84.7328 24.009 85.6842 24.7119 86.3853C25.4148 87.0864 26.367 87.48 27.3597 87.48L89.8801 87.48Z"   fill="#FF3E4C" >
</path>
<path d="M24.7119 65.265C25.4148 65.9661 26.367 66.36 27.3597 66.36L89.8801 66.36C90.8714 66.3574 91.8207 65.9624 92.5215 65.2616C93.2223 64.5608 93.6172 63.6111 93.62 62.62C93.62 61.6271 93.2265 60.6748 92.525 59.9718C91.8242 59.2688 90.8728 58.8726 89.8801 58.87L27.3597 58.87C26.3656 58.87 25.4113 59.2649 24.7084 59.9681C24.0048 60.6714 23.61 61.6254 23.61 62.62C23.6128 63.6128 24.009 64.5639 24.7119 65.265Z"   fill="#FF3E4C" >
</path>
<path d="M42.84 186.67L42.84 223.95C42.84 232.819 50.0301 240.01 58.9002 240.01L183.94 240.01C192.81 240.01 200 232.819 200 223.95L200 186.67C200 177.801 192.81 170.61 183.94 170.61L58.9002 170.61C50.0301 170.61 42.84 177.801 42.84 186.67Z"   fill="#FF3E4C" >
</path>
<path d="M76.34 213.38L76.34 220.65L83.86 220.65L83.86 213.38L76.34 213.38Z"   fill="#FFFFFF" >
</path>
<path d="M110.398 200.41C110.464 199.085 110.249 197.761 109.766 196.525C109.284 195.289 108.545 194.17 107.599 193.24C105.729 191.47 102.999 190.58 99.4292 190.58L87.65 190.58L87.65 220.65L94.9195 220.65L94.9195 210.1L99.4292 210.11C101.5 210.174 103.556 209.745 105.429 208.86C106.982 208.102 108.276 206.901 109.149 205.41C110.003 203.884 110.435 202.158 110.398 200.41ZM98.6192 196.41L94.9195 196.41L94.9195 204.24L98.6192 204.24C101.539 204.267 102.999 202.99 102.999 200.41C102.999 197.743 101.539 196.41 98.6192 196.41Z" fill-rule="evenodd"  fill="#FFFFFF" >
</path>
<path d="M113.98 220.645L125.329 220.645C128.23 220.714 131.104 220.058 133.688 218.735C135.984 217.526 137.875 215.669 139.127 213.395C140.427 210.986 141.081 208.282 141.027 205.545C141.082 202.818 140.428 200.123 139.127 197.725C137.884 195.467 135.998 193.629 133.708 192.445C131.11 191.145 128.233 190.503 125.329 190.576L113.98 190.576L113.98 220.645ZM124.699 196.955L121.249 196.955L121.249 214.135L124.699 214.135C127.112 214.282 129.486 213.474 131.308 211.885C132.121 211.051 132.751 210.056 133.157 208.964C133.563 207.873 133.737 206.708 133.668 205.545C133.738 204.384 133.564 203.221 133.157 202.131C132.751 201.041 132.121 200.048 131.308 199.215C129.489 197.62 127.114 196.807 124.699 196.955Z" fill-rule="evenodd"  fill="#FFFFFF" >
</path>
<path d="M152.43 208.49L161.95 208.49L161.95 202.96L152.43 202.96L152.43 196.37L164.76 196.37L164.76 190.58L145.15 190.58L145.15 220.65L152.43 220.65L152.43 208.49Z"   fill="#FFFFFF" >
</path>
<path d="M105.51 64.45L105.51 82.13C105.51 85.2119 108.008 87.71 111.09 87.71L128.77 87.71C131.852 87.71 134.35 85.2119 134.35 82.13L134.35 64.45C134.35 61.3681 131.852 58.87 128.77 58.87L111.09 58.87C108.008 58.87 105.51 61.3681 105.51 64.45Z"   fill="#FF3E4C" >
</path>
</svg>
