<svg xmlns="http://www.w3.org/2000/svg" xmlns:xlink="http://www.w3.org/1999/xlink" width="200" height="240" viewBox="0 0 200 240" fill="none">
<g  opacity="0.3">
<g opacity="0.3">
<path d="M26.9106 0C19.7727 0 12.9291 2.83608 7.88113 7.88184C2.83477 12.9276 0 19.7726 0 26.9093L0 189.13C0.0098658 196.26 2.85122 203.094 7.89593 208.133C12.9406 213.17 19.7793 216 26.9106 216L137.519 216C144.652 216 151.493 213.168 156.537 208.129C161.584 203.09 164.422 196.251 164.43 189.121L164.43 49.2394L139.67 49.2394C134.203 49.235 128.961 47.0599 125.095 43.1957C121.229 39.3293 119.056 34.087 119.051 28.62L119.051 0L26.9106 0Z"   fill="#005FAD" >
</path>
</g>
</g>
<path d="M119.05 0L119.05 28.6198C119.055 34.0874 121.23 39.329 125.095 43.1948C128.961 47.0606 134.203 49.2346 139.67 49.24L164.43 49.24L119.05 0Z"   fill="#005FAD" >
</path>
<path d="M42.84 186.66L42.84 223.94C42.84 232.809 50.0301 240 58.9002 240L183.94 240C192.81 240 200 232.809 200 223.94L200 186.66C200 177.791 192.81 170.6 183.94 170.6L58.9002 170.6C50.0301 170.6 42.84 177.791 42.84 186.66Z"   fill="#005FAD" >
</path>
<path d="M71.53 213.37L71.53 220.64L79.06 220.64L79.06 213.37L71.53 213.37Z"   fill="#FFFFFF" >
</path>
<path d="M105.599 200.4C105.663 199.074 105.446 197.75 104.961 196.515C104.477 195.279 103.737 194.16 102.789 193.23C100.923 191.457 98.1995 190.57 94.6196 190.57L82.84 190.57L82.84 220.64L90.1198 220.64L90.1198 210.1L94.6196 210.1C96.6914 210.164 98.7485 209.732 100.619 208.84C102.175 208.091 103.471 206.893 104.339 205.4C105.196 203.875 105.63 202.149 105.599 200.4ZM98.1995 200.4C98.1995 197.733 96.7395 196.4 93.8197 196.4L90.1198 196.4L90.1198 204.23L93.8197 204.23C96.7395 204.257 98.1995 202.98 98.1995 200.4Z" fill-rule="evenodd"  fill="#FFFFFF" >
</path>
<path d="M109.16 220.64L116.43 220.64L116.43 202.18L128.61 220.64L135.88 220.64L135.87 190.57L128.6 190.57L128.6 209.2L116.43 190.57L109.16 190.57L109.16 220.64Z"   fill="#FFFFFF" >
</path>
<path d="M152.001 197.448C152.956 197.049 153.987 196.865 155.022 196.907C156.354 196.882 157.666 197.228 158.811 197.907C159.826 198.518 160.636 199.416 161.141 200.487L168.84 200.487C168.347 197.497 166.717 194.813 164.291 192.998C161.56 191.078 158.266 190.125 154.932 190.288C152.178 190.223 149.456 190.889 147.043 192.218C144.813 193.481 142.996 195.363 141.814 197.637C140.54 200.108 139.904 202.858 139.964 205.636C139.911 208.399 140.546 211.131 141.814 213.586C142.998 215.865 144.822 217.749 147.063 219.005C149.511 220.346 152.271 221.016 155.062 220.945C157.359 220.987 159.635 220.508 161.721 219.545C163.561 218.686 165.192 217.437 166.5 215.885C167.712 214.444 168.639 212.784 169.23 210.996L169.23 203.667L153.962 203.667L153.962 208.896L163.141 208.896C162.699 210.519 161.728 211.948 160.381 212.956C159.059 213.912 157.463 214.414 155.832 214.386C154.69 214.458 153.547 214.291 152.474 213.895C151.401 213.498 150.423 212.882 149.603 212.086C148.143 210.553 147.413 208.356 147.413 205.497C147.289 203.216 148.032 200.973 149.493 199.217C150.189 198.451 151.045 197.847 152.001 197.448Z"   fill="#FFFFFF" >
</path>
<path d="M40.95 80.47L54.7 80.47L54.7 66.72L40.95 66.72L40.95 80.47Z"   fill="#005FAD" >
</path>
<path d="M54.71 94.22L68.46 94.22L68.46 80.47L54.71 80.47L54.71 94.22Z"   fill="#005FAD" >
</path>
<path d="M68.46 80.47L82.21 80.47L82.21 66.72L68.46 66.72L68.46 80.47Z"   fill="#005FAD" >
</path>
<path d="M82.21 94.22L95.96 94.22L95.96 80.47L82.21 80.47L82.21 94.22Z"   fill="#005FAD" >
</path>
<path d="M95.98 80.47L109.73 80.47L109.73 66.72L95.98 66.72L95.98 80.47Z"   fill="#005FAD" >
</path>
<path d="M109.73 94.22L123.48 94.22L123.48 80.47L109.73 80.47L109.73 94.22Z"   fill="#005FAD" >
</path>
<path d="M40.95 107.95L54.7 107.95L54.7 94.2L40.95 94.2L40.95 107.95Z"   fill="#005FAD" >
</path>
<path d="M54.71 121.7L68.46 121.7L68.46 107.95L54.71 107.95L54.71 121.7Z"   fill="#005FAD" >
</path>
<path d="M68.46 107.95L82.21 107.95L82.21 94.2L68.46 94.2L68.46 107.95Z"   fill="#005FAD" >
</path>
<path d="M82.21 121.7L95.96 121.7L95.96 107.95L82.21 107.95L82.21 121.7Z"   fill="#005FAD" >
</path>
<path d="M95.98 107.95L109.73 107.95L109.73 94.2L95.98 94.2L95.98 107.95Z"   fill="#005FAD" >
</path>
<path d="M109.73 121.7L123.48 121.7L123.48 107.95L109.73 107.95L109.73 121.7Z"   fill="#005FAD" >
</path>
<path d="M40.95 135.56L54.7 135.56L54.7 121.81L40.95 121.81L40.95 135.56Z"   fill="#005FAD" >
</path>
<path d="M54.71 149.31L68.46 149.31L68.46 135.56L54.71 135.56L54.71 149.31Z"   fill="#005FAD" >
</path>
<path d="M68.46 135.56L82.21 135.56L82.21 121.81L68.46 121.81L68.46 135.56Z"   fill="#005FAD" >
</path>
<path d="M82.21 149.31L95.96 149.31L95.96 135.56L82.21 135.56L82.21 149.31Z"   fill="#005FAD" >
</path>
<path d="M95.98 135.56L109.73 135.56L109.73 121.81L95.98 121.81L95.98 135.56Z"   fill="#005FAD" >
</path>
<path d="M109.73 149.31L123.48 149.31L123.48 135.56L109.73 135.56L109.73 149.31Z"   fill="#005FAD" >
</path>
</svg>
