<svg xmlns="http://www.w3.org/2000/svg" xmlns:xlink="http://www.w3.org/1999/xlink" width="200" height="240.010009765625" viewBox="0 0 200 240.010009765625" fill="none">
<g  opacity="0.3">
<g opacity="0.3">
<path d="M26.9106 0C19.7727 0 12.9291 2.83444 7.88113 7.88114C2.83477 12.9278 0 19.772 0 26.9099L0 189.13C0 196.266 2.83477 203.112 7.88113 208.159C12.9291 213.206 19.7727 216.04 26.9106 216.04L137.51 216.04C141.045 216.042 144.545 215.347 147.811 213.994C151.077 212.642 154.045 210.661 156.544 208.161C159.045 205.664 161.028 202.695 162.381 199.431C163.734 196.164 164.43 192.664 164.43 189.13L164.43 49.2506L139.67 49.2506C134.203 49.2442 128.961 47.0708 125.095 43.2037C121.229 39.3387 119.056 34.0976 119.051 28.6296L119.051 0L26.9106 0Z"   fill="#FF3E4C" >
</path>
</g>
</g>
<path d="M119.05 0L119.05 28.63C119.055 34.0973 121.229 39.3389 125.095 43.2046C128.961 47.0707 134.203 49.2446 139.67 49.25L164.43 49.25L119.05 0Z"   fill="#FF3E4C" >
</path>
<path d="M42.8401 186.67L42.8401 223.95C42.8401 232.819 50.0302 240.01 58.9003 240.01L183.94 240.01C192.81 240.01 200 232.819 200 223.95L200 186.67C200 177.801 192.81 170.61 183.94 170.61L58.9003 170.61C50.0302 170.61 42.8401 177.801 42.8401 186.67Z"   fill="#FF3E4C" >
</path>
<path d="M79.27 213.38L79.27 220.65L86.8 220.65L86.8 213.38L79.27 213.38Z"   fill="#FFFFFF" >
</path>
<path d="M97.8599 196.41L97.8599 204.24L101.56 204.24C104.48 204.267 105.939 202.99 105.939 200.41C105.939 197.743 104.48 196.41 101.56 196.41L97.8599 196.41ZM90.5901 190.58L90.5901 220.65L97.8599 220.65L97.8599 210.1L102.36 210.11C104.431 210.178 106.488 209.749 108.36 208.86C109.917 208.105 111.215 206.904 112.089 205.41C112.939 203.883 113.371 202.158 113.339 200.41C113.403 199.084 113.186 197.76 112.701 196.524C112.217 195.289 111.477 194.169 110.529 193.24C108.663 191.466 105.943 190.58 102.37 190.58L90.5901 190.58Z" fill-rule="evenodd"  fill="#FFFFFF" >
</path>
<path d="M124.19 220.65L124.19 210.1L128.69 210.11C130.76 210.178 132.817 209.749 134.689 208.86C136.246 208.107 137.541 206.906 138.409 205.41C139.267 203.885 139.702 202.159 139.669 200.41C139.733 199.084 139.516 197.76 139.031 196.524C138.547 195.289 137.807 194.169 136.859 193.24C134.993 191.466 132.269 190.58 128.69 190.58L116.91 190.58L116.91 220.65L124.19 220.65ZM127.889 204.24C130.809 204.267 132.269 202.99 132.269 200.41C132.269 197.743 130.809 196.41 127.889 196.41L124.19 196.41L124.19 204.24L127.889 204.24Z" fill-rule="evenodd"  fill="#FFFFFF" >
</path>
<path d="M141.28 190.58L141.28 196.37L149.37 196.37L149.37 220.65L156.68 220.65L156.68 196.37L164.85 196.37L164.85 190.58L141.28 190.58Z"   fill="#FFFFFF" >
</path>
<path d="M28.3482 77.3384C27.6449 78.0416 27.25 78.9954 27.25 79.99C27.2526 80.9828 27.649 81.9342 28.3518 82.6353C29.0546 83.3364 30.007 83.73 30.9998 83.73L74.6901 83.73C75.6758 83.7195 76.6179 83.321 77.3125 82.6211C78.0067 81.9212 78.3974 80.9759 78.4 79.99C78.4 78.9954 78.0051 78.0416 77.3018 77.3384C76.5985 76.6351 75.6445 76.24 74.6502 76.24L30.9998 76.24C30.0055 76.24 29.0515 76.6351 28.3482 77.3384Z"   fill="#FF3E4C" >
</path>
<path d="M74.6901 106.1C75.6758 106.09 76.6179 105.691 77.3125 104.991C78.0067 104.291 78.3974 103.346 78.4 102.36C78.4 101.365 78.0051 100.411 77.3018 99.7081C76.5985 99.0049 75.6445 98.61 74.6502 98.61L30.9998 98.61C30.0055 98.61 29.0515 99.0049 28.3482 99.7081C27.6449 100.411 27.25 101.365 27.25 102.36C27.2526 103.353 27.649 104.304 28.3518 105.005C29.0546 105.706 30.007 106.1 30.9998 106.1L74.6901 106.1Z"   fill="#FF3E4C" >
</path>
<path d="M27.25 124.72C27.25 125.715 27.6449 126.668 28.3482 127.372C29.0515 128.075 30.0055 128.47 30.9998 128.47L74.6901 128.47C75.6742 128.46 76.6149 128.063 77.309 127.365C78.0031 126.667 78.3949 125.724 78.4 124.74C78.3974 123.747 78.001 122.796 77.2982 122.095C76.5954 121.394 75.643 121 74.6502 121L30.9998 121C30.0106 121 29.0612 121.391 28.3589 122.088C27.6566 122.784 27.2577 123.731 27.25 124.72Z"   fill="#FF3E4C" >
</path>
<path d="M28.3482 149.742C29.0515 150.445 30.0055 150.84 30.9998 150.84L74.6901 150.84C75.6778 150.829 76.6215 150.43 77.3161 149.727C78.0107 149.025 78.4 148.078 78.4 147.09C78.3974 146.097 78.001 145.146 77.2982 144.445C76.5954 143.744 75.643 143.35 74.6502 143.35L30.9998 143.35C30.007 143.35 29.0546 143.744 28.3518 144.445C27.649 145.146 27.2526 146.097 27.25 147.09C27.25 148.085 27.6449 149.038 28.3482 149.742Z"   fill="#FF3E4C" >
</path>
<path d="M117.25 84.76C109.152 85.1878 101.526 88.7055 95.9452 94.588C90.3635 100.471 87.2513 108.27 87.25 116.38C87.2487 120.538 88.0668 124.656 89.6574 128.497C91.248 132.339 93.5802 135.83 96.5203 138.77C99.4605 141.71 102.951 144.042 106.793 145.633C110.635 147.223 114.752 148.041 118.91 148.04C127.019 148.041 134.819 144.929 140.701 139.347C146.583 133.765 150.097 126.138 150.52 118.04L117.25 118L117.25 84.76Z"   fill="#FF3E4C" >
</path>
<path d="M123.31 112.23L153.31 112.23C152.909 104.403 149.62 97.0032 144.078 91.4616C138.537 85.92 131.137 82.6308 123.31 82.23L123.31 112.23Z"   fill="#FF3E4C" >
</path>
</svg>
