<svg xmlns="http://www.w3.org/2000/svg" xmlns:xlink="http://www.w3.org/1999/xlink" width="200" height="240" viewBox="0 0 200 240" fill="none">
<g  opacity="0.3">
<g opacity="0.3">
<path d="M164.43 189.08L164.43 49.2005L139.67 49.2394C134.203 49.235 128.961 47.0599 125.095 43.1957C121.229 39.3293 119.056 34.087 119.051 28.62L119.051 0L26.9106 0C19.7727 0 12.9291 2.83608 7.88113 7.88184C2.83477 12.9276 0 19.7726 0 26.9093L0 189.121C0.0082215 196.251 2.84628 203.09 7.89264 208.129C12.9374 213.168 19.7776 216 26.9106 216L137.51 216C141.045 216 144.545 215.304 147.811 213.95C151.078 212.598 154.046 210.615 156.546 208.116C159.045 205.615 161.028 202.647 162.381 199.381C163.734 196.115 164.43 192.616 164.43 189.08Z"   fill="#005FAD" >
</path>
</g>
</g>
<path d="M119.05 0L119.05 28.6198C119.055 34.0874 121.23 39.329 125.096 43.1948C128.961 47.0606 134.203 49.2346 139.67 49.24L164.43 49.24L119.05 0Z"   fill="#005FAD" >
</path>
<path d="M42.84 186.66L42.84 223.94C42.84 232.809 50.0301 240 58.9002 240L183.94 240C192.81 240 200 232.809 200 223.94L200 186.66C200 177.791 192.81 170.6 183.94 170.6L58.9002 170.6C50.0301 170.6 42.84 177.791 42.84 186.66Z"   fill="#005FAD" >
</path>
<path d="M90.59 213.37L90.59 220.65L98.12 220.65L98.12 213.37L90.59 213.37Z"   fill="#FFFFFF" >
</path>
<path d="M109.18 210.1L113.68 210.1C115.752 210.164 117.809 209.732 119.68 208.84C121.238 208.094 122.534 206.895 123.4 205.4C124.256 203.875 124.691 202.149 124.66 200.4C124.722 199.074 124.503 197.751 124.019 196.515C123.535 195.28 122.796 194.16 121.85 193.23C119.976 191.463 117.257 190.58 113.69 190.58L101.9 190.58L101.9 220.65L109.18 220.65L109.18 210.1ZM117.26 200.4C117.26 197.733 115.8 196.4 112.88 196.4L109.18 196.4L109.18 204.23L112.88 204.23C115.8 204.257 117.26 202.98 117.26 200.4Z" fill-rule="evenodd"  fill="#FFFFFF" >
</path>
<path d="M137.99 195.919C138.422 195.896 138.854 195.962 139.26 196.111C139.666 196.261 140.037 196.491 140.351 196.789C140.961 197.436 141.343 198.265 141.441 199.149L149.302 199.149C149.235 197.885 148.904 196.649 148.33 195.522C147.757 194.394 146.953 193.398 145.972 192.599C143.661 190.902 140.833 190.061 137.97 190.219C136.084 190.172 134.209 190.513 132.459 191.219C130.948 191.844 129.644 192.884 128.699 194.219C127.772 195.582 127.296 197.201 127.338 198.849C127.262 200.512 127.714 202.157 128.629 203.549C129.427 204.699 130.495 205.636 131.739 206.279C133.248 207.014 134.805 207.645 136.4 208.169C137.7 208.622 138.72 209.012 139.461 209.339C140.153 209.63 140.782 210.055 141.311 210.589C141.557 210.842 141.75 211.143 141.877 211.473C142.005 211.803 142.064 212.155 142.051 212.509C142.062 212.879 141.997 213.248 141.859 213.592C141.721 213.936 141.514 214.248 141.251 214.509C140.639 215.043 139.842 215.316 139.031 215.269C138.05 215.298 137.097 214.939 136.38 214.269C135.658 213.556 135.223 212.602 135.16 211.589L127.418 211.589C127.459 212.932 127.802 214.25 128.421 215.443C129.041 216.636 129.922 217.673 130.999 218.479C133.429 220.195 136.358 221.06 139.331 220.939C141.305 220.999 143.265 220.592 145.052 219.749C146.528 219.052 147.771 217.945 148.632 216.559C149.421 215.273 149.846 213.797 149.863 212.289C149.936 210.603 149.474 208.937 148.542 207.529C147.725 206.365 146.646 205.409 145.392 204.739C143.87 203.975 142.292 203.33 140.671 202.809C139.34 202.329 138.32 201.929 137.61 201.619C136.945 201.334 136.343 200.919 135.84 200.399C135.61 200.16 135.429 199.878 135.309 199.569C135.189 199.26 135.131 198.93 135.14 198.599C135.113 198.228 135.17 197.855 135.307 197.509C135.443 197.162 135.657 196.851 135.93 196.599C136.508 196.123 137.243 195.881 137.99 195.919Z"   fill="#FFFFFF" >
</path>
<path d="M55.8197 96.7688C53.9001 99.849 56.5099 110.259 56.5099 110.259C54.46 110.739 51.9698 103.479 51.9698 103.479C43.5403 116.98 50.0602 130.81 50.0602 130.81C71.7009 88.2342 92.0118 82.7278 92.1099 82.6882C92.11 82.6881 92.1101 82.6881 92.1102 82.688C92.1104 82.688 92.1103 82.6881 92.1099 82.6882C56.7598 111.54 46.39 151.381 46.39 151.381C48.2702 151.801 52.2698 149.381 52.2698 149.381C53.0703 142.181 57.0699 133.951 57.0699 133.951C78.5098 131.42 89.5598 111.419 89.5598 111.419C85.2201 112.979 81.2198 109.839 81.2198 109.839C85.9597 110.239 93.22 105.989 93.22 105.989C96.6804 100.828 99.8645 95.4869 102.76 89.9879C108.24 79.7979 117.99 64.7068 117.99 64.7068C93.2901 63.6671 78.4897 75.0678 78.4897 75.0678C75.4403 81.6882 75.7796 86.0685 75.7796 86.0685C73.6202 85.4878 73.3302 78.398 73.3302 78.398C64.1396 84.8482 55.8197 96.7688 55.8197 96.7688ZM92.1099 82.6882C92.1103 82.6881 92.1104 82.688 92.1102 82.688C92.1101 82.6881 92.11 82.6881 92.1099 82.6882Z" fill-rule="evenodd"  fill="#005FAD" >
</path>
</svg>
