<svg xmlns="http://www.w3.org/2000/svg" xmlns:xlink="http://www.w3.org/1999/xlink" width="200" height="240.010009765625" viewBox="0 0 200 240.010009765625" fill="none">
<g  opacity="0.3">
<g opacity="0.3">
<path d="M137.509 216.04C144.647 216.04 151.492 213.206 156.538 208.159C161.585 203.112 164.42 196.268 164.42 189.13L164.42 49.2506L139.67 49.2506C134.201 49.2442 128.958 47.0686 125.092 43.2015C121.225 39.3322 119.053 34.089 119.05 28.621L119.05 0L26.9106 0C19.7731 0 12.9283 2.83444 7.88229 7.88114C2.8346 12.9278 0 19.772 0 26.9099L0 189.13C0 196.268 2.8346 203.112 7.88229 208.159C12.9283 213.206 19.7731 216.04 26.9106 216.04L137.509 216.04Z"   fill="#005FAD" >
</path>
</g>
</g>
<path d="M119.05 0L119.05 28.6202C119.053 34.0889 121.226 39.333 125.092 43.2011C128.958 47.0692 134.201 49.2446 139.67 49.25L164.42 49.25L119.05 0Z"   fill="#005FAD" >
</path>
<path d="M42.8401 186.67L42.8401 223.95C42.8401 232.819 50.0302 240.01 58.9003 240.01L183.94 240.01C192.81 240.01 200 232.819 200 223.95L200 186.67C200 177.801 192.81 170.61 183.94 170.61L58.9003 170.61C50.0302 170.61 42.8401 177.801 42.8401 186.67Z"   fill="#005FAD" >
</path>
<path d="M76.1599 213.38L76.1599 220.65L83.6899 220.65L83.6899 213.38L76.1599 213.38Z"   fill="#FFFFFF" >
</path>
<path d="M94.7498 196.4L94.7498 204.22L98.4497 204.22C101.369 204.253 102.83 202.98 102.83 200.4C102.83 197.767 101.369 196.433 98.4497 196.4L94.7498 196.4ZM107.42 193.24C105.55 191.46 102.83 190.58 99.2596 190.58L87.47 190.58L87.47 220.65L94.7498 220.65L94.7498 210.1L99.2496 210.1C101.32 210.161 103.376 209.733 105.249 208.85C106.807 208.095 108.105 206.894 108.979 205.4C109.826 203.871 110.257 202.147 110.229 200.4C110.292 199.076 110.074 197.754 109.59 196.519C109.106 195.285 108.366 194.168 107.42 193.24Z" fill-rule="evenodd"  fill="#FFFFFF" >
</path>
<path d="M127.631 212.499C127.642 212.871 127.576 213.24 127.437 213.585C127.297 213.929 127.087 214.241 126.821 214.5C126.213 215.035 125.42 215.311 124.61 215.269C123.626 215.3 122.67 214.941 121.95 214.269C121.221 213.562 120.788 212.604 120.74 211.589L112.988 211.589C113.027 212.933 113.369 214.251 113.989 215.444C114.609 216.637 115.491 217.675 116.569 218.479C118.997 220.199 121.927 221.067 124.9 220.95C126.874 221.005 128.834 220.598 130.622 219.759C132.093 219.057 133.335 217.951 134.202 216.569C134.995 215.278 135.421 213.795 135.432 212.279C135.505 210.593 135.043 208.927 134.112 207.519C133.298 206.356 132.218 205.403 130.961 204.739C129.44 203.972 127.862 203.323 126.24 202.8C124.91 202.32 123.89 201.919 123.18 201.609C122.515 201.328 121.914 200.916 121.41 200.399C120.95 199.91 120.698 199.261 120.71 198.589C120.683 198.218 120.74 197.846 120.877 197.499C121.013 197.153 121.226 196.842 121.5 196.589C122.078 196.114 122.813 195.871 123.56 195.909C123.992 195.887 124.424 195.952 124.83 196.102C125.235 196.251 125.607 196.482 125.921 196.779C126.537 197.423 126.92 198.253 127.011 199.139L134.882 199.139C134.811 197.875 134.477 196.64 133.902 195.512C133.327 194.385 132.523 193.389 131.542 192.589C129.232 190.891 126.403 190.049 123.54 190.209C121.654 190.164 119.779 190.504 118.029 191.209C116.519 191.838 115.217 192.877 114.268 194.209C113.342 195.576 112.866 197.198 112.908 198.849C112.832 200.514 113.287 202.16 114.208 203.549C115.006 204.694 116.07 205.627 117.309 206.269C118.819 207.003 120.376 207.634 121.97 208.159C123.27 208.619 124.29 209.009 125.03 209.329C125.722 209.628 126.35 210.056 126.881 210.589C127.128 210.841 127.323 211.139 127.451 211.468C127.58 211.796 127.642 212.147 127.631 212.499Z"   fill="#FFFFFF" >
</path>
<path d="M159.138 192.446C156.545 191.142 153.67 190.499 150.768 190.576L139.41 190.576L139.41 220.645L150.768 220.645C153.669 220.716 156.54 220.056 159.118 218.725C161.418 217.522 163.314 215.669 164.567 213.395C165.858 210.983 166.508 208.281 166.457 205.546C166.511 202.816 165.86 200.12 164.567 197.716C163.316 195.463 161.427 193.629 159.138 192.446ZM159.098 205.546C159.169 204.383 158.996 203.218 158.589 202.126C158.183 201.034 157.552 200.039 156.738 199.206C154.917 197.615 152.542 196.807 150.129 196.956L146.679 196.956L146.679 214.135L150.129 214.135C152.555 214.295 154.947 213.486 156.778 211.885L156.738 211.885C157.552 211.052 158.183 210.057 158.589 208.965C158.996 207.874 159.169 206.709 159.098 205.546Z" fill-rule="evenodd"  fill="#FFFFFF" >
</path>
<path d="M117.99 64.7068C93.29 63.6671 78.4896 75.0678 78.4896 75.0678C75.4402 81.6882 75.7795 86.0685 75.7795 86.0685C73.6201 85.4878 73.3201 78.398 73.3201 78.398C64.1395 84.8482 55.8196 96.7784 55.8196 96.7784C53.9 99.8585 56.5098 110.269 56.5098 110.269C54.4599 110.739 51.9697 103.479 51.9697 103.479C43.5395 116.98 50.0501 130.81 50.0501 130.81C71.7008 88.2342 92.0117 82.7278 92.1098 82.6882C92.1099 82.6881 92.11 82.6881 92.1101 82.688C92.1103 82.688 92.1102 82.6881 92.1098 82.6882C56.7597 111.549 46.3899 151.381 46.3899 151.381C48.2701 151.801 52.2697 149.381 52.2697 149.381C53.0695 142.17 57.0697 133.94 57.0697 133.94C78.5097 131.42 89.5597 111.419 89.5597 111.419C85.22 112.969 81.2197 109.829 81.2197 109.829C85.9596 110.229 93.2199 105.989 93.2199 105.989C96.6782 100.826 99.8622 95.4852 102.76 89.9879C108.24 79.8074 117.99 64.7068 117.99 64.7068ZM92.1098 82.6882C92.1102 82.6881 92.1103 82.688 92.1101 82.688C92.11 82.6881 92.1099 82.6881 92.1098 82.6882Z" fill-rule="evenodd"  fill="#005FAD" >
</path>
</svg>
