<svg xmlns="http://www.w3.org/2000/svg" xmlns:xlink="http://www.w3.org/1999/xlink" width="200" height="240.010009765625" viewBox="0 0 200 240.010009765625" fill="none">
<g  opacity="0.3">
<g opacity="0.3">
<path d="M125.132 43.2043C121.265 39.3401 119.088 34.0978 119.08 28.6308L119.08 0L26.9106 0C19.7731 0 12.9283 2.83608 7.88229 7.88184C2.8346 12.9276 0 19.7726 0 26.9093L0 189.13C0.0098652 196.26 2.85104 203.094 7.89545 208.133C12.9415 213.17 19.7797 216 26.9106 216L137.509 216C144.647 216 151.492 213.164 156.538 208.118C161.585 203.072 164.42 196.227 164.42 189.091L164.42 49.2091L139.709 49.2502C134.242 49.2437 128.999 47.0707 125.132 43.2043Z"   fill="#FF3E4C" >
</path>
</g>
</g>
<path d="M119.08 0L119.08 28.63C119.088 34.0977 121.264 39.3399 125.132 43.2055C128.999 47.0707 134.242 49.2446 139.71 49.25L164.42 49.25L119.08 0Z"   fill="#FF3E4C" >
</path>
<path d="M42.84 186.67L42.84 223.95C42.84 232.819 50.03 240.01 58.9001 240.01L183.94 240.01C192.81 240.01 200 232.819 200 223.95L200 186.67C200 177.801 192.81 170.61 183.94 170.61L58.9001 170.61C50.03 170.61 42.84 177.801 42.84 186.67Z"   fill="#FF3E4C" >
</path>
<path d="M97.1195 200.41C97.1195 197.743 95.6595 196.41 92.7395 196.41L89.0396 196.41L89.0396 204.24L92.7395 204.24C95.6595 204.267 97.1195 202.99 97.1195 200.41ZM101.709 193.24C99.8426 191.466 97.1227 190.58 93.5494 190.58L81.76 190.58L81.76 220.65L89.0396 220.65L89.0396 210.1L93.5394 210.11C95.6103 210.178 97.6676 209.749 99.5393 208.86C101.096 208.107 102.391 206.906 103.259 205.41C104.117 203.885 104.552 202.159 104.519 200.41C104.583 199.084 104.365 197.76 103.881 196.524C103.397 195.289 102.657 194.169 101.709 193.24Z" fill-rule="evenodd"  fill="#FFFFFF" >
</path>
<path d="M118.255 213.717C117.581 213.445 116.978 213.025 116.489 212.488C115.514 211.176 115.039 209.559 115.149 207.928L115.149 190.58L107.918 190.58L107.918 207.928C107.839 210.419 108.382 212.89 109.498 215.118C110.455 216.99 111.967 218.519 113.829 219.497C115.805 220.496 117.996 220.993 120.21 220.947C122.46 220.986 124.687 220.482 126.701 219.477C128.611 218.498 130.188 216.974 131.231 215.098C132.404 212.895 132.977 210.422 132.892 207.928L132.892 190.58L125.621 190.58L125.621 207.928C125.731 209.559 125.255 211.176 124.28 212.488C123.79 213.026 123.185 213.446 122.509 213.718C121.834 213.99 121.106 214.106 120.38 214.058C119.655 214.106 118.929 213.989 118.255 213.717Z"   fill="#FFFFFF" >
</path>
<path d="M151.381 190.54L137.73 190.54L137.73 220.61L151.731 220.61C154.931 220.61 157.391 219.887 159.111 218.44C159.966 217.699 160.641 216.774 161.086 215.735C161.531 214.696 161.735 213.569 161.682 212.44C161.706 210.758 161.144 209.121 160.092 207.81C159.001 206.443 157.471 205.496 155.761 205.13C157.258 204.802 158.597 203.969 159.552 202.77C160.541 201.472 161.05 199.871 160.992 198.24C161.054 197.159 160.86 196.079 160.423 195.087C159.987 194.097 159.321 193.224 158.481 192.54C156.808 191.207 154.441 190.54 151.381 190.54ZM150.181 207.98L145.031 207.98L145.031 214.74L150.221 214.74C152.895 214.74 154.235 213.633 154.241 211.42C154.263 210.946 154.179 210.473 153.996 210.036C153.813 209.598 153.534 209.207 153.181 208.89C152.323 208.237 151.258 207.914 150.181 207.98ZM149.691 196.41L145.01 196.41L145.01 202.87L149.771 202.87C152.301 202.87 153.561 201.8 153.561 199.64C153.561 197.48 152.271 196.41 149.691 196.41Z" fill-rule="evenodd"  fill="#FFFFFF" >
</path>
<path d="M73.6328 77.3594C72.9399 76.6554 71.9976 76.2532 71.0098 76.24L27.35 76.24C26.8579 76.24 26.3709 76.3371 25.9166 76.5257C25.4618 76.7142 25.0495 76.9905 24.702 77.3389C24.3545 77.6872 24.0791 78.1007 23.8915 78.5557C23.7045 79.0106 23.6085 79.498 23.61 79.99C23.61 80.9819 24.004 81.9331 24.7056 82.6345C25.4067 83.336 26.3581 83.73 27.35 83.73L71.0098 83.73C71.9925 83.7169 72.9302 83.3189 73.6226 82.6213C74.3145 81.9238 74.7049 80.9825 74.71 80C74.7125 79.0123 74.3257 78.0634 73.6328 77.3594Z"   fill="#FF3E4C" >
</path>
<path d="M27.3499 106.1L71.0101 106.1C72.0012 106.097 72.9509 105.702 73.6515 105.002C74.3526 104.301 74.7474 103.351 74.75 102.36C74.75 101.367 74.3562 100.415 73.6551 99.7118C72.9539 99.0088 72.0027 98.6126 71.0101 98.61L27.3499 98.61C26.8579 98.61 26.371 98.7071 25.9164 98.8957C25.4618 99.0842 25.0491 99.3605 24.7018 99.7089C24.3546 100.057 24.0789 100.471 23.8918 100.926C23.7046 101.381 23.6085 101.868 23.61 102.36C23.61 103.352 24.0038 104.303 24.7054 105.005C25.4065 105.706 26.3582 106.1 27.3499 106.1Z"   fill="#FF3E4C" >
</path>
<path d="M23.8918 126.154C24.0789 126.609 24.3546 127.023 24.7018 127.371C25.0491 127.72 25.4618 127.996 25.9164 128.184C26.371 128.373 26.8579 128.47 27.3499 128.47L71.0101 128.47C72.0027 128.467 72.9539 128.071 73.6551 127.368C74.3562 126.665 74.75 125.713 74.75 124.72C74.7474 123.729 74.3526 122.779 73.6515 122.078C72.9509 121.378 72.0012 120.983 71.0101 120.98L27.3499 120.98C26.3582 120.98 25.4065 121.374 24.7054 122.075C24.0038 122.777 23.61 123.728 23.61 124.72C23.6085 125.212 23.7046 125.699 23.8918 126.154Z"   fill="#FF3E4C" >
</path>
<path d="M24.7054 144.445C24.0038 145.147 23.61 146.098 23.61 147.09C23.6085 147.582 23.7046 148.069 23.8918 148.524C24.0789 148.979 24.3546 149.393 24.7018 149.741C25.0491 150.089 25.4618 150.366 25.9164 150.554C26.371 150.743 26.8579 150.84 27.3499 150.84L71.0101 150.84C72.0027 150.837 72.9539 150.441 73.6551 149.738C74.3562 149.035 74.75 148.083 74.75 147.09C74.7474 146.099 74.3526 145.149 73.6515 144.448C72.9509 143.747 72.0012 143.353 71.0101 143.35L27.3499 143.35C26.3582 143.35 25.4065 143.744 24.7054 144.445Z"   fill="#FF3E4C" >
</path>
<path d="M133.242 77.3384C132.539 76.6351 131.585 76.24 130.59 76.24L88.0303 76.24C87.5383 76.24 87.0508 76.3371 86.5963 76.5257C86.1424 76.7142 85.7295 76.9905 85.3821 77.3389C85.0348 77.6872 84.7595 78.1007 84.5718 78.5557C84.3846 79.0106 84.2885 79.498 84.29 79.99C84.29 80.9819 84.6839 81.9331 85.3856 82.6345C86.0868 83.336 87.0383 83.73 88.0303 83.73L130.59 83.73C131.583 83.73 132.535 83.3364 133.238 82.6353C133.941 81.9342 134.338 80.9828 134.34 79.99C134.34 78.9954 133.945 78.0416 133.242 77.3384Z"   fill="#FF3E4C" >
</path>
<path d="M133.238 105.005C133.941 104.304 134.338 103.353 134.34 102.36C134.34 101.365 133.945 100.411 133.242 99.7081C132.539 99.0049 131.585 98.61 130.59 98.61L88.0303 98.61C87.5383 98.61 87.0508 98.7071 86.5963 98.8957C86.1424 99.0842 85.7295 99.3605 85.3821 99.7089C85.0348 100.057 84.7595 100.471 84.5718 100.926C84.3846 101.381 84.2885 101.868 84.29 102.36C84.29 103.352 84.6839 104.303 85.3856 105.005C86.0868 105.706 87.0383 106.1 88.0303 106.1L130.59 106.1C131.583 106.1 132.535 105.706 133.238 105.005Z"   fill="#FF3E4C" >
</path>
<path d="M84.29 124.72C84.2885 125.212 84.3846 125.699 84.5718 126.154C84.7595 126.609 85.0348 127.023 85.3821 127.371C85.7295 127.72 86.1424 127.996 86.5963 128.184C87.0508 128.373 87.5383 128.47 88.0303 128.47L130.59 128.47C131.585 128.47 132.539 128.075 133.242 127.372C133.945 126.668 134.34 125.715 134.34 124.72C134.338 123.727 133.941 122.776 133.238 122.075C132.535 121.374 131.583 120.98 130.59 120.98L88.0303 120.98C87.0383 120.98 86.0868 121.374 85.3856 122.075C84.6839 122.777 84.29 123.728 84.29 124.72Z"   fill="#FF3E4C" >
</path>
<path d="M88.0303 143.35C87.0383 143.35 86.0868 143.744 85.3856 144.445C84.6839 145.147 84.29 146.098 84.29 147.09C84.2885 147.582 84.3846 148.069 84.5718 148.524C84.7595 148.979 85.0348 149.393 85.3821 149.741C85.7295 150.089 86.1424 150.366 86.5963 150.554C87.0508 150.743 87.5383 150.84 88.0303 150.84L130.59 150.84C131.585 150.84 132.539 150.445 133.242 149.742C133.945 149.038 134.34 148.085 134.34 147.09C134.338 146.097 133.941 145.146 133.238 144.445C132.535 143.744 131.583 143.35 130.59 143.35L88.0303 143.35Z"   fill="#FF3E4C" >
</path>
</svg>
