<?xml version="1.0" standalone="no"?><!DOCTYPE svg PUBLIC "-//W3C//DTD SVG 1.1//EN" "http://www.w3.org/Graphics/SVG/1.1/DTD/svg11.dtd"><svg t="1718179294371" class="icon" viewBox="0 0 1024 1024" version="1.1" xmlns="http://www.w3.org/2000/svg" p-id="1280" xmlns:xlink="http://www.w3.org/1999/xlink" width="200" height="200"><path d="M0 0m128 0l768 0q128 0 128 128l0 768q0 128-128 128l-768 0q-128 0-128-128l0-768q0-128 128-128Z" fill="#52BD49" p-id="1281"></path><path d="M780.992 604.512q-56.128-40.48-112.96-80a46.272 46.272 0 0 1-1.728-24.448c0.32-3.424 3.424-7.232 8.608-13.792a113.28 113.28 0 0 0 21.6-37.216c5.504-17.6 19.968-93.088-15.84-142.976a100 100 0 0 0-76.192-40.32 270.304 270.304 0 0 1 19.488 201.952 177.6 177.6 0 0 1-33.664 58.464c-1.44 1.856-2.72 3.2-3.68 4.64v2.176c29.632 20.576 92.8 65.376 131.392 93.184a105.6 105.6 0 0 1 44.448 86.048v8.128a56.096 56.096 0 0 0 42.656-55.264v-14.112a56.768 56.768 0 0 0-24.096-46.528" fill="#FFFFFF" p-id="1282"></path><path d="M674.688 771.136h-392.864a68.896 68.896 0 0 1-72.128-64.832v-16a62.592 62.592 0 0 1 30.432-52.736c45.632-28.8 123.84-78.88 142.56-90.624a48 48 0 0 0 2.176-27.712c-0.448-3.52-4.32-8.192-10.88-15.648a136.992 136.992 0 0 1-27.328-42.176c-7.424-19.904-25.6-105.6 19.936-162.08a156.48 156.48 0 0 1 222.528 0c45.184 56.672 26.944 142.176 20.032 162.08a126.912 126.912 0 0 1-27.424 42.176c-6.4 7.456-10.432 11.712-10.816 15.648a46.72 46.72 0 0 0 2.176 27.712c18.656 11.328 97.312 61.344 142.496 90.624a62.592 62.592 0 0 1 30.432 52.736v16a67.808 67.808 0 0 1-71.264 64.8" fill="#FFFFFF" p-id="1283"></path></svg>