<svg xmlns="http://www.w3.org/2000/svg" xmlns:xlink="http://www.w3.org/1999/xlink" width="200.010009765625" height="240.01214599609375" viewBox="0 0 200.010009765625 240.01214599609375" fill="none">
<g  opacity="0.3">
<g opacity="0.3">
<path d="M139.67 49.2528C134.203 49.2441 128.961 47.0686 125.095 43.1993C121.229 39.3322 119.056 34.0911 119.051 28.6231L119.051 0.00213623L26.9205 0.00213623C23.3852 -2.41695e-05 19.8845 0.695625 16.6189 2.04804C13.3534 3.40045 10.3854 5.38153 7.88606 7.88111C5.38508 10.3785 3.40206 13.3469 2.0488 16.6113C0.695539 19.8778 0 23.3777 0 26.9121L0 189.132C0 192.667 0.695539 196.166 2.0488 199.433C3.40206 202.697 5.38508 205.666 7.88606 208.163C10.3854 210.663 13.3534 212.644 16.6189 213.996C19.8845 215.349 23.3852 216.044 26.9205 216.042L137.519 216.042C144.657 216.042 151.501 213.208 156.549 208.161C161.595 203.114 164.43 196.27 164.43 189.132L164.43 49.2528L139.67 49.2528Z"   fill="#A140FF" >
</path>
</g>
</g>
<path d="M119.05 0.00213623L119.05 28.6223C119.055 34.09 121.229 39.3327 125.095 43.2003C128.961 47.0679 134.202 49.2443 139.67 49.2521L164.43 49.2521L119.05 0.00213623Z"   fill="#A140FF" >
</path>
<path d="M42.85 186.672L42.85 223.952C42.85 232.822 50.04 240.012 58.9102 240.012L183.95 240.012C192.82 240.012 200.01 232.822 200.01 223.952L200.01 186.672C200.01 177.803 192.82 170.612 183.95 170.612L58.9102 170.612C50.04 170.612 42.85 177.803 42.85 186.672Z"   fill="#A140FF" >
</path>
<path d="M74.38 213.382L74.38 220.652L81.91 220.652L81.91 213.382L74.38 213.382Z"   fill="#FFFFFF" >
</path>
<path d="M98.1199 190.577L85.7 190.577L85.7 220.652L92.9699 220.652L92.9699 209.29L94.63 209.29L101.14 220.652L109.14 220.652L101.99 208.82C104.048 208.405 105.901 207.297 107.24 205.68C108.469 204.088 109.108 202.119 109.05 200.109C109.082 198.389 108.657 196.691 107.82 195.188C106.95 193.718 105.662 192.541 104.12 191.808C102.241 190.942 100.188 190.521 98.1199 190.577ZM100.67 203.319C101.025 202.943 101.298 202.498 101.47 202.01C101.642 201.522 101.71 201.004 101.67 200.489C101.703 199.977 101.632 199.464 101.46 198.98C101.288 198.497 101.019 198.054 100.67 197.679C99.7858 196.941 98.6471 196.582 97.4999 196.678L92.9901 196.678L92.9699 204.319L97.48 204.319C98.6321 204.406 99.7736 204.048 100.67 203.319Z" fill-rule="evenodd"  fill="#FFFFFF" >
</path>
<path d="M121.98 209.632L129.51 209.632L125.76 198.572L121.98 209.632ZM110.58 220.652L118.23 220.652L120.11 215.162L131.38 215.162L133.21 220.652L140.95 220.652L129.95 190.792L121.58 190.792L110.58 220.652Z" fill-rule="evenodd"  fill="#FFFFFF" >
</path>
<path d="M143.8 190.577L143.8 220.652L151.07 220.652L151.07 209.29L152.73 209.29L159.24 220.652L167.24 220.652L160.09 208.82C162.148 208.405 164.001 207.297 165.34 205.68C166.569 204.088 167.209 202.119 167.15 200.109C167.182 198.389 166.757 196.691 165.92 195.188C165.05 193.718 163.762 192.541 162.22 191.808C160.341 190.942 158.288 190.521 156.22 190.577L143.8 190.577ZM151.07 204.319L155.58 204.319C156.732 204.404 157.873 204.046 158.77 203.319C159.125 202.943 159.398 202.498 159.57 202.01C159.742 201.522 159.81 201.004 159.77 200.489C159.803 199.977 159.732 199.464 159.56 198.98C159.388 198.497 159.119 198.054 158.77 197.679C157.886 196.941 156.747 196.582 155.6 196.678L151.09 196.678L151.07 204.319Z" fill-rule="evenodd"  fill="#FFFFFF" >
</path>
<path d="M32.45 143.352C31.4579 143.352 30.5072 143.746 29.8057 144.448C29.1042 145.149 28.71 146.1 28.71 147.092C28.71 148.085 29.1035 149.037 29.805 149.74C30.5058 150.443 31.4572 150.839 32.45 150.842L94.9703 150.842C95.9644 150.842 96.9187 150.447 97.6216 149.744C98.3252 149.041 98.72 148.087 98.72 147.092C98.72 146.6 98.6227 146.113 98.4344 145.659C98.2461 145.204 97.9695 144.791 97.6209 144.444C97.2729 144.097 96.8592 143.821 96.4041 143.634C95.9497 143.447 95.4618 143.351 94.9703 143.352L32.45 143.352Z"   fill="#A140FF" >
</path>
<path d="M32.45 121.262C31.4586 121.265 30.5093 121.66 29.8085 122.36C29.1077 123.061 28.7128 124.011 28.71 125.002C28.71 125.995 29.1035 126.947 29.805 127.65C30.5058 128.353 31.4572 128.75 32.45 128.752L94.9703 128.752C95.9644 128.752 96.9187 128.357 97.6216 127.654C98.3252 126.951 98.72 125.997 98.72 125.002C98.7172 124.009 98.321 123.058 97.6181 122.357C96.9152 121.656 95.963 121.262 94.9703 121.262L32.45 121.262Z"   fill="#A140FF" >
</path>
<path d="M29.805 100.274C29.1035 100.977 28.71 101.929 28.71 102.922C28.71 103.914 29.1042 104.865 29.8057 105.567C30.5072 106.268 31.4579 106.662 32.45 106.662L94.9703 106.662C95.4618 106.663 95.9497 106.568 96.4041 106.38C96.8592 106.193 97.2729 105.918 97.6209 105.57C97.9695 105.223 98.2461 104.81 98.4344 104.356C98.6227 103.901 98.72 103.414 98.72 102.922C98.72 101.928 98.3252 100.974 97.6216 100.27C96.9187 99.5671 95.9644 99.1721 94.9703 99.1721L32.45 99.1721C31.4572 99.1747 30.5058 99.571 29.805 100.274Z"   fill="#A140FF" >
</path>
<path d="M29.8057 83.4767C30.5072 84.1781 31.4579 84.5721 32.45 84.5721L94.9703 84.5721C95.4618 84.5734 95.9497 84.4777 96.4041 84.2903C96.8592 84.103 97.2729 83.8277 97.6209 83.4803C97.9695 83.1329 98.2461 82.7201 98.4344 82.2657C98.6227 81.8113 98.72 81.3241 98.72 80.8321C98.72 80.3401 98.6227 79.853 98.4344 79.3986C98.2461 78.9442 97.9695 78.5315 97.6209 78.184C97.2729 77.8366 96.8592 77.5613 96.4041 77.3739C95.9497 77.1866 95.4618 77.0908 94.9703 77.0921L32.45 77.0921C31.4579 77.0921 30.5072 77.4862 29.8057 78.1875C29.1042 78.8889 28.71 79.8402 28.71 80.8321C28.71 81.824 29.1042 82.7753 29.8057 83.4767Z"   fill="#A140FF" >
</path>
<path d="M110.32 127.142L110.32 139.832C110.323 143.197 111.661 146.423 114.04 148.802C116.419 151.182 119.645 152.52 123.01 152.522C126.373 152.517 129.597 151.178 131.974 148.799C134.351 146.42 135.687 143.195 135.69 139.832L135.69 127.142L110.32 127.142ZM129.21 139.832L129.21 133.632L116.81 133.632L116.81 139.832C116.813 141.476 117.467 143.051 118.629 144.213C119.791 145.375 121.367 146.029 123.01 146.032C124.654 146.029 126.229 145.375 127.391 144.213C128.553 143.051 129.207 141.476 129.21 139.832Z" fill-rule="evenodd"  fill="#A140FF" >
</path>
<path d="M123.04 114.432L110.32 114.432L110.32 127.152L123.04 127.152L123.04 114.432Z"   fill="#A140FF" >
</path>
<path d="M135.72 101.722L123 101.722L123 114.442L135.72 114.442L135.72 101.722Z"   fill="#A140FF" >
</path>
<path d="M123.04 89.0121L110.32 89.0121L110.32 101.732L123.04 101.732L123.04 89.0121Z"   fill="#A140FF" >
</path>
<path d="M135.72 76.3021L123 76.3021L123 89.0221L135.72 89.0221L135.72 76.3021Z"   fill="#A140FF" >
</path>
</svg>
