<svg xmlns="http://www.w3.org/2000/svg" xmlns:xlink="http://www.w3.org/1999/xlink" width="200" height="240" viewBox="0 0 200 240" fill="none">
<g  opacity="0.3">
<g opacity="0.3">
<path d="M137.51 216C141.045 216.002 144.545 215.307 147.811 213.954C151.077 212.602 154.045 210.622 156.544 208.122C159.045 205.623 161.028 202.656 162.381 199.39C163.733 196.126 164.43 192.624 164.43 189.091L164.43 49.2394L139.67 49.2394C134.203 49.235 128.961 47.0599 125.095 43.1957C121.229 39.3293 119.056 34.087 119.051 28.62L119.051 0L26.9106 0C19.7744 0 12.9324 2.83392 7.88606 7.87752C2.83971 12.9233 0.0032886 19.764 0 26.9006L0 189.121C0.0082215 196.251 2.84628 203.09 7.89264 208.129C12.9374 213.168 19.7776 216 26.9106 216L137.51 216Z"   fill="#FF3E4C" >
</path>
</g>
</g>
<path d="M119.05 0L119.05 28.6198C119.055 34.0874 121.23 39.329 125.096 43.1948C128.961 47.0606 134.203 49.2346 139.67 49.24L164.43 49.24L119.05 0Z"   fill="#FF3E4C" >
</path>
<path d="M42.84 186.66L42.84 223.94C42.84 232.809 50.0301 240 58.9002 240L183.94 240C192.81 240 200 232.809 200 223.94L200 186.66C200 177.791 192.81 170.6 183.94 170.6L58.9002 170.6C50.0301 170.6 42.84 177.791 42.84 186.66Z"   fill="#FF3E4C" >
</path>
<path d="M65.18 213.37L65.18 220.64L72.7 220.64L72.7 213.37L65.18 213.37Z"   fill="#FFFFFF" >
</path>
<path d="M76.49 220.64L83.76 220.64L83.76 209.288L85.42 209.288L91.93 220.64L100 220.64L92.7801 208.818C94.8393 208.394 96.6936 207.283 98.04 205.668C99.2608 204.072 99.8963 202.105 99.8399 200.097C99.8719 198.38 99.4473 196.685 98.6101 195.186C97.7433 193.714 96.4542 192.536 94.9101 191.805C93.0335 190.932 90.9792 190.507 88.9101 190.565L76.49 190.565L76.49 220.64ZM88.2699 204.308C89.4221 204.394 90.5636 204.036 91.46 203.307C91.8155 202.934 92.0882 202.489 92.2605 202.004C92.4328 201.518 92.5008 201.001 92.4601 200.487C92.4937 199.975 92.4225 199.462 92.2506 198.978C92.0785 198.495 91.8096 198.052 91.46 197.676C90.5767 196.937 89.4372 196.578 88.2899 196.676L83.78 196.676L83.76 204.308L88.2699 204.308Z" fill-rule="evenodd"  fill="#FFFFFF" >
</path>
<path d="M122.17 215.16L124 220.64L131.72 220.64L120.72 190.79L112.34 190.79L101.34 220.64L109 220.64L110.9 215.16L122.17 215.16ZM116.56 198.57L112.77 209.63L120.3 209.63L116.56 198.57Z" fill-rule="evenodd"  fill="#FFFFFF" >
</path>
<path d="M158.48 190.57L150.48 190.57L145.21 212.35L141.34 190.57L133.43 190.57L140.62 220.64L149.62 220.64L154.47 200.53L159.28 220.64L168.28 220.64L175.46 190.57L167.66 190.57L163.75 212.35L158.48 190.57Z"   fill="#FFFFFF" >
</path>
<path d="M60.2901 115.06L56.2899 108.12L47.1 92.3498L43.7501 86.6C42.715 88.4489 41.8159 90.3705 41.06 92.3498C39.1618 97.3489 38.1927 102.653 38.2 108C38.1916 113.351 39.1608 118.658 41.06 123.66L65.34 123.66L60.2901 115.06Z"   fill="#FF3E4C" >
</path>
<path d="M109.35 123.66L104.45 115.1L99.4501 123.66L95.37 130.66L86.3699 146.02L82.83 152.02C85.0785 151.989 87.3217 151.788 89.5401 151.42C100.06 149.645 109.577 144.108 116.32 135.84L113.35 130.66L109.35 123.66Z"   fill="#FF3E4C" >
</path>
<path d="M123.33 92.3101L99.43 92.3101L104.51 101.18L108.51 108.18L117.37 123.65L120.67 129.43C121.705 127.571 122.604 125.639 123.36 123.65C125.266 118.653 126.239 113.349 126.23 108C126.234 102.636 125.251 97.3179 123.33 92.3101Z"   fill="#FF3E4C" >
</path>
<path d="M116.63 80.5302C109.816 71.9765 100.056 66.2714 89.2602 64.53L86.41 69.53L82.41 76.53L77.32 85.41L120 85.41C118.988 83.7091 117.862 82.0788 116.63 80.5302Z"   fill="#FF3E4C" >
</path>
<path d="M69.3099 85.4101L78.4 69.5302L81.57 64C79.5777 64.0331 77.5897 64.2002 75.6201 64.4999C64.8343 66.1532 55.0494 71.7604 48.17 80.2302L51.17 85.4101L55.17 92.41L60.3099 101.22L65.3099 92.41L69.3099 85.4101Z"   fill="#FF3E4C" >
</path>
<path d="M44.44 130.62C45.59 132.53 46.8803 134.351 48.3001 136.07C55.0811 144.274 64.606 149.742 75.1099 151.46L78.3199 145.96L82.3202 139.08L87.32 130.62L44.44 130.62Z"   fill="#FF3E4C" >
</path>
</svg>
