<svg xmlns="http://www.w3.org/2000/svg" xmlns:xlink="http://www.w3.org/1999/xlink" width="200" height="240" viewBox="0 0 200 240" fill="none">
<g  opacity="0.3">
<g opacity="0.3">
<path d="M0 26.9093L0 189.13C0.0098652 196.26 2.85104 203.094 7.89545 208.133C12.9415 213.17 19.7797 216 26.9106 216L137.509 216C144.647 216 151.492 213.164 156.538 208.118C161.585 203.072 164.42 196.227 164.42 189.091L164.42 49.2394L139.67 49.2394C134.201 49.235 128.96 47.0599 125.092 43.1957C121.224 39.3293 119.048 34.0891 119.04 28.62L119.04 0L26.9106 0C19.7731 0 12.9283 2.83608 7.88229 7.88184C2.8346 12.9276 0 19.7726 0 26.9093Z"   fill="#FF9908" >
</path>
</g>
</g>
<path d="M119.04 0L119.04 28.6198C119.048 34.0879 121.224 39.33 125.092 43.1953C128.959 47.0611 134.202 49.2346 139.67 49.24L164.42 49.24L119.04 0Z"   fill="#FF9908" >
</path>
<path d="M42.8401 186.66L42.8401 223.94C42.8401 232.81 50.0302 240 58.9003 240L183.94 240C192.81 240 200 232.81 200 223.94L200 186.66C200 177.79 192.81 170.6 183.94 170.6L58.9003 170.6C50.0302 170.6 42.8401 177.79 42.8401 186.66Z"   fill="#FF9908" >
</path>
<path d="M78.3701 213.37L78.3701 220.64L85.9001 220.64L85.9001 213.37L78.3701 213.37Z"   fill="#FFFFFF" >
</path>
<path d="M105.47 201.998C105.642 201.51 105.71 200.992 105.67 200.477C105.705 199.966 105.635 199.454 105.463 198.972C105.291 198.49 105.021 198.049 104.67 197.676C104.234 197.309 103.729 197.031 103.185 196.859C102.641 196.688 102.068 196.625 101.5 196.676L96.9899 196.676L96.97 204.308L101.48 204.308C102.632 204.394 103.773 204.036 104.67 203.307C105.025 202.932 105.298 202.486 105.47 201.998ZM106.01 208.818C108.069 208.394 109.923 207.283 111.27 205.668C112.491 204.072 113.126 202.105 113.07 200.097C113.102 198.377 112.677 196.679 111.84 195.176C110.97 193.706 109.682 192.529 108.14 191.795C106.261 190.929 104.208 190.508 102.14 190.565L89.7 190.565L89.7 220.64L96.97 220.64L96.97 209.278L98.63 209.278L105.14 220.64L113.16 220.64L106.01 208.818Z" fill-rule="evenodd"  fill="#FFFFFF" >
</path>
<path d="M127.84 220.939C129.814 220.994 131.774 220.587 133.561 219.748C135.033 219.046 136.275 217.94 137.142 216.558C137.93 215.268 138.355 213.79 138.372 212.278C138.447 210.589 137.985 208.919 137.052 207.508C136.236 206.346 135.156 205.394 133.901 204.728C132.38 203.961 130.802 203.312 129.181 202.788C127.851 202.308 126.83 201.908 126.12 201.598C125.456 201.316 124.854 200.905 124.35 200.388C123.89 199.899 123.639 199.25 123.65 198.578C123.624 198.207 123.681 197.835 123.818 197.488C123.954 197.142 124.167 196.831 124.44 196.578C125.018 196.103 125.753 195.86 126.5 195.898C126.932 195.876 127.364 195.941 127.77 196.091C128.176 196.24 128.547 196.471 128.861 196.768C129.47 197.416 129.853 198.244 129.951 199.128L137.822 199.128C137.75 197.864 137.416 196.63 136.84 195.502C136.265 194.374 135.462 193.379 134.482 192.578C132.17 190.884 129.342 190.043 126.48 190.198C124.594 190.152 122.719 190.492 120.969 191.198C119.46 191.827 118.157 192.866 117.209 194.198C116.282 195.565 115.806 197.187 115.848 198.838C115.772 200.503 116.227 202.149 117.149 203.538C117.946 204.683 119.011 205.616 120.249 206.258C121.759 206.991 123.316 207.623 124.91 208.148C126.21 208.608 127.23 208.998 127.97 209.318C128.662 209.617 129.289 210.045 129.821 210.578C130.066 210.831 130.258 211.13 130.385 211.458C130.512 211.786 130.572 212.136 130.561 212.488C130.572 212.859 130.507 213.228 130.369 213.572C130.231 213.916 130.024 214.228 129.761 214.488C129.15 215.025 128.353 215.302 127.54 215.258C126.559 215.288 125.607 214.928 124.89 214.258C124.164 213.548 123.729 212.592 123.67 211.578L115.928 211.578C115.967 212.922 116.31 214.24 116.93 215.433C117.55 216.626 118.432 217.664 119.509 218.468C121.936 220.193 124.866 221.062 127.84 220.939Z"   fill="#FFFFFF" >
</path>
<path d="M164.022 212.278C164.097 210.589 163.635 208.919 162.702 207.508C161.886 206.346 160.806 205.394 159.551 204.728C158.03 203.961 156.452 203.312 154.83 202.788C153.49 202.308 152.47 201.908 151.77 201.598C151.105 201.317 150.504 200.905 150 200.388C149.536 199.901 149.284 199.251 149.299 198.578C149.273 198.207 149.331 197.835 149.467 197.489C149.604 197.143 149.817 196.831 150.09 196.578C150.667 196.103 151.402 195.86 152.15 195.898C152.582 195.876 153.014 195.941 153.42 196.091C153.825 196.24 154.197 196.471 154.51 196.768C155.123 197.413 155.503 198.244 155.59 199.128L163.462 199.128C163.392 197.864 163.059 196.628 162.484 195.5C161.908 194.373 161.104 193.377 160.121 192.578C157.81 190.884 154.982 190.042 152.12 190.198C150.234 190.152 148.358 190.492 146.609 191.198C145.098 191.824 143.794 192.864 142.848 194.198C141.921 195.565 141.446 197.187 141.488 198.838C141.413 200.502 141.864 202.146 142.778 203.538C143.58 204.683 144.647 205.617 145.889 206.258C147.394 206.994 148.948 207.625 150.539 208.148C151.85 208.608 152.87 208.998 153.61 209.318C154.301 209.619 154.928 210.046 155.461 210.578C155.704 210.832 155.895 211.132 156.022 211.459C156.149 211.787 156.21 212.137 156.201 212.488C156.212 212.86 156.146 213.229 156.007 213.574C155.867 213.918 155.657 214.23 155.391 214.489C154.784 215.026 153.99 215.302 153.18 215.258C152.196 215.287 151.241 214.928 150.519 214.258C149.796 213.547 149.365 212.591 149.309 211.578L141.568 211.578C141.607 212.921 141.948 214.238 142.566 215.431C143.185 216.624 144.064 217.662 145.138 218.468C147.569 220.193 150.503 221.062 153.48 220.939C155.454 220.994 157.414 220.587 159.201 219.748C160.669 219.043 161.906 217.937 162.772 216.558C163.57 215.272 164.002 213.792 164.022 212.278Z"   fill="#FFFFFF" >
</path>
<path d="M57.8601 125.11C53.8561 125.11 50.6101 128.356 50.6101 132.36C50.6101 136.364 53.8561 139.61 57.8601 139.61C61.8641 139.61 65.1101 136.364 65.1101 132.36C65.1101 128.356 61.8641 125.11 57.8601 125.11Z"   fill="#FF9908" >
</path>
<path d="M50.6101 106.45C59.4039 106.461 67.835 109.959 74.0532 116.177C80.2715 122.395 83.7693 130.826 83.78 139.62L93.2301 139.62C93.2169 128.321 88.7222 117.488 80.7322 109.498C72.7422 101.508 61.9095 97.0132 50.6101 97L50.6101 106.45Z"   fill="#FF9908" >
</path>
<path d="M95.2786 94.9414C83.4305 83.0927 67.3663 76.4282 50.6101 76.4099L50.6101 85.8602C64.8604 85.876 78.523 91.5438 88.5996 101.62C98.6762 111.697 104.344 125.36 104.36 139.61L113.81 139.61C113.792 122.854 107.127 106.79 95.2786 94.9414Z"   fill="#FF9908" >
</path>
</svg>
