<svg xmlns="http://www.w3.org/2000/svg" xmlns:xlink="http://www.w3.org/1999/xlink" width="200.010009765625" height="240" viewBox="0 0 200.010009765625 240" fill="none">
<g  opacity="0.3">
<g opacity="0.3">
<path d="M0 26.9198L0 189.13C0 196.271 2.83642 203.117 7.88442 208.164C12.9324 213.213 19.7809 216.05 26.9205 216.05L137.519 216.05C141.055 216.05 144.555 215.354 147.821 214C151.087 212.647 154.053 210.664 156.552 208.164C159.051 205.664 161.033 202.696 162.384 199.431C163.736 196.165 164.432 192.665 164.43 189.13L164.43 49.2508L139.67 49.24C134.203 49.2356 128.961 47.06 125.095 43.1949C121.229 39.3297 119.056 34.0862 119.051 28.6201L119.051 0L26.9205 0C19.7809 0 12.9324 2.83674 7.88442 7.88366C2.83642 12.9328 0 19.7794 0 26.9198Z"   fill="#FF9908" >
</path>
</g>
</g>
<path d="M119.05 0L119.05 28.6198C119.055 34.0874 121.23 39.329 125.096 43.1948C128.961 47.0606 134.203 49.2346 139.67 49.24L164.43 49.24L119.05 0Z"   fill="#FF9908" >
</path>
<path d="M42.85 186.66L42.85 223.94C42.85 232.809 50.04 240 58.9102 240L183.95 240C192.82 240 200.01 232.809 200.01 223.94L200.01 186.66C200.01 177.791 192.82 170.6 183.95 170.6L58.9102 170.6C50.04 170.6 42.85 177.791 42.85 186.66Z"   fill="#FF9908" >
</path>
<path d="M72.47 213.37L72.47 220.65L80 220.65L80 213.37L72.47 213.37Z"   fill="#FFFFFF" >
</path>
<path d="M82.9785 211.589C83.0148 212.932 83.3549 214.25 83.9732 215.444C84.5917 216.637 85.4723 217.674 86.5491 218.479C88.9787 220.195 91.9082 221.06 94.8808 220.939C96.858 220.998 98.8214 220.591 100.612 219.749C102.083 219.05 103.322 217.942 104.182 216.559C105.001 215.231 105.428 213.699 105.413 212.139C105.486 210.453 105.024 208.787 104.092 207.379C103.275 206.215 102.196 205.259 100.942 204.589C99.4208 203.824 97.8423 203.178 96.2208 202.659C94.8907 202.179 93.8705 201.779 93.1603 201.469C92.4969 201.186 91.8978 200.771 91.4001 200.249C91.1684 200.011 90.9863 199.729 90.8643 199.42C90.7426 199.111 90.6831 198.781 90.6899 198.449C90.6651 198.078 90.7233 197.706 90.8598 197.36C90.9967 197.014 91.2083 196.703 91.4801 196.449C92.0578 195.973 92.7929 195.731 93.5405 195.769C93.9724 195.746 94.4045 195.811 94.8104 195.961C95.2161 196.11 95.5872 196.341 95.9009 196.639C96.5169 197.283 96.9006 198.113 96.9909 198.999L104.862 198.999C104.771 197.761 104.428 196.555 103.853 195.454C103.279 194.354 102.485 193.382 101.522 192.599C99.212 190.901 96.383 190.059 93.5205 190.219C91.6377 190.173 89.7653 190.513 88.0196 191.219C86.5035 191.841 85.1958 192.882 84.2489 194.219C83.3222 195.582 82.8466 197.201 82.8886 198.849C82.8106 200.514 83.2661 202.161 84.1887 203.549C84.9837 204.699 86.0482 205.636 87.2893 206.279C88.799 207.012 90.3561 207.644 91.9501 208.169C93.2502 208.622 94.2706 209.012 95.0106 209.339C95.7046 209.628 96.3337 210.053 96.8609 210.589C97.1088 210.842 97.3031 211.143 97.4321 211.472C97.561 211.802 97.6218 212.155 97.611 212.509C97.6227 212.88 97.5567 213.25 97.4172 213.594C97.2777 213.939 97.0676 214.25 96.8009 214.509C96.1921 215.042 95.3985 215.315 94.5907 215.269C93.6066 215.3 92.6502 214.94 91.93 214.269C91.2067 213.558 90.7751 212.602 90.7199 211.589L82.9785 211.589Z"   fill="#FFFFFF" >
</path>
<path d="M107.26 190.58L117.68 220.65L127.08 220.65L137.55 190.58L129.76 190.58L122.4 213.2L115.05 190.58L107.26 190.58Z"   fill="#FFFFFF" >
</path>
<path d="M168.68 203.682L153.412 203.682L153.412 208.913L162.601 208.913C162.155 210.537 161.18 211.966 159.831 212.973C158.51 213.931 156.913 214.433 155.282 214.404C154.14 214.475 152.997 214.308 151.924 213.912C150.851 213.515 149.873 212.899 149.052 212.103C147.593 210.57 146.863 208.373 146.863 205.512C146.736 203.234 147.48 200.992 148.942 199.241C149.638 198.473 150.493 197.867 151.449 197.465C152.404 197.065 153.436 196.879 154.472 196.921C155.804 196.894 157.116 197.24 158.261 197.921C159.283 198.522 160.098 199.418 160.601 200.491L168.3 200.491C167.797 197.502 166.165 194.82 163.741 193C161.03 191.032 157.739 190.029 154.392 190.15C151.638 190.084 148.916 190.75 146.503 192.08C144.272 193.347 142.455 195.233 141.273 197.511C140.009 199.968 139.374 202.7 139.424 205.462C139.365 208.242 140.001 210.992 141.273 213.464C142.457 215.746 144.282 217.634 146.523 218.894C148.972 220.232 151.732 220.898 154.522 220.824C156.815 220.865 159.089 220.387 161.171 219.424C163.011 218.562 164.645 217.314 165.96 215.764C167.17 214.322 168.093 212.662 168.68 210.873L168.68 203.682Z"   fill="#FFFFFF" >
</path>
<path d="M44.4101 127.73C44.4206 117.639 48.4336 107.965 55.569 100.829C62.7043 93.694 72.3786 89.6808 82.47 89.6702C92.5621 89.6808 102.237 93.6936 109.374 100.829C116.511 107.964 120.527 117.638 120.54 127.73L123.03 127.73C123.017 116.978 118.739 106.67 111.135 99.0677C103.531 91.4658 93.2224 87.1906 82.47 87.1801C71.7175 87.1906 61.4088 91.4658 53.8046 99.0677C46.2012 106.67 41.923 116.978 41.91 127.73L44.4101 127.73Z"   fill="#FF9908" >
</path>
<path d="M24.84 89.6701L140.1 89.6701L140.1 87.1801L24.84 87.1801L24.84 89.6701Z"   fill="#FF9908" >
</path>
<path d="M39.17 131.72L47.14 131.72L47.14 123.75L39.17 123.75L39.17 131.72Z"   fill="#FF9908" >
</path>
<path d="M117.79 131.72L125.76 131.72L125.76 123.75L117.79 123.75L117.79 131.72Z"   fill="#FF9908" >
</path>
<path d="M78.48 92.2801L86.45 92.2801L86.45 84.3101L78.48 84.3101L78.48 92.2801Z"   fill="#FF9908" >
</path>
<path d="M24.71 84.3101C22.5064 84.3101 20.72 86.0965 20.72 88.3001C20.72 90.5037 22.5064 92.2901 24.71 92.2901C26.9136 92.2901 28.7 90.5037 28.7 88.3001C28.7 86.0965 26.9136 84.3101 24.71 84.3101Z"   fill="#FF9908" >
</path>
<path d="M139.72 84.3101C137.516 84.3101 135.73 86.0965 135.73 88.3001C135.73 90.5037 137.516 92.2901 139.72 92.2901C141.924 92.2901 143.71 90.5037 143.71 88.3001C143.71 86.0965 141.924 84.3101 139.72 84.3101Z"   fill="#FF9908" >
</path>
</svg>
