<svg xmlns="http://www.w3.org/2000/svg" xmlns:xlink="http://www.w3.org/1999/xlink" width="200.001708984375" height="240" viewBox="0 0 200.001708984375 240" fill="none">
<g  opacity="0.3">
<g opacity="0.3">
<path d="M2.04722 199.431C3.39883 202.696 5.38021 205.664 7.87955 208.164C10.3789 210.664 13.3452 212.647 16.6108 214C19.8764 215.354 23.3771 216.05 26.9123 216.05L137.511 216.05C144.651 216.05 151.499 213.213 156.547 208.164C161.595 203.117 164.432 196.271 164.432 189.13L164.432 49.2508L139.672 49.24C134.205 49.2356 128.963 47.06 125.097 43.1949C121.231 39.3297 119.057 34.0862 119.052 28.6201L119.052 0L26.9123 0C23.3771 0 19.8764 0.695681 16.6108 2.05031C13.3452 3.40279 10.3789 5.38613 7.87955 7.88583C5.38021 10.3855 3.39883 13.3519 2.04722 16.6186C0.695604 19.8852 6.46844e-05 23.3853 0.00170898 26.9198L0.00170898 189.13C6.46844e-05 192.665 0.695604 196.165 2.04722 199.431Z"   fill="#A140FF" >
</path>
</g>
</g>
<path d="M119.052 0L119.052 28.6198C119.057 34.0874 121.231 39.329 125.097 43.1948C128.963 47.0606 134.205 49.2346 139.672 49.24L164.432 49.24L119.052 0Z"   fill="#A140FF" >
</path>
<path d="M42.8418 186.66L42.8418 223.94C42.8418 232.809 50.0319 240 58.902 240L183.942 240C192.812 240 200.002 232.809 200.002 223.94L200.002 186.66C200.002 177.791 192.812 170.6 183.942 170.6L58.902 170.6C50.0319 170.6 42.8418 177.791 42.8418 186.66Z"   fill="#A140FF" >
</path>
<path d="M76.1018 213.37L76.1018 220.65L83.6318 220.65L83.6318 213.37L76.1018 213.37Z"   fill="#FFFFFF" >
</path>
<path d="M85.4417 190.58L85.4417 196.36L93.5218 196.36L93.5218 220.65L100.842 220.65L100.842 196.36L109.002 196.36L109.002 190.58L85.4417 190.58Z"   fill="#FFFFFF" >
</path>
<path d="M112.082 190.58L112.082 220.65L119.362 220.65L119.362 190.58L112.082 190.58Z"   fill="#FFFFFF" >
</path>
<path d="M141.202 202.95L131.672 202.95L131.672 196.36L144.002 196.36L144.002 190.58L124.402 190.58L124.402 220.65L131.672 220.65L131.672 208.48L141.202 208.48L141.202 202.95Z"   fill="#FFFFFF" >
</path>
<path d="M164.532 202.95L155.002 202.95L155.002 196.36L167.332 196.36L167.332 190.58L147.732 190.58L147.732 220.65L155.002 220.65L155.002 208.48L164.532 208.48L164.532 202.95Z"   fill="#FFFFFF" >
</path>
<path d="M115.829 74.4071C112.775 71.3493 108.633 69.6277 104.311 69.62L60.1314 69.62C55.8079 69.6254 51.6626 71.3455 48.6044 74.4032C45.547 77.4603 43.8272 81.6061 43.8218 85.9302L43.8218 130.1C43.8272 134.424 45.547 138.57 48.6044 141.627C51.6626 144.685 55.8079 146.405 60.1314 146.41L104.311 146.41C108.633 146.402 112.775 144.681 115.829 141.623C118.883 138.565 120.599 134.422 120.602 130.1L120.602 85.9302C120.599 81.6085 118.883 77.4649 115.829 74.4071ZM51.0314 85.9302L51.0314 130.1C51.0345 132.513 51.9942 134.825 53.7003 136.532C55.4056 138.238 57.719 139.197 60.1314 139.2L104.311 139.2C106.723 139.195 109.033 138.234 110.737 136.528C112.441 134.822 113.399 132.511 113.401 130.1L113.401 85.9302C113.399 83.519 112.441 81.2076 110.737 79.5021C109.033 77.7958 106.723 76.8352 104.311 76.8298L60.1314 76.8298C57.719 76.8329 55.4056 77.792 53.7003 79.4983C51.9942 81.2045 51.0345 83.5174 51.0314 85.9302Z" fill-rule="evenodd"  fill="#A140FF" >
</path>
<path d="M51.1516 139.08C53.5329 141.462 56.7631 142.8 60.1316 142.8L104.311 142.8C107.679 142.798 110.906 141.458 113.285 139.077C115.665 136.695 117.002 133.466 117.002 130.1L117.002 121.7C115.991 121.501 114.944 121.676 114.052 122.19C110.742 124.4 103.001 121.81 98.2219 121.08C93.4418 120.35 91.9613 125.5 91.9613 125.5L86.4416 111.5L78.352 119.22C65.2715 114 54.5013 114.48 47.4316 116L47.4316 130.1C47.4316 133.468 48.7695 136.698 51.1516 139.08Z"   fill="#A140FF" >
</path>
<path d="M101.542 85.13C98.83 85.13 96.6316 87.3283 96.6316 90.0401C96.6316 92.7518 98.83 94.95 101.542 94.95C104.253 94.95 106.452 92.7518 106.452 90.0401C106.452 87.3283 104.253 85.13 101.542 85.13Z"   fill="#A140FF" >
</path>
</svg>
