<svg xmlns="http://www.w3.org/2000/svg" xmlns:xlink="http://www.w3.org/1999/xlink" width="200" height="240.010009765625" viewBox="0 0 200 240.010009765625" fill="none">
<g  opacity="0.3">
<g opacity="0.3">
<path d="M26.9106 0C19.7731 0 12.9283 2.83444 7.88229 7.88114C2.8346 12.9278 0 19.772 0 26.9099L0 189.13C0 196.266 2.8346 203.112 7.88229 208.159C12.9283 213.206 19.7731 216.04 26.9106 216.04L137.509 216.04C144.647 216.04 151.492 213.206 156.538 208.159C161.585 203.112 164.42 196.266 164.42 189.13L164.42 49.2506L139.67 49.2506C134.201 49.2442 128.96 47.0708 125.092 43.2058C121.224 39.3387 119.048 34.0976 119.04 28.6296L119.04 0L26.9106 0Z"   fill="#0072FF" >
</path>
</g>
</g>
<path d="M119.04 0L119.04 28.63C119.048 34.0977 121.224 39.3399 125.092 43.2055C128.959 47.0707 134.202 49.2446 139.67 49.25L164.42 49.25L119.04 0Z"   fill="#0072FF" >
</path>
<path d="M24.7052 77.3418C24.0032 78.0448 23.6101 78.9971 23.6101 79.99C23.6123 80.9811 24.0076 81.9308 24.7085 82.6316C25.4095 83.3324 26.3595 83.7274 27.3506 83.73L130.6 83.73C131.591 83.7274 132.541 83.3324 133.242 82.6316C133.943 81.9308 134.338 80.9811 134.34 79.99C134.34 78.9971 133.947 78.0448 133.245 77.3418C132.544 76.6388 131.593 76.2426 130.6 76.24L27.3506 76.24C26.3573 76.2426 25.4061 76.6388 24.7052 77.3418Z"   fill="#0072FF" >
</path>
<path d="M133.245 99.7118C132.544 99.0088 131.593 98.6126 130.6 98.61L27.3506 98.61C26.3573 98.6126 25.4061 99.0088 24.7052 99.7118C24.0032 100.415 23.6101 101.367 23.6101 102.36C23.6123 103.351 24.0076 104.301 24.7085 105.002C25.4095 105.702 26.3595 106.097 27.3506 106.1L130.6 106.1C131.591 106.097 132.541 105.702 133.242 105.002C133.943 104.301 134.338 103.351 134.34 102.36C134.34 101.367 133.947 100.415 133.245 99.7118Z"   fill="#0072FF" >
</path>
<path d="M134.34 124.72C134.338 123.729 133.943 122.779 133.242 122.078C132.541 121.378 131.591 120.983 130.6 120.98L27.3506 120.98C26.3595 120.983 25.4095 121.378 24.7085 122.078C24.0076 122.779 23.6123 123.729 23.6101 124.72C23.6101 125.713 24.0032 126.665 24.7052 127.368C25.4061 128.071 26.3573 128.467 27.3506 128.47L130.6 128.47C131.593 128.467 132.544 128.071 133.245 127.368C133.947 126.665 134.34 125.713 134.34 124.72Z"   fill="#0072FF" >
</path>
<path d="M23.6101 147.09C23.6101 148.082 24.0043 149.033 24.7052 149.735C25.4073 150.436 26.3584 150.83 27.3506 150.83L130.6 150.83C131.592 150.83 132.543 150.436 133.245 149.735C133.946 149.033 134.34 148.082 134.34 147.09C134.34 146.097 133.947 145.145 133.245 144.442C132.544 143.739 131.593 143.343 130.6 143.34L27.3506 143.34C26.3573 143.343 25.4061 143.739 24.7052 144.442C24.0032 145.145 23.6101 146.097 23.6101 147.09Z"   fill="#0072FF" >
</path>
<path d="M42.8401 186.67L42.8401 223.95C42.8401 232.819 50.0302 240.01 58.9003 240.01L183.94 240.01C192.81 240.01 200 232.819 200 223.95L200 186.67C200 177.801 192.81 170.61 183.94 170.61L58.9003 170.61C50.0302 170.61 42.8401 177.801 42.8401 186.67Z"   fill="#0072FF" >
</path>
<path d="M78.03 213.38L78.03 220.65L85.56 220.65L85.56 213.38L78.03 213.38Z"   fill="#FFFFFF" >
</path>
<path d="M87.3799 190.58L87.3799 196.37L95.47 196.37L95.47 220.65L102.78 220.65L102.78 196.37L110.95 196.37L110.95 190.58L87.3799 190.58Z"   fill="#FFFFFF" >
</path>
<path d="M125.92 211.29L132.26 220.65L140.89 220.65L130.77 205.72L140.25 190.58L131.96 190.58L126.64 199.64L120.47 190.58L111.84 190.58L121.75 205.17L112.14 220.65L120.47 220.65L125.92 211.29Z"   fill="#FFFFFF" >
</path>
<path d="M141.74 190.58L141.74 196.37L149.82 196.37L149.82 220.65L157.14 220.65L157.14 196.37L165.3 196.37L165.3 190.58L141.74 190.58Z"   fill="#FFFFFF" >
</path>
</svg>
