<svg xmlns="http://www.w3.org/2000/svg" xmlns:xlink="http://www.w3.org/1999/xlink" width="200.010009765625" height="240.002197265625" viewBox="0 0 200.010009765625 240.002197265625" fill="none">
<g  opacity="0.3">
<g opacity="0.3">
<path d="M2.0488 16.6126C0.697183 19.8764 0 23.3777 0 26.9115L0 189.132C0.0098658 196.264 2.85122 203.101 7.89922 208.138C12.9472 213.177 19.7875 216.004 26.9205 216.002L137.519 216.002C141.055 216.002 144.554 215.307 147.818 213.955C151.083 212.602 154.05 210.619 156.549 208.12C159.047 205.621 161.03 202.656 162.381 199.39C163.734 196.126 164.43 192.627 164.43 189.093L164.43 49.2416L139.67 49.2416C134.203 49.2372 128.961 47.0621 125.095 43.1979C121.229 39.3315 119.056 34.0892 119.051 28.6222L119.051 0.00219727L26.9205 0.00219727C23.3852 3.72657e-05 19.8845 0.695557 16.6189 2.04772C13.3534 3.39988 10.3854 5.3806 7.88606 7.87972C5.38508 10.3788 3.40206 13.3467 2.0488 16.6126Z"   fill="#00C650" >
</path>
</g>
</g>
<path d="M119.05 0.00219727L119.05 28.622C119.055 34.0896 121.23 39.3312 125.095 43.197C128.961 47.0628 134.203 49.2368 139.67 49.2422L164.43 49.2422L119.05 0.00219727Z"   fill="#00C650" >
</path>
<path d="M42.85 186.662L42.85 223.942C42.85 232.812 50.04 240.002 58.9102 240.002L183.95 240.002C192.82 240.002 200.01 232.812 200.01 223.942L200.01 186.662C200.01 177.792 192.82 170.602 183.95 170.602L58.9102 170.602C50.04 170.602 42.85 177.792 42.85 186.662Z"   fill="#00C650" >
</path>
<path d="M63.8199 213.372L63.8199 220.642L71.3499 220.642L71.3499 213.372L63.8199 213.372Z"   fill="#FFFFFF" >
</path>
<path d="M91.04 190.572L85.7601 212.352L81.89 190.572L73.98 190.572L81.1701 220.642L90.1699 220.642L95.0202 200.522L99.82 220.642L108.82 220.642L116.01 190.572L108.23 190.572L104.32 212.352L99.0399 190.572L91.04 190.572Z"   fill="#FFFFFF" >
</path>
<path d="M128.67 190.782L117.67 220.642L125.32 220.642L127.19 215.152L138.47 215.152L140.31 220.642L148.05 220.642L137.05 190.782L128.67 190.782ZM129.07 209.622L136.59 209.622L132.85 198.572L129.07 209.622Z" fill-rule="evenodd"  fill="#FFFFFF" >
</path>
<path d="M148.72 190.572L159.14 220.642L168.54 220.642L179 190.572L171.22 190.572L163.86 213.202L156.5 190.572L148.72 190.572Z"   fill="#FFFFFF" >
</path>
<path d="M71.9202 71.1023C68.5201 71.1023 65.2588 72.4531 62.8546 74.8573C60.4509 77.2615 59.1 80.5221 59.1 83.9225L59.1 131.922L70.0502 131.922L70.0502 87.6624C70.0502 86.1796 70.6389 84.7576 71.6873 83.7097C72.7356 82.6611 74.1575 82.0724 75.6399 82.0724L103.64 82.0724C105.122 82.0724 106.544 82.6611 107.593 83.7097C108.641 84.7576 109.23 86.1796 109.23 87.6624L109.23 131.922L120.23 131.922L120.15 83.9225C120.15 80.5221 118.8 77.2615 116.395 74.8573C113.991 72.4531 110.73 71.1023 107.33 71.1023L71.9202 71.1023Z"   fill="#00C650" >
</path>
<path d="M107.25 118.942C100.081 118.942 94.27 124.754 94.27 131.922C94.27 139.091 100.081 144.902 107.25 144.902C114.419 144.902 120.23 139.091 120.23 131.922C120.23 124.754 114.419 118.942 107.25 118.942Z"   fill="#00C650" >
</path>
<path d="M57.19 118.942C50.0214 118.942 44.21 124.754 44.21 131.922C44.21 139.091 50.0214 144.902 57.19 144.902C64.3586 144.902 70.17 139.091 70.17 131.922C70.17 124.754 64.3586 118.942 57.19 118.942Z"   fill="#00C650" >
</path>
</svg>
