<svg xmlns="http://www.w3.org/2000/svg" xmlns:xlink="http://www.w3.org/1999/xlink" width="200" height="240" viewBox="0 0 200 240" fill="none">
<g  opacity="0.3">
<g opacity="0.3">
<path d="M147.811 213.954C151.077 212.602 154.045 210.622 156.544 208.122C159.045 205.623 161.028 202.656 162.381 199.39C163.733 196.126 164.43 192.624 164.43 189.091L164.43 49.2394L139.67 49.2394C134.203 49.235 128.961 47.0599 125.095 43.1957C121.229 39.3293 119.056 34.087 119.051 28.62L119.051 0L26.9106 0C19.7744 0 12.9324 2.83392 7.88606 7.87752C2.83971 12.9233 0.0032886 19.764 0 26.9006L0 189.121C0.0082215 196.251 2.84628 203.09 7.89264 208.129C12.9374 213.168 19.7776 216 26.9106 216L137.51 216C141.045 216.002 144.545 215.307 147.811 213.954Z"   fill="#FF9908" >
</path>
</g>
</g>
<path d="M119.05 0L119.05 28.6198C119.055 34.0874 121.23 39.329 125.096 43.1948C128.961 47.0606 134.203 49.2346 139.67 49.24L164.43 49.24L119.05 0Z"   fill="#FF9908" >
</path>
<path d="M42.84 186.66L42.84 223.94C42.84 232.81 50.0301 240 58.9002 240L183.94 240C192.81 240 200 232.81 200 223.94L200 186.66C200 177.79 192.81 170.6 183.94 170.6L58.9002 170.6C50.0301 170.6 42.84 177.79 42.84 186.66Z"   fill="#FF9908" >
</path>
<path d="M59.47 213.37L59.47 220.64L67 220.64L67 213.37L59.47 213.37Z"   fill="#FFFFFF" >
</path>
<path d="M95.47 220.64L104.47 220.64L111.66 190.57L103.88 190.57L99.9702 212.35L94.69 190.57L86.69 190.57L81.4102 212.35L77.54 190.57L69.63 190.57L76.8201 220.64L85.82 220.64L90.6702 200.52L95.47 220.64Z"   fill="#FFFFFF" >
</path>
<path d="M124.34 190.81L115.45 190.81L115.45 220.67L122.73 220.67L122.73 201.96L129.24 220.67L135.53 220.67L142 202L142 220.64L149.3 220.64L149.3 190.78L140.42 190.81L132.47 211.61L124.34 190.81Z"   fill="#FFFFFF" >
</path>
<path d="M182.53 220.64L171.53 190.78L163.15 190.78L152.15 220.64L159.8 220.64L161.68 215.15L173 215.15L174.79 220.64L182.53 220.64ZM171.13 209.62L167.38 198.57L163.6 209.62L171.13 209.62Z" fill-rule="evenodd"  fill="#FFFFFF" >
</path>
<path d="M56.52 83.9203L56.52 131.92L67.5197 131.92L67.5197 87.6602C67.5197 86.1774 68.109 84.7554 69.1574 83.7075C70.2058 82.6589 71.6277 82.0702 73.1101 82.0702L101.11 82.0702C102.592 82.0702 104.014 82.6589 105.063 83.7075C106.111 84.7554 106.7 86.1774 106.7 87.6602L106.7 131.92L117.65 131.92L117.58 83.9203C117.58 80.5199 116.229 77.2593 113.825 74.8551C111.421 72.4509 108.16 71.1001 104.76 71.1001L69.35 71.1001C65.9493 71.1001 62.6874 72.4503 60.2813 74.8545C57.8753 77.2581 56.5224 80.5193 56.52 83.9203Z"   fill="#FF9908" >
</path>
<path d="M104.67 118.94C97.5014 118.94 91.69 124.751 91.69 131.92C91.69 139.089 97.5014 144.9 104.67 144.9C111.839 144.9 117.65 139.089 117.65 131.92C117.65 124.751 111.839 118.94 104.67 118.94Z"   fill="#FF9908" >
</path>
<path d="M54.6 118.94C47.4314 118.94 41.62 124.751 41.62 131.92C41.62 139.089 47.4314 144.9 54.6 144.9C61.7686 144.9 67.58 139.089 67.58 131.92C67.58 124.751 61.7686 118.94 54.6 118.94Z"   fill="#FF9908" >
</path>
</svg>
