<?xml version="1.0" standalone="no"?><!DOCTYPE svg PUBLIC "-//W3C//DTD SVG 1.1//EN" "http://www.w3.org/Graphics/SVG/1.1/DTD/svg11.dtd"><svg t="1718179404516" class="icon" viewBox="0 0 1024 1024" version="1.1" xmlns="http://www.w3.org/2000/svg" p-id="1597" xmlns:xlink="http://www.w3.org/1999/xlink" width="200" height="200"><path d="M511.886899 1024c282.255654 0 511.888219-229.631177 511.888219-511.888219 0-282.255654-229.632565-511.886831-511.888219-511.886831C229.629857 0.22495-0.00132 229.856127-0.00132 512.111781c0 282.257042 229.627011 511.888219 511.888219 511.888219" fill="#F77E59" p-id="1598"></path><path d="M771.41841 679.896909H541.64282c-10.043613 0-18.18348-7.771893-18.18348-17.354497 0-9.578438 8.141256-17.354497 18.18348-17.354496H771.41841c10.043613 0 18.184869 7.77467 18.184868 17.354496 0 9.582604-8.141256 17.354497-18.184868 17.354497z m0 0" fill="#FFFFFF" p-id="1599"></path><path d="M656.527144 795.611604c-9.581215 0-17.354497-8.513396-17.354497-19.015241v-228.116234c0-10.501845 7.771893-19.011075 17.354497-19.011074 9.578438 0 17.351719 8.510618 17.351719 19.011074v228.117623c0.011109 10.501845-7.763561 19.013852-17.351719 19.013852z m0 0M500.313069 529.467666c-83.080243 0-150.427854-69.941482-150.427854-156.214075 0-86.269816 67.347611-156.211298 150.427854-156.211298s150.43202 69.94287 150.43202 156.211298c-0.101366 86.23649-67.386491 156.11132-150.43202 156.214075z m0-277.709437c-63.909482 0-115.711918 54.40325-115.711918 121.495362s51.802436 121.495362 115.711918 121.495362c63.912259 0 115.714695-54.40325 115.714695-121.495362-0.083315-67.062951-51.838539-121.40927-115.714695-121.495362z m0 0" fill="#FFFFFF" p-id="1600"></path><path d="M517.327363 807.182657H304.959036c-39.077472-0.036103-70.752413-28.843623-70.789905-69.424929v-22.461701c0.129138-121.745306 95.133134-220.406827 212.368327-220.535966h53.095206c9.772839 0 17.694699 8.232902 17.694699 18.375105 0 10.151922-7.237289 16.340832-17.012906 16.340831h-57.860819c-97.685348 0.109698-173.444988 83.688442-173.565794 185.136848v23.144883c0.027772 20.285793 15.178589 34.688164 34.717325 34.717324h208.284507c9.772839 0 23.142106 6.187521 23.142106 16.340832s-7.93158 18.366773-17.704419 18.366773z m0 0" fill="#FFFFFF" p-id="1601"></path></svg>