<svg xmlns="http://www.w3.org/2000/svg" xmlns:xlink="http://www.w3.org/1999/xlink" width="200" height="240" viewBox="0 0 200 240" fill="none">
<g  opacity="0.3">
<g opacity="0.3">
<path d="M125.096 43.1957C121.23 39.3293 119.055 34.087 119.05 28.62L119.05 0L26.9106 0C19.7731 0 12.9283 2.83608 7.88229 7.88184C2.8346 12.9276 0 19.7726 0 26.9093L0 189.13C0.0098652 196.26 2.85104 203.094 7.89545 208.133C12.9415 213.17 19.7797 216 26.9106 216L137.509 216C144.647 216 151.492 213.164 156.538 208.118C161.585 203.072 164.42 196.227 164.42 189.091L164.42 49.2394L139.67 49.2394C134.203 49.235 128.961 47.0599 125.096 43.1957Z"   fill="#A140FF" >
</path>
</g>
</g>
<path d="M119.05 0L119.05 28.6198C119.055 34.0874 121.23 39.329 125.096 43.1948C128.961 47.0606 134.203 49.2346 139.67 49.24L164.42 49.24L119.05 0Z"   fill="#A140FF" >
</path>
<path d="M42.8401 186.66L42.8401 223.94C42.8401 232.81 50.0302 240 58.9003 240L183.94 240C192.81 240 200 232.81 200 223.94L200 186.66C200 177.79 192.81 170.6 183.94 170.6L58.9003 170.6C50.0302 170.6 42.8401 177.79 42.8401 186.66Z"   fill="#A140FF" >
</path>
<path d="M73.3101 213.37L73.3101 220.64L80.8401 220.64L80.8401 213.37L73.3101 213.37Z"   fill="#FFFFFF" >
</path>
<path d="M91.0901 190.57L82.46 190.57L92.3701 205.16L82.7499 220.64L91.0901 220.64L96.53 211.28L102.87 220.64L111.51 220.64L101.38 205.71L110.87 190.57L102.57 190.57L97.2601 199.63L91.0901 190.57Z"   fill="#FFFFFF" >
</path>
<path d="M131.33 211.61L123.2 190.81L114.31 190.81L114.31 220.67L121.59 220.67L121.59 201.96L128.09 220.67L134.39 220.67L140.85 202L140.85 220.64L148.13 220.64L148.13 190.78L139.28 190.81L131.33 211.61Z"   fill="#FFFFFF" >
</path>
<path d="M160.4 190.57L153.12 190.57L153.12 220.64L170.12 220.64L170.12 215.07L160.42 215.07L160.4 190.57Z"   fill="#FFFFFF" >
</path>
<path d="M53.5707 124.316L59.5703 126.806L63.2101 128.286L64.53 128.756L64.95 128.896C65.1 128.954 65.2595 128.984 65.4201 128.986C65.7318 129.004 66.0435 128.958 66.3361 128.849C66.6287 128.741 66.8957 128.573 67.12 128.356C67.3133 128.169 67.4668 127.946 67.5716 127.698C67.6764 127.451 67.7303 127.185 67.73 126.916L67.73 124.376C67.7322 123.912 67.5849 123.459 67.31 123.086C67.0076 122.677 66.5996 122.359 66.1303 122.165L50.3607 115.715L66.1303 109.264C66.617 109.09 67.0318 108.76 67.31 108.324C67.5746 107.934 67.7205 107.475 67.73 107.004L67.73 104.464C67.7311 104.198 67.6775 103.935 67.5724 103.69C67.4676 103.446 67.3138 103.226 67.12 103.043C66.8919 102.833 66.6238 102.671 66.3317 102.566C66.0399 102.462 65.7299 102.416 65.4201 102.433C65.2584 102.434 65.0981 102.468 64.95 102.534C64.8874 102.52 64.8226 102.52 64.76 102.534L64.53 102.633L63.2101 103.103L59.5403 104.604C56.6139 105.77 54.6138 106.604 53.5405 107.104L45.8209 110.354L43.891 111.154C43.2296 111.391 42.5847 111.671 41.9608 111.994C41.549 112.267 41.1845 112.605 40.881 112.994C40.6276 113.342 40.4972 113.765 40.5111 114.195L40.541 117.295C40.5704 117.746 40.7204 118.181 40.9755 118.554C41.2308 118.927 41.5814 119.224 41.9911 119.415C42.6509 119.735 43.3011 120.015 43.9209 120.265L45.8508 121.065L53.5707 124.316Z"   fill="#A140FF" >
</path>
<path d="M85.77 114.37L85.0701 112.87L79.75 101.101L77.8701 96.9615L77.5401 96.0715L77.02 95.0714C76.7692 94.6469 76.4104 94.2966 75.9799 94.056C75.5497 93.8155 75.063 93.6931 74.5701 93.7015L72.23 93.7015C71.577 93.6787 70.939 93.8998 70.4401 94.3216C70.2192 94.4953 70.0405 94.7172 69.9175 94.9699C69.7944 95.2226 69.7302 95.5004 69.73 95.7816C69.73 96.2482 70.8467 98.898 73.08 103.731C74.8001 107.531 75.9599 110.07 76.5601 111.351L77.0801 112.53L84.2799 128.439L84.6101 129.329C84.7335 129.684 84.9052 130.021 85.1199 130.329C85.379 130.758 85.7466 131.11 86.1857 131.35C86.6248 131.591 87.1194 131.711 87.62 131.699L89.91 131.689C90.5631 131.713 91.2014 131.492 91.6999 131.069C91.9194 130.896 92.0977 130.676 92.2206 130.425C92.3435 130.174 92.4082 129.899 92.41 129.619C91.4502 126.891 90.335 124.22 89.0699 121.62L85.77 114.37Z"   fill="#A140FF" >
</path>
<path d="M121.16 114.124C121.141 113.663 120.994 113.216 120.736 112.833C120.479 112.45 120.12 112.145 119.7 111.954C119.112 111.621 118.496 111.34 117.86 111.114L116.78 110.684L116.03 110.404C113.077 109.117 110.457 108.004 108.17 107.063C103.977 105.31 101.977 104.476 102.17 104.563L98.4501 103.063C97.54 102.713 97.1202 102.593 97.1803 102.593L96.9701 102.493C96.8842 102.478 96.7961 102.478 96.7102 102.493C96.5808 102.425 96.4364 102.39 96.2901 102.393C95.6587 102.361 95.0402 102.58 94.5703 103.003C94.3778 103.183 94.225 103.402 94.1217 103.645C94.0184 103.888 93.9667 104.149 93.9702 104.413L93.9702 106.993C93.9776 107.46 94.1277 107.914 94.4004 108.293C94.6829 108.735 95.0899 109.083 95.5701 109.294L111.39 115.734L95.5701 122.185C95.0872 122.364 94.6693 122.685 94.3702 123.105C94.1057 123.482 93.9656 123.933 93.9702 124.395L93.9702 126.935C93.9762 127.476 94.1956 127.994 94.5801 128.375C94.8131 128.595 95.0886 128.764 95.3896 128.872C95.6906 128.981 96.0108 129.026 96.3303 129.005L97.2001 128.945L97.3902 128.805C97.4802 128.745 97.7801 128.585 98.2801 128.335L115.7 121.044L117.7 120.244C118.46 119.924 119.13 119.624 119.7 119.344C120.119 119.113 120.481 118.792 120.76 118.404C121.011 118.061 121.151 117.649 121.16 117.224L121.16 114.124Z"   fill="#A140FF" >
</path>
</svg>
