<svg xmlns="http://www.w3.org/2000/svg" xmlns:xlink="http://www.w3.org/1999/xlink" width="200" height="240.010009765625" viewBox="0 0 200 240.010009765625" fill="none">
<g  opacity="0.3">
<g opacity="0.3">
<path d="M119.05 28.6296L119.05 0L26.9106 0C19.7731 0 12.9283 2.83444 7.88229 7.88114C2.8346 12.9278 0 19.772 0 26.9099L0 189.13C0 196.266 2.8346 203.112 7.88229 208.159C12.9283 213.206 19.7731 216.04 26.9106 216.04L137.509 216.04C144.647 216.04 151.492 213.206 156.538 208.159C161.585 203.112 164.42 196.266 164.42 189.13L164.42 49.2506L139.67 49.2506C134.203 49.2442 128.961 47.0708 125.096 43.2037C121.23 39.3387 119.055 34.0976 119.05 28.6296Z"   fill="#00C650" >
</path>
</g>
</g>
<path d="M119.05 0L119.05 28.63C119.055 34.0973 121.23 39.3389 125.096 43.2046C128.961 47.0707 134.203 49.2446 139.67 49.25L164.42 49.25L119.05 0Z"   fill="#00C650" >
</path>
<path d="M42.8401 186.67L42.8401 223.95C42.8401 232.819 50.0302 240.01 58.9003 240.01L183.94 240.01C192.81 240.01 200 232.819 200 223.95L200 186.67C200 177.801 192.81 170.61 183.94 170.61L58.9003 170.61C50.0302 170.61 42.8401 177.801 42.8401 186.67Z"   fill="#00C650" >
</path>
<path d="M79.8999 213.38L79.8999 220.65L87.4299 220.65L87.4299 213.38L79.8999 213.38Z"   fill="#FFFFFF" >
</path>
<path d="M89.3501 220.65L97.6802 220.65L103.13 211.29L109.46 220.65L118.1 220.65L107.98 205.72L117.46 190.58L109.17 190.58L103.85 199.64L97.6802 190.58L89.05 190.58L98.9599 205.17L89.3501 220.65Z"   fill="#FFFFFF" >
</path>
<path d="M130.29 201.609C129.627 201.33 129.027 200.918 128.53 200.399C128.066 199.911 127.814 199.261 127.83 198.589C127.805 198.219 127.861 197.847 127.996 197.501C128.131 197.156 128.341 196.844 128.61 196.589C129.194 196.117 129.93 195.874 130.68 195.909C131.113 195.887 131.545 195.954 131.951 196.105C132.357 196.256 132.728 196.489 133.041 196.789C133.653 197.434 134.033 198.264 134.121 199.148L141.992 199.148C141.922 197.884 141.589 196.649 141.014 195.521C140.438 194.393 139.634 193.398 138.652 192.599C136.344 190.896 133.514 190.051 130.65 190.209C128.764 190.157 126.887 190.498 125.14 191.209C123.623 191.83 122.315 192.871 121.369 194.209C120.448 195.578 119.972 197.199 120.009 198.849C119.931 200.514 120.386 202.16 121.309 203.548C122.104 204.695 123.169 205.629 124.409 206.269C125.919 207.002 127.476 207.633 129.07 208.158C130.384 208.618 131.404 209.009 132.131 209.329C132.823 209.625 133.451 210.053 133.981 210.589C134.228 210.84 134.422 211.139 134.551 211.467C134.68 211.795 134.741 212.146 134.731 212.499C134.742 212.87 134.676 213.24 134.537 213.584C134.397 213.928 134.188 214.24 133.921 214.498C133.621 214.766 133.272 214.972 132.892 215.104C132.513 215.236 132.111 215.292 131.71 215.268C130.726 215.299 129.77 214.94 129.05 214.268C128.327 213.557 127.895 212.601 127.84 211.588L120.099 211.588C120.138 212.931 120.479 214.248 121.097 215.441C121.716 216.634 122.595 217.672 123.669 218.478C126.099 220.204 129.033 221.073 132.01 220.948C133.984 221.003 135.943 220.595 137.731 219.758C139.2 219.056 140.439 217.949 141.302 216.569C142.1 215.282 142.529 213.802 142.542 212.288C142.617 210.599 142.155 208.929 141.222 207.518C140.403 206.362 139.328 205.411 138.081 204.739C136.555 203.976 134.973 203.327 133.351 202.799C132.021 202.319 131 201.919 130.29 201.609Z"   fill="#FFFFFF" >
</path>
<path d="M153.85 190.58L146.57 190.58L146.57 220.65L163.57 220.65L163.57 215.08L153.83 215.08L153.85 190.58Z"   fill="#FFFFFF" >
</path>
<path d="M45.5704 143.63L118.92 143.63C122.02 143.63 124.54 140.54 124.54 136.74L124.54 83.5501C124.54 79.7497 122.02 76.6597 118.92 76.6597L45.5704 76.6597C42.4602 76.6597 39.9398 79.7497 39.9398 83.5501L39.9398 136.74C39.9398 140.54 42.4602 143.63 45.5704 143.63ZM130.43 136.74L130.43 83.5501C130.43 75.78 125.26 69.46 118.92 69.46L45.5704 69.46C39.2199 69.46 34.05 75.78 34.05 83.5501L34.05 136.74C34.05 144.52 39.2199 150.84 45.5704 150.84L118.89 150.84C125.23 150.84 130.4 144.52 130.43 136.74Z" fill-rule="evenodd"  fill="#00C650" >
</path>
<path d="M36.97 126.02L127.46 126.02L127.46 118.81L36.97 118.81L36.97 126.02Z"   fill="#00C650" >
</path>
<path d="M36.97 101.3L127.46 101.3L127.46 94.09L36.97 94.09L36.97 101.3Z"   fill="#00C650" >
</path>
<path d="M97.0701 147.23L104.28 147.23L104.28 73.06L97.0701 73.06L97.0701 147.23Z"   fill="#00C650" >
</path>
<path d="M60.1399 147.23L67.3499 147.23L67.3499 73.06L60.1399 73.06L60.1399 147.23Z"   fill="#00C650" >
</path>
</svg>
