<svg xmlns="http://www.w3.org/2000/svg" xmlns:xlink="http://www.w3.org/1999/xlink" width="200" height="240.010009765625" viewBox="0 0 200 240.010009765625" fill="none">
<g  opacity="0.3">
<g opacity="0.3">
<path d="M139.67 49.2502C134.201 49.2415 128.961 47.0664 125.095 43.1978C121.229 39.3314 119.056 34.0891 119.051 28.62L119.051 0L26.9106 0C19.7727 0 12.9291 2.83608 7.88113 7.88184C2.83477 12.9276 0 19.7726 0 26.9093L0 189.13C0.0098658 196.26 2.85122 203.094 7.89593 208.133C12.9406 213.17 19.7793 216 26.9106 216L137.519 216C144.651 216 151.489 213.17 156.534 208.133C161.579 203.094 164.42 196.26 164.43 189.13L164.43 49.2502L139.67 49.2502Z"   fill="#FF3E4C" >
</path>
</g>
</g>
<path d="M119.05 0L119.05 28.6202C119.055 34.0879 121.229 39.3306 125.095 43.1982C128.96 47.0658 134.202 49.2421 139.67 49.25L164.43 49.25L119.05 0Z"   fill="#FF3E4C" >
</path>
<path d="M42.84 186.67L42.84 223.95C42.84 232.819 50.0301 240.01 58.9002 240.01L183.94 240.01C192.81 240.01 200 232.819 200 223.95L200 186.67C200 177.801 192.81 170.61 183.94 170.61L58.9002 170.61C50.0301 170.61 42.84 177.801 42.84 186.67Z"   fill="#FF3E4C" >
</path>
<path d="M84.82 213.38L84.82 220.65L92.35 220.65L92.35 213.38L84.82 213.38Z"   fill="#FFFFFF" >
</path>
<path d="M116.85 190.58L95.75 190.58L95.75 196.41L108.64 196.41L95.58 215.12L95.58 220.65L116.93 220.65L116.93 214.78L103.66 214.78L116.85 196.11L116.85 190.58Z"   fill="#FFFFFF" >
</path>
<path d="M121.43 190.58L121.43 220.65L128.67 220.65L128.67 190.58L121.43 190.58Z"   fill="#FFFFFF" >
</path>
<path d="M145.43 190.58L133.69 190.58L133.69 220.65L140.96 220.65L140.96 210.1L145.43 210.1C147.5 210.16 149.555 209.731 151.43 208.85C152.982 208.092 154.276 206.891 155.149 205.4C156.006 203.875 156.441 202.149 156.409 200.4C156.472 199.076 156.255 197.754 155.77 196.519C155.286 195.285 154.546 194.168 153.599 193.24C151.729 191.46 149 190.58 145.43 190.58ZM144.66 204.22C147.58 204.253 149.04 202.98 149.04 200.4C149.04 197.767 147.58 196.433 144.66 196.4L140.96 196.4L140.96 204.22L144.66 204.22Z" fill-rule="evenodd"  fill="#FFFFFF" >
</path>
<path d="M82.1999 152.52C85.5647 152.517 88.791 151.179 91.1702 148.8C93.5494 146.421 94.8875 143.195 94.89 139.83L94.89 127.14L69.52 127.14L69.52 139.83C69.5225 143.193 70.859 146.418 73.2362 148.797C75.6134 151.176 78.8369 152.515 82.1999 152.52ZM86.5811 144.211C87.7433 143.049 88.3973 141.473 88.3998 139.83L88.3998 133.63L76.0099 133.63L76.0099 139.83C76.0099 141.473 76.6619 143.048 77.8223 144.211C78.983 145.373 80.5575 146.027 82.1999 146.03C83.8436 146.027 85.4189 145.373 86.5811 144.211Z" fill-rule="evenodd"  fill="#FF3E4C" >
</path>
<path d="M82.23 114.43L69.51 114.43L69.51 127.15L82.23 127.15L82.23 114.43Z"   fill="#FF3E4C" >
</path>
<path d="M94.92 101.72L82.2 101.72L82.2 114.44L94.92 114.44L94.92 101.72Z"   fill="#FF3E4C" >
</path>
<path d="M82.23 89.01L69.51 89.01L69.51 101.73L82.23 101.73L82.23 89.01Z"   fill="#FF3E4C" >
</path>
<path d="M94.92 76.3L82.2 76.3L82.2 89.02L94.92 89.02L94.92 76.3Z"   fill="#FF3E4C" >
</path>
</svg>
