<?xml version="1.0" standalone="no"?><!DOCTYPE svg PUBLIC "-//W3C//DTD SVG 1.1//EN" "http://www.w3.org/Graphics/SVG/1.1/DTD/svg11.dtd"><svg t="1718179514554" class="icon" viewBox="0 0 1223 1024" version="1.1" xmlns="http://www.w3.org/2000/svg" p-id="1757" xmlns:xlink="http://www.w3.org/1999/xlink" width="238.8671875" height="200"><path d="M107.822922 361.377493l-5.09078-6.24469c4.072624-3.258099 8.484633-6.651952 13.303904-10.045806l4.751395 6.651953c-4.61564 3.258099-8.959773 6.516198-12.896642 9.638543z m19.548594-14.254184l-4.61564-6.787706c9.231281-6.108936 18.666193-11.878486 28.372613-17.376529l4.072624 7.059215c-10.317314 5.973182-19.684349 11.674855-27.829597 17.10502z m920.922076 498.421287c-8.281002 0-16.562004-0.271508-24.435743-0.814525l0.543016-8.145248c10.86033 0.678771 21.856415 0.950279 32.716746 0.678771l0.271508 8.145248c-2.986591 0.135754-5.973182 0.135754-9.095527 0.135754z m17.512283-0.271509l-0.271508-8.145247c10.86033-0.407262 21.856415-1.221787 32.716745-2.443575l0.950279 8.145248c-11.131839 1.086033-22.399431 1.900558-33.395516 2.443574z m-50.229028-1.086033a277.04024 277.04024 0 0 1-33.259762-5.090779l1.696927-8.009494a271.966429 271.966429 0 0 0 32.241606 4.887149z m-41.405009-7.059214a174.562841 174.562841 0 0 1-31.766467-11.674855l3.665362-7.330723a156.541481 156.541481 0 0 0 30.137417 11.131838z m-39.232944-15.747479a103.665247 103.665247 0 0 1-26.336301-21.584907l6.24469-5.294411a98.421744 98.421744 0 0 0 24.299989 19.955857z m-31.630712-28.508368a93.212179 93.212179 0 0 1-13.982675-31.019818l8.009493-1.900558a85.457225 85.457225 0 0 0 12.760888 28.372613z m-15.747479-39.368697a130.833042 130.833042 0 0 1-1.696927-20.634628c0-4.208378 0.271508-8.484633 0.543017-13.032396l8.145248 0.67877c-0.407262 4.208378-0.543017 8.484633-0.543017 12.353626a126.539818 126.539818 0 0 0 1.493296 19.412841z m7.873739-40.997747l-8.145247-1.086033a228.117845 228.117845 0 0 1 6.92346-32.716745l7.87374 2.172066a256.999536 256.999536 0 0 0-6.651953 31.630712z m9.095527-39.232944l-7.873739-2.443574c3.122345-9.910051 7.059215-20.498874 11.539101-31.087696l7.602231 3.122345c-4.479886 10.453068-8.145248 20.770382-11.267593 30.408925z m14.525692-37.875402l-7.466477-3.258099c4.208378-9.502789 8.959773-19.548595 14.389938-29.865908l7.330723 3.801115q-7.737985 14.457815-14.254184 29.322892z m17.919545-36.449984l-7.194969-3.801115c5.09078-9.367035 10.588822-19.005578 16.290496-28.847753l7.059214 4.072624c-5.701673 9.367035-10.996084 18.869824-16.154741 28.508367z m20.36312-35.635459L950.279111 559.103382c5.430165-8.959773 11.403347-18.326807 17.648037-27.829596l6.92346 4.479886c-6.108936 9.095527-11.878486 18.326807-17.512282 27.558088z m22.060046-34.481548l-6.787707-4.479887c5.837428-8.824018 12.082118-17.919545 18.666193-27.150826l6.651952 4.615641c-6.380444 8.959773-12.48938 18.055299-18.666193 27.015072z m23.34971-33.667025l-6.651953-4.751394c6.24469-8.688264 12.760888-17.512283 19.548595-26.60781l6.516198 4.887149c-6.516198 8.824018-13.032396 17.648037-19.41284 26.472055z m24.299989-32.988253L1020.531873 457.287785c6.516198-8.484633 13.168151-17.240774 20.227365-26.064793l6.516198 5.09078c-7.059215 8.824018-13.711167 17.512283-20.227365 25.929039z m25.250268-32.241606l-6.380444-5.09078q9.910051-12.557257 20.668566-25.65753l6.380444 5.09078c-7.194969 8.688264-14.118429 17.10502-20.770381 25.453899z m25.929039-31.90222l-6.380444-5.09078q10.18156-12.421503 21.177644-25.250268l6.24469 5.294411c-7.194969 8.484633-14.254184 16.969266-21.04189 25.114514zM1104.699433 366.671904l-6.312567-5.294411 4.751395-5.56592c5.837428-6.651952 11.131839-13.168151 16.154741-19.548594l6.380444 5.09078c-5.09078 6.380444-10.588822 13.032396-16.42625 19.820103z m26.472055-31.902221l-6.516198-4.887148c7.059215-9.095527 13.439659-18.055299 19.005578-26.472056l6.923461 4.479887c-6.24469 9.095527-12.625134 18.191053-19.412841 26.879317z m-968.741468-8.484633l-3.93687-7.059214c9.231281-5.09078 19.141332-10.18156 29.594401-15.27234l3.665361 7.330723c-9.910051 4.751395-19.684349 9.774297-29.322892 14.932954z m36.653615-18.666193l-3.597484-7.330723q15.068708-7.127092 30.137416-13.846921l3.393854 7.466477a699.422245 699.422245 0 0 0-30.001663 13.711167z m955.844826-6.787706l-6.923461-4.344132a252.044511 252.044511 0 0 0 15.747479-28.236859l7.466478 3.529607a244.18774 244.18774 0 0 1-16.290496 29.051384z m-918.376686-10.317314l-3.258099-7.466477c10.18156-4.344132 20.363119-8.688264 30.544679-12.760888l3.122345 7.602231c-10.18156 4.072624-20.363119 8.281002-30.408925 12.625134z m38.011156-15.747479l-2.986591-7.602231c10.045806-3.93687 20.363119-8.009494 30.951942-11.878486l2.850836 7.602231c-10.453068 4.072624-20.770382 8.009494-30.816187 11.878486z m900.185633-10.588822l-7.602231-3.258099a149.482266 149.482266 0 0 0 9.638543-30.408925l8.009494 1.493295a157.814176 157.814176 0 0 1-10.045806 32.241606z m-861.63146-4.072624l-2.850837-7.602231c10.18156-3.801116 20.634628-7.466477 31.22345-11.267593l2.715083 7.737986c-10.588822 3.529607-20.906136 7.330723-31.087696 11.131838z m38.757804-14.118429l-2.715083-7.737986q15.679602-5.498042 31.359204-10.588822l2.579329 7.737986c-10.453068 3.529607-20.906136 7.059215-31.22345 10.588822z m39.029312-13.168151l-2.579328-7.737985c10.453068-3.393853 20.906136-6.787706 31.630712-10.045806l2.443574 7.737986c-10.588822 3.393853-21.04189 6.651952-31.494958 10.045805z m794.976183-9.367035l-8.145248-0.814525c0.271508-3.122345 0.543017-6.24469 0.543016-9.23128a68.91219 68.91219 0 0 0-3.258099-21.449153l7.737986-2.443574a76.802899 76.802899 0 0 1 3.665361 24.028481 63.176578 63.176578 0 0 1-0.543016 9.910051z m-755.539608-2.918714l-2.443575-7.737985c10.588822-3.258099 21.177644-6.380444 31.766467-9.502789l2.30782 7.737985c-10.588822 3.122345-21.177644 6.24469-31.630712 9.502789z m39.640206-11.878486l-2.307821-7.873739c10.588822-2.986591 21.177644-5.973182 31.902221-8.959773l2.172066 7.87374q-16.086864 4.479886-31.766466 8.959772z m39.775959-11.131839l-2.172066-7.873739c10.588822-2.850837 21.313398-5.701673 32.037975-8.484633l2.036312 7.873739c-10.724576 2.850837-21.449152 5.701673-31.902221 8.484633z m39.77596-10.453068l-2.036312-7.873739c10.724576-2.715083 21.449152-5.430165 32.241606-8.009494l1.900558 7.87374c-10.724576 2.579328-21.449152 5.09078-32.037974 8.009493z m622.77207-2.30782a69.896407 69.896407 0 0 0-19.344964-23.960604l5.09078-6.24469a77.074407 77.074407 0 0 1 21.51703 26.947195z m-582.724601-7.670108l-1.900558-7.87374c10.724576-2.579328 21.584907-5.09078 32.241606-7.466477l1.696926 7.87374c-10.724576 2.443574-21.449152 5.09078-32.241606 7.466477z m40.318976-9.163404l-1.696927-8.009493c10.86033-2.443574 21.720661-4.751395 32.445237-7.059215l1.696927 8.009493c-10.724576 2.30782-21.584907 4.61564-32.241606 7.059215z m40.454731-8.688264l-1.696927-8.009494c10.86033-2.172066 21.720661-4.344132 32.580991-6.380444l1.493296 8.009494c-10.86033 2.036312-21.584907 4.208378-32.445237 6.380444z m476.36124-3.190222a131.189397 131.189397 0 0 0-28.508367-14.525692l2.986591-7.534354a139.147983 139.147983 0 0 1 30.137417 15.475971z m-435.90651-4.751395l-1.493295-8.009493c10.86033-2.036312 21.856415-3.93687 32.580991-5.837428l1.357541 8.009494c-10.724576 1.696927-21.449152 3.801116-32.445237 5.837427z m40.726239-7.330723l-1.357541-8.009493c10.86033-1.696927 21.856415-3.529607 32.716745-5.09078l1.221787 8.009493-32.580991 5.09078z m359.069673-5.09078a249.346397 249.346397 0 0 0-31.494958-8.281001l1.696926-8.009494a291.701686 291.701686 0 0 1 32.445237 8.484633z m-318.343434-1.221787l-1.221787-8.009493c10.996084-1.696927 21.856415-3.122345 32.852499-4.479887l1.086033 8.009494c-10.724576 1.357541-21.720661 2.850837-32.716745 4.479886z m40.997747-5.565919l-0.950279-8.009494q16.697758-2.036312 32.988254-3.665361l0.814524 8.145248c-10.86033 0.950279-21.856415 2.172066-32.852499 3.529607z m237.841235-2.850837c-10.724576-1.900558-21.584907-3.258099-32.445237-4.344132l0.814525-8.145248c11.674855 1.086033 22.806694 2.579328 33.124007 4.344133z m-196.843488-1.696926l-0.814525-8.145248c10.996084-1.086033 22.060046-2.036312 33.124008-2.715083l0.543017 8.145248c-10.996084 0.814525-22.060046 1.696927-32.8525 2.715083z m40.997747-3.258099l-0.543016-8.145248c11.267593-0.678771 22.399431-1.221787 33.259762-1.696927l0.271508 8.145248q-16.086864 0.610894-32.988254 1.696927z m115.119502-0.135755c-10.86033-0.814525-21.856415-1.357541-32.852499-1.696926l0.271508-8.145248c11.539101 0.271508 22.67094 0.814525 33.259762 1.696927z m-73.850246-1.696926l-0.271509-8.145248c11.131839-0.271508 22.060046-0.407262 33.259762-0.135754l-0.135754 8.145248c-4.072624 0-8.009494 0-12.48938-0.135754-6.651952 0-13.439659 0-20.363119 0.271508z m151.365854 719.157501l-1.086033-8.009494c5.294411-0.678771 10.724576-1.493295 16.018987-2.443574l1.493296 8.009494c0-0.135754-6.108936 1.086033-16.42625 2.443574z m0 0" fill="#33CC66" p-id="1758"></path><path d="M1123.365626 630.645809H833.191174a55.879794 55.879794 0 0 1 14.593569-109.757214h125.165307a31.766466 31.766466 0 0 0 0-63.532933H665.331193c-16.969266 0-30.137417 13.982675-30.137417 31.087696s13.168151 30.408925 29.5944 32.241606h5.09078a55.879794 55.879794 0 0 1 14.525692 109.689336h-23.383649a45.392787 45.392787 0 0 0-45.341879 45.613388v3.122345a45.223094 45.223094 0 0 0 45.341879 45.749142h462.480381a45.307941 45.307941 0 0 0 45.341879-45.613388v-2.986591a45.511572 45.511572 0 0 0-45.477633-45.613387M184.354312 876.632291h1001.865476v138.469212h-1001.865476z" fill="#AEF1BB" p-id="1759"></path><path d="M1161.919799 524.282448a5.498042 5.498042 0 0 1-5.56592-5.565919v-32.648868L1132.868415 509.553125a5.279139 5.279139 0 1 1-7.466477-7.466477l23.485464-23.485464h-32.716745a5.565919 5.565919 0 1 1 0-11.131839h32.852499l-23.485464-23.34971a5.279139 5.279139 0 0 1 7.466477-7.466477l23.519403 23.485464V427.421877a5.565919 5.565919 0 1 1 11.131839 0v32.716745l23.485464-23.485464a5.279139 5.279139 0 0 1 7.466477 7.466477l-23.519403 23.485464h32.716745a5.565919 5.565919 0 0 1 0 11.131839h-32.716745l23.485465 23.485464a5.279139 5.279139 0 0 1-7.466477 7.466477l-23.485465-23.485464v32.580991a5.701673 5.701673 0 0 1-5.701673 5.565919M24.673517 689.427347A24.74119 24.74119 0 0 1 0.000204 664.584341a25.284207 25.284207 0 0 1 24.673313-24.910883 25.182391 25.182391 0 0 1 24.707252 24.843006 24.74119 24.74119 0 0 1-24.707252 24.910883m0-38.825681a13.982675 13.982675 0 1 0 0 27.96535 14.135399 14.135399 0 0 0 13.982676-13.982675 13.796013 13.796013 0 0 0-13.982676-13.982675m579.568318-585.100299a24.74119 24.74119 0 0 1-24.673313-24.843005 24.707252 24.707252 0 1 1 49.414503 0 24.74119 24.74119 0 0 1-24.707252 24.843005m0-38.825681a13.982675 13.982675 0 1 0 13.948737 13.982676 14.135399 14.135399 0 0 0-13.982675-13.982676m591.209234 836.788455a13.473597 13.473597 0 0 1-13.473598-13.371782 13.439659 13.439659 0 1 1 13.439659 13.439659m0-21.04189a7.63617 7.63617 0 0 0 0 15.272339 7.585262 7.585262 0 0 0 7.602231-7.602231 7.85677 7.85677 0 0 0-7.602231-7.602231M80.366649 301.442045c0 45.477633 29.730154 82.538511 66.926786 82.53851-37.196631 0-66.926786 37.060877-66.926786 82.538511 0-45.477633-29.730154-82.538511-66.926786-82.538511 37.060877-0.135754 66.926786-37.196631 66.926786-82.53851M305.58275 2.511451c0 27.422334-18.869824 49.007241-42.423166 49.007241 23.485464 0 42.423165 21.720661 42.423166 49.007241 0-27.422334 18.869824-49.007241 42.423165-49.007241-23.485464 0.135754-42.423165-21.584907-42.423165-49.007241m854.164983 780.586245c0 22.399431-15.883233 40.183222-35.635459 40.183222 19.820103 0 35.635459 17.783791 35.635459 40.183223 0-22.399431 15.883233-40.183222 35.635459-40.183223-19.820103 0-35.635459-17.783791-35.635459-40.183222" fill="#33CC66" p-id="1760"></path><path d="M408.518318 414.457357m76.208975 0l-0.016969 0q76.208974 0 76.208974 76.208975l0-0.016969q0 76.208974-76.208974 76.208974l0.016969 0q-76.208974 0-76.208975-76.208974l0 0.016969q0-76.208974 76.208975-76.208975Z" fill="#F0F0F0" p-id="1761"></path><path d="M603.053986 414.457357m76.208974 0l-0.016969 0q76.208974 0 76.208975 76.208975l0-0.016969q0 76.208974-76.208975 76.208974l0.016969 0q-76.208974 0-76.208974-76.208974l0 0.016969q0-76.208974 76.208974-76.208975Z" fill="#F0F0F0" p-id="1762"></path><path d="M805.361578 414.457357m76.208974 0l-0.016969 0q76.208974 0 76.208974 76.208975l0-0.016969q0 76.208974-76.208974 76.208974l0.016969 0q-76.208974 0-76.208974-76.208974l0 0.016969q0-76.208974 76.208974-76.208975Z" fill="#F0F0F0" p-id="1763"></path><path d="M679.26296 140.420678c-220.854999 0-399.863788 155.913618-399.863788 348.226311 0 94.773352 43.509199 180.790562 114.050438 243.559878 42.423165 37.807525 285.81335 207.89048 285.81335 207.89048v-103.156169c220.83803 0 399.846819-155.913618 399.84682-348.26025S900.100991 140.420678 679.26296 140.420678zM481.621917 542.235932c-29.458646 0-53.300465-23.095171-53.300465-51.603539s23.841819-51.552631 53.300465-51.55263 53.317434 23.095171 53.317435 51.55263-23.875758 51.603538-53.317435 51.603539z m199.202216 0c-29.458646 0-53.334404-23.095171-53.334404-51.603539s23.875758-51.552631 53.334404-51.55263 53.334404 23.095171 53.334404 51.55263-23.926665 51.603538-53.334404 51.603539z m200.763388 0c-29.458646 0-53.334404-23.095171-53.334403-51.603539s23.875758-51.552631 53.334403-51.55263 53.266527 23.095171 53.266527 51.55263-23.875758 51.603538-53.232588 51.603539z m0 0" fill="#FFFFFF" p-id="1764"></path><path d="M406.85533 520.006193c-110.30023 0-199.830079 88.375938-199.830078 197.386504a194.365975 194.365975 0 0 0 38.418418 116.205535l-106.566991 105.073697a47.276376 47.276376 0 0 0 0 67.06254 48.345439 48.345439 0 0 0 67.74131 0L319.022409 894.687591a199.711294 199.711294 0 0 0 87.832921 20.091611c110.368107 0 199.864017-88.443815 199.864017-197.386505S517.223438 520.006193 406.85533 520.006193" fill="#FCFCFC" p-id="1765"></path><path d="M135.482825 1023.925522a59.392432 59.392432 0 0 1-42.219534-17.376529 59.392432 59.392432 0 0 1 0-84.16756l98.964761-98.693252a207.551095 207.551095 0 0 1-34.617303-115.526764c0-64.347457 18.462562-110.30023 59.596062-149.329543a12.01424 12.01424 0 0 1 16.969267 0.543017 11.725763 11.725763 0 0 1-0.543017 16.833512c-36.110598 34.074287-52.26534 74.800525-52.26534 132.088768A184.150477 184.150477 0 0 0 217.206811 817.986507l6.108936 8.145248-113.354698 112.811682a35.805152 35.805152 0 0 0 50.772044 50.500536l118.106093-117.563076 7.602231 3.665361a187.187975 187.187975 0 0 0 82.131249 18.869824c103.173138 0 187.204945-83.624544 187.204944-186.526174S471.745804 521.363734 368.572666 521.363734h-2.986591c-26.336301 0-49.210872 0-78.601641 16.562004a11.878486 11.878486 0 0 1-16.290496-4.61564 11.725763 11.725763 0 0 1 4.615641-16.154742c35.024565-19.684349 63.261424-19.548595 90.276496-19.548594h2.986591c116.477043 0 211.097671 94.34912 211.097671 210.283146S485.185463 918.173055 368.70842 918.173055a208.552281 208.552281 0 0 1-84.846331-17.783791l-106.023975 105.820344a57.423997 57.423997 0 0 1-42.423166 17.783791" fill="#AEF1BB" p-id="1766"></path><path d="M434.14191 647.479321c-6.108936-18.326807-19.548595-32.988253-37.739648-38.825681a87.272936 87.272936 0 0 0-43.441321-2.172066c-13.982675 2.715083-25.929039 12.217872-35.024566 23.34971-7.466477 9.095527-11.539101 19.820103-13.711167 31.22345-0.407262 2.036312-0.678771 4.072624-0.950279 6.24469h0.135755v0.814524a12.930581 12.930581 0 0 0 25.65753 2.104189c1.221787-4.751395 2.30782-9.231281 3.665362-13.575413 3.122345-9.638543 8.484633-17.783791 17.648036-23.078202 14.389938-8.484633 39.640206-9.774297 53.622882 6.923461 8.484633 10.045806 9.231281 23.34971 4.887148 35.974844a33.650055 33.650055 0 0 1-9.231281 13.303905c-6.651952 6.516198-13.439659 12.625134-20.227365 19.005578a78.957996 78.957996 0 0 0-14.254183 17.105021 58.577907 58.577907 0 0 0-7.737986 26.743563c-0.271508 4.072624-0.135754 8.145248-0.135754 12.217872 0 0.407262-0.135754 0.814525-0.135754 1.357541a12.217872 12.217872 0 0 0 24.435743 0 5.565919 5.565919 0 0 0-0.135754-1.493295c0.271508-3.801116 0.407262-7.330723 0.678771-10.996085 0.543017-7.602231 2.443574-14.7972 7.330723-20.906136a106.465176 106.465176 0 0 1 10.86033-11.267593c8.484633-8.145248 17.648037-15.883233 24.97876-25.250268 11.878486-14.661446 14.7972-31.22345 8.824018-48.871486m-63.940195 149.058034a13.439659 13.439659 0 1 0 13.439659 13.439659 13.473597 13.473597 0 0 0-13.439659-13.439659" fill="#AEF1BB" p-id="1767"></path></svg>